STARTFONT 2.1
COMMENT
COMMENT Converted from OpenType font "jbm.ttf" by "otf2bdf 3.0".
COMMENT
FONT -FreeType-JetBrains Mono-Medium-R-Normal--17-120-100-100-M-82-ISO10646-1
SIZE 12 100 100
FONTBOUNDINGBOX 24 27 -11 -7
STARTPROPERTIES 19
FOUNDRY "FreeType"
FAMILY_NAME "JetBrains Mono"
WEIGHT_NAME "Medium"
SLANT "R"
SETWIDTH_NAME "Normal"
ADD_STYLE_NAME ""
PIXEL_SIZE 17
POINT_SIZE 120
RESOLUTION_X 100
RESOLUTION_Y 100
SPACING "M"
AVERAGE_WIDTH 90
CHARSET_REGISTRY "ISO10646"
CHARSET_ENCODING "1"
FONT_ASCENT 17
FONT_DESCENT 5
COPYRIGHT "Copyright 2020 The JetBrains Mono Project Authors (https://github.com/JetBrains/JetBrainsMono)"
_OTF_FONTFILE "jbm.ttf"
_OTF_PSNAME "JetBrainsMono-Regular"
ENDPROPERTIES
CHARS 1317
STARTCHAR 000D
ENCODING 13
SWIDTH 600 0
DWIDTH 10 0
BBX 0 0 0 0
BITMAP
ENDCHAR
STARTCHAR 0020
ENCODING 32
SWIDTH 600 0
DWIDTH 10 0
BBX 0 0 0 0
BITMAP
ENDCHAR
STARTCHAR 0021
ENCODING 33
SWIDTH 600 0
DWIDTH 10 0
BBX 2 13 4 0
BITMAP
C0
C0
C0
C0
C0
C0
C0
C0
C0
00
00
C0
C0
ENDCHAR
STARTCHAR 0022
ENCODING 34
SWIDTH 600 0
DWIDTH 10 0
BBX 6 5 2 8
BITMAP
CC
CC
4C
4C
4C
ENDCHAR
STARTCHAR 0023
ENCODING 35
SWIDTH 600 0
DWIDTH 10 0
BBX 9 13 1 0
BITMAP
1100
3300
2200
2200
FF80
2200
2600
6400
FF00
4400
4400
4400
CC00
ENDCHAR
STARTCHAR 0024
ENCODING 36
SWIDTH 600 0
DWIDTH 10 0
BBX 8 18 1 -2
BITMAP
08
08
18
7E
6B
4B
48
68
38
1E
0B
0B
CB
4B
7E
1C
08
08
ENDCHAR
STARTCHAR 0025
ENCODING 37
SWIDTH 600 0
DWIDTH 10 0
BBX 10 13 0 0
BITMAP
70C0
D880
C900
CB00
DA00
7400
0C00
0B80
16C0
1440
2440
46C0
C380
ENDCHAR
STARTCHAR 0026
ENCODING 38
SWIDTH 600 0
DWIDTH 10 0
BBX 10 13 0 0
BITMAP
1E00
3700
2300
3000
1000
7800
6CC0
C680
C380
C300
4780
6C80
38C0
ENDCHAR
STARTCHAR 0027
ENCODING 39
SWIDTH 600 0
DWIDTH 10 0
BBX 2 5 4 8
BITMAP
C0
C0
C0
C0
C0
ENDCHAR
STARTCHAR 0028
ENCODING 40
SWIDTH 600 0
DWIDTH 10 0
BBX 5 16 3 -2
BITMAP
18
30
60
40
C0
C0
C0
C0
C0
C0
C0
C0
40
60
38
08
ENDCHAR
STARTCHAR 0029
ENCODING 41
SWIDTH 600 0
DWIDTH 10 0
BBX 5 16 2 -2
BITMAP
C0
60
30
18
18
18
08
08
08
08
18
18
10
30
E0
C0
ENDCHAR
STARTCHAR 002A
ENCODING 42
SWIDTH 600 0
DWIDTH 10 0
BBX 9 9 1 2
BITMAP
1800
1800
9880
FB80
7E00
1800
3C00
6600
4200
ENDCHAR
STARTCHAR 002B
ENCODING 43
SWIDTH 600 0
DWIDTH 10 0
BBX 8 8 1 2
BITMAP
18
18
18
FF
18
18
18
18
ENDCHAR
STARTCHAR 002C
ENCODING 44
SWIDTH 600 0
DWIDTH 10 0
BBX 2 5 4 -3
BITMAP
C0
C0
C0
C0
80
ENDCHAR
STARTCHAR 002D
ENCODING 45
SWIDTH 600 0
DWIDTH 10 0
BBX 6 1 2 5
BITMAP
FC
ENDCHAR
STARTCHAR 002E
ENCODING 46
SWIDTH 600 0
DWIDTH 10 0
BBX 3 3 4 0
BITMAP
C0
E0
C0
ENDCHAR
STARTCHAR 002F
ENCODING 47
SWIDTH 600 0
DWIDTH 10 0
BBX 8 17 1 -2
BITMAP
03
02
06
06
04
0C
0C
08
18
18
10
30
20
20
60
40
C0
ENDCHAR
STARTCHAR 0030
ENCODING 48
SWIDTH 600 0
DWIDTH 10 0
BBX 8 13 1 0
BITMAP
3C
66
43
C3
C3
C3
DB
C3
C3
C3
43
66
3C
ENDCHAR
STARTCHAR 0031
ENCODING 49
SWIDTH 600 0
DWIDTH 10 0
BBX 7 13 2 0
BITMAP
30
70
D0
90
10
10
10
10
10
10
10
10
FE
ENDCHAR
STARTCHAR 0032
ENCODING 50
SWIDTH 600 0
DWIDTH 10 0
BBX 8 13 1 0
BITMAP
3C
66
C3
C3
03
02
06
0C
18
30
60
40
FF
ENDCHAR
STARTCHAR 0033
ENCODING 51
SWIDTH 600 0
DWIDTH 10 0
BBX 8 13 1 0
BITMAP
7E
02
04
0C
18
1C
06
03
03
C3
C3
66
3C
ENDCHAR
STARTCHAR 0034
ENCODING 52
SWIDTH 600 0
DWIDTH 10 0
BBX 7 13 1 0
BITMAP
0C
0C
18
10
30
62
62
C2
C2
FE
02
02
02
ENDCHAR
STARTCHAR 0035
ENCODING 53
SWIDTH 600 0
DWIDTH 10 0
BBX 8 13 1 0
BITMAP
7E
40
40
40
40
7C
06
03
03
C3
C3
66
3C
ENDCHAR
STARTCHAR 0036
ENCODING 54
SWIDTH 600 0
DWIDTH 10 0
BBX 8 13 1 0
BITMAP
0C
18
10
30
20
7C
66
C3
C1
C1
C3
66
3C
ENDCHAR
STARTCHAR 0037
ENCODING 55
SWIDTH 600 0
DWIDTH 10 0
BBX 8 13 1 0
BITMAP
FF
C1
C3
C3
06
06
04
0C
0C
08
18
10
30
ENDCHAR
STARTCHAR 0038
ENCODING 56
SWIDTH 600 0
DWIDTH 10 0
BBX 8 13 1 0
BITMAP
3C
66
C3
43
66
1C
66
C3
C1
C1
C3
66
3C
ENDCHAR
STARTCHAR 0039
ENCODING 57
SWIDTH 600 0
DWIDTH 10 0
BBX 8 13 1 0
BITMAP
3C
66
C3
C1
C1
C3
67
7E
06
0C
08
18
30
ENDCHAR
STARTCHAR 003A
ENCODING 58
SWIDTH 600 0
DWIDTH 10 0
BBX 3 10 4 0
BITMAP
C0
E0
C0
00
00
00
00
C0
E0
C0
ENDCHAR
STARTCHAR 003B
ENCODING 59
SWIDTH 600 0
DWIDTH 10 0
BBX 4 13 3 -3
BITMAP
60
70
60
00
00
00
00
00
60
60
60
40
C0
ENDCHAR
STARTCHAR 003C
ENCODING 60
SWIDTH 600 0
DWIDTH 10 0
BBX 8 9 1 1
BITMAP
01
06
18
60
C0
70
1C
07
01
ENDCHAR
STARTCHAR 003D
ENCODING 61
SWIDTH 600 0
DWIDTH 10 0
BBX 8 5 1 3
BITMAP
FF
00
00
00
FF
ENDCHAR
STARTCHAR 003E
ENCODING 62
SWIDTH 600 0
DWIDTH 10 0
BBX 8 9 1 1
BITMAP
C0
70
1C
07
03
0E
38
E0
80
ENDCHAR
STARTCHAR 003F
ENCODING 63
SWIDTH 600 0
DWIDTH 10 0
BBX 6 13 2 0
BITMAP
F0
1C
0C
04
04
0C
78
60
60
00
00
70
60
ENDCHAR
STARTCHAR 0040
ENCODING 64
SWIDTH 600 0
DWIDTH 10 0
BBX 9 16 1 -3
BITMAP
3E00
7700
C100
8100
8F80
9980
9180
9180
9180
9180
9900
8F00
8000
C000
7000
3C00
ENDCHAR
STARTCHAR 0041
ENCODING 65
SWIDTH 600 0
DWIDTH 10 0
BBX 8 13 1 0
BITMAP
18
1C
3C
34
24
24
66
62
7E
42
C3
C3
C1
ENDCHAR
STARTCHAR 0042
ENCODING 66
SWIDTH 600 0
DWIDTH 10 0
BBX 7 13 2 0
BITMAP
F8
8C
86
86
86
8C
F8
8C
86
86
86
8E
F8
ENDCHAR
STARTCHAR 0043
ENCODING 67
SWIDTH 600 0
DWIDTH 10 0
BBX 7 13 2 0
BITMAP
78
EC
86
86
80
80
80
80
80
86
86
EC
78
ENDCHAR
STARTCHAR 0044
ENCODING 68
SWIDTH 600 0
DWIDTH 10 0
BBX 7 13 2 0
BITMAP
F8
9C
86
86
86
86
86
86
86
86
84
9C
F8
ENDCHAR
STARTCHAR 0045
ENCODING 69
SWIDTH 600 0
DWIDTH 10 0
BBX 7 13 2 0
BITMAP
FE
80
80
80
80
80
FC
80
80
80
80
80
FE
ENDCHAR
STARTCHAR 0046
ENCODING 70
SWIDTH 600 0
DWIDTH 10 0
BBX 7 13 2 0
BITMAP
FE
80
80
80
80
80
FC
80
80
80
80
80
80
ENDCHAR
STARTCHAR 0047
ENCODING 71
SWIDTH 600 0
DWIDTH 10 0
BBX 8 13 1 0
BITMAP
3C
66
43
40
C0
C0
CF
C3
C3
43
43
76
3C
ENDCHAR
STARTCHAR 0048
ENCODING 72
SWIDTH 600 0
DWIDTH 10 0
BBX 7 13 2 0
BITMAP
86
86
86
86
86
86
FE
86
86
86
86
86
86
ENDCHAR
STARTCHAR 0049
ENCODING 73
SWIDTH 600 0
DWIDTH 10 0
BBX 6 13 2 0
BITMAP
FC
30
30
30
30
30
30
30
30
30
30
30
FC
ENDCHAR
STARTCHAR 004A
ENCODING 74
SWIDTH 600 0
DWIDTH 10 0
BBX 7 13 1 0
BITMAP
02
02
02
02
02
02
02
02
02
82
C2
EE
7C
ENDCHAR
STARTCHAR 004B
ENCODING 75
SWIDTH 600 0
DWIDTH 10 0
BBX 8 13 2 0
BITMAP
86
86
84
8C
88
98
F0
98
98
8C
8C
86
83
ENDCHAR
STARTCHAR 004C
ENCODING 76
SWIDTH 600 0
DWIDTH 10 0
BBX 7 13 2 0
BITMAP
C0
C0
C0
C0
C0
C0
C0
C0
C0
C0
C0
C0
FE
ENDCHAR
STARTCHAR 004D
ENCODING 77
SWIDTH 600 0
DWIDTH 10 0
BBX 8 13 1 0
BITMAP
E3
E5
E5
E5
DD
D9
D9
C3
C3
C3
C3
C3
C3
ENDCHAR
STARTCHAR 004E
ENCODING 78
SWIDTH 600 0
DWIDTH 10 0
BBX 7 13 2 0
BITMAP
C6
C6
C6
E6
A6
A6
B6
96
96
9E
8E
8E
8E
ENDCHAR
STARTCHAR 004F
ENCODING 79
SWIDTH 600 0
DWIDTH 10 0
BBX 8 13 1 0
BITMAP
3C
66
43
43
C3
C3
C3
C3
C3
43
43
66
3C
ENDCHAR
STARTCHAR 0050
ENCODING 80
SWIDTH 600 0
DWIDTH 10 0
BBX 7 13 2 0
BITMAP
FC
8E
82
82
82
86
FC
80
80
80
80
80
80
ENDCHAR
STARTCHAR 0051
ENCODING 81
SWIDTH 600 0
DWIDTH 10 0
BBX 8 16 1 -3
BITMAP
3C
66
43
C3
C3
C3
C3
C3
C3
C3
43
66
3C
04
06
03
ENDCHAR
STARTCHAR 0052
ENCODING 82
SWIDTH 600 0
DWIDTH 10 0
BBX 7 13 2 0
BITMAP
F8
8C
86
82
86
86
FC
98
88
8C
84
86
86
ENDCHAR
STARTCHAR 0053
ENCODING 83
SWIDTH 600 0
DWIDTH 10 0
BBX 8 13 1 0
BITMAP
3C
66
43
40
40
70
3E
03
03
C3
C3
66
3C
ENDCHAR
STARTCHAR 0054
ENCODING 84
SWIDTH 600 0
DWIDTH 10 0
BBX 8 13 1 0
BITMAP
FF
18
18
18
18
18
18
18
18
18
18
18
18
ENDCHAR
STARTCHAR 0055
ENCODING 85
SWIDTH 600 0
DWIDTH 10 0
BBX 7 13 2 0
BITMAP
86
86
86
86
86
86
86
86
86
86
86
CC
78
ENDCHAR
STARTCHAR 0056
ENCODING 86
SWIDTH 600 0
DWIDTH 10 0
BBX 8 13 1 0
BITMAP
C1
C3
C3
42
42
62
66
24
24
34
3C
1C
18
ENDCHAR
STARTCHAR 0057
ENCODING 87
SWIDTH 600 0
DWIDTH 10 0
BBX 10 13 0 0
BITMAP
CCC0
4CC0
4CC0
4C80
4E80
4A80
5A80
7280
7280
7380
3380
3380
3300
ENDCHAR
STARTCHAR 0058
ENCODING 88
SWIDTH 600 0
DWIDTH 10 0
BBX 9 13 1 0
BITMAP
C300
4300
6600
2400
3C00
1800
1800
1C00
3C00
2600
6600
4300
C180
ENDCHAR
STARTCHAR 0059
ENCODING 89
SWIDTH 600 0
DWIDTH 10 0
BBX 9 13 1 0
BITMAP
8180
C300
4200
6600
2600
3400
1C00
1800
1800
1800
1800
1800
1800
ENDCHAR
STARTCHAR 005A
ENCODING 90
SWIDTH 600 0
DWIDTH 10 0
BBX 8 13 1 0
BITMAP
7F
03
06
06
0C
08
18
10
30
20
60
C0
FF
ENDCHAR
STARTCHAR 005B
ENCODING 91
SWIDTH 600 0
DWIDTH 10 0
BBX 5 16 3 -2
BITMAP
F8
C0
C0
C0
C0
C0
C0
C0
C0
C0
C0
C0
C0
C0
C0
F8
ENDCHAR
STARTCHAR 005C
ENCODING 92
SWIDTH 600 0
DWIDTH 10 0
BBX 8 17 1 -2
BITMAP
C0
40
60
20
20
30
10
18
18
08
0C
0C
04
06
06
02
03
ENDCHAR
STARTCHAR 005D
ENCODING 93
SWIDTH 600 0
DWIDTH 10 0
BBX 4 16 3 -2
BITMAP
F0
30
30
30
30
30
30
30
30
30
30
30
30
30
30
F0
ENDCHAR
STARTCHAR 005E
ENCODING 94
SWIDTH 600 0
DWIDTH 10 0
BBX 8 7 1 6
BITMAP
18
18
34
24
66
42
C3
ENDCHAR
STARTCHAR 005F
ENCODING 95
SWIDTH 600 0
DWIDTH 10 0
BBX 8 1 1 -1
BITMAP
FF
ENDCHAR
STARTCHAR 0060
ENCODING 96
SWIDTH 600 0
DWIDTH 10 0
BBX 3 3 3 12
BITMAP
80
40
60
ENDCHAR
STARTCHAR 0061
ENCODING 97
SWIDTH 600 0
DWIDTH 10 0
BBX 8 10 1 0
BITMAP
3C
66
43
03
7F
E3
C3
C3
6F
7B
ENDCHAR
STARTCHAR 0062
ENCODING 98
SWIDTH 600 0
DWIDTH 10 0
BBX 7 13 2 0
BITMAP
80
80
80
B8
EC
86
86
86
86
86
86
EC
B8
ENDCHAR
STARTCHAR 0063
ENCODING 99
SWIDTH 600 0
DWIDTH 10 0
BBX 8 10 1 0
BITMAP
3C
76
43
40
C0
C0
40
43
76
3C
ENDCHAR
STARTCHAR 0064
ENCODING 100
SWIDTH 600 0
DWIDTH 10 0
BBX 8 13 1 0
BITMAP
03
03
03
3B
67
43
C3
C3
C3
C3
43
67
3B
ENDCHAR
STARTCHAR 0065
ENCODING 101
SWIDTH 600 0
DWIDTH 10 0
BBX 8 10 1 0
BITMAP
3C
66
43
C3
FF
C0
C0
43
66
3C
ENDCHAR
STARTCHAR 0066
ENCODING 102
SWIDTH 600 0
DWIDTH 10 0
BBX 8 13 1 0
BITMAP
0F
18
10
10
10
FF
10
10
10
10
10
10
10
ENDCHAR
STARTCHAR 0067
ENCODING 103
SWIDTH 600 0
DWIDTH 10 0
BBX 8 13 1 -3
BITMAP
3B
67
43
43
C3
C3
43
67
7F
03
03
06
3C
ENDCHAR
STARTCHAR 0068
ENCODING 104
SWIDTH 600 0
DWIDTH 10 0
BBX 7 13 2 0
BITMAP
80
80
80
B8
EC
86
86
86
86
86
86
86
86
ENDCHAR
STARTCHAR 0069
ENCODING 105
SWIDTH 600 0
DWIDTH 10 0
BBX 8 14 1 0
BITMAP
1C
18
00
00
78
08
08
08
08
08
08
08
08
FF
ENDCHAR
STARTCHAR 006A
ENCODING 106
SWIDTH 600 0
DWIDTH 10 0
BBX 7 17 1 -3
BITMAP
0E
0E
00
00
FC
04
04
04
04
04
04
04
04
04
04
1C
78
ENDCHAR
STARTCHAR 006B
ENCODING 107
SWIDTH 600 0
DWIDTH 10 0
BBX 8 13 2 0
BITMAP
80
80
80
86
84
8C
98
F0
98
88
8C
86
87
ENDCHAR
STARTCHAR 006C
ENCODING 108
SWIDTH 600 0
DWIDTH 10 0
BBX 8 13 1 0
BITMAP
F0
10
10
10
10
10
10
10
10
10
10
18
0F
ENDCHAR
STARTCHAR 006D
ENCODING 109
SWIDTH 600 0
DWIDTH 10 0
BBX 8 10 1 0
BITMAP
B6
DB
99
99
99
99
99
99
99
99
ENDCHAR
STARTCHAR 006E
ENCODING 110
SWIDTH 600 0
DWIDTH 10 0
BBX 7 10 2 0
BITMAP
B8
EC
86
86
86
86
86
86
86
86
ENDCHAR
STARTCHAR 006F
ENCODING 111
SWIDTH 600 0
DWIDTH 10 0
BBX 8 10 1 0
BITMAP
3C
66
43
C3
C3
C3
C3
43
66
3C
ENDCHAR
STARTCHAR 0070
ENCODING 112
SWIDTH 600 0
DWIDTH 10 0
BBX 7 13 2 -3
BITMAP
B8
EC
86
86
86
86
86
86
EC
B8
80
80
80
ENDCHAR
STARTCHAR 0071
ENCODING 113
SWIDTH 600 0
DWIDTH 10 0
BBX 8 13 1 -3
BITMAP
3B
67
43
C3
C3
C3
C3
43
67
3B
03
03
03
ENDCHAR
STARTCHAR 0072
ENCODING 114
SWIDTH 600 0
DWIDTH 10 0
BBX 7 10 2 0
BITMAP
BC
AE
C6
86
80
80
80
80
80
80
ENDCHAR
STARTCHAR 0073
ENCODING 115
SWIDTH 600 0
DWIDTH 10 0
BBX 8 10 1 0
BITMAP
3C
66
43
40
7C
0E
03
C3
66
3E
ENDCHAR
STARTCHAR 0074
ENCODING 116
SWIDTH 600 0
DWIDTH 10 0
BBX 8 13 1 0
BITMAP
30
30
30
FF
30
30
30
30
30
30
30
18
1F
ENDCHAR
STARTCHAR 0075
ENCODING 117
SWIDTH 600 0
DWIDTH 10 0
BBX 7 10 2 0
BITMAP
86
86
86
86
86
86
86
86
CC
78
ENDCHAR
STARTCHAR 0076
ENCODING 118
SWIDTH 600 0
DWIDTH 10 0
BBX 8 10 1 0
BITMAP
C1
C3
42
62
66
26
34
3C
1C
18
ENDCHAR
STARTCHAR 0077
ENCODING 119
SWIDTH 600 0
DWIDTH 10 0
BBX 9 10 1 0
BITMAP
9980
9900
9900
9900
9500
E500
6500
6600
6600
6600
ENDCHAR
STARTCHAR 0078
ENCODING 120
SWIDTH 600 0
DWIDTH 10 0
BBX 8 10 1 0
BITMAP
C3
66
26
3C
18
18
3C
66
62
C3
ENDCHAR
STARTCHAR 0079
ENCODING 121
SWIDTH 600 0
DWIDTH 10 0
BBX 8 13 1 -3
BITMAP
C1
C3
42
66
26
34
3C
1C
18
18
18
10
30
ENDCHAR
STARTCHAR 007A
ENCODING 122
SWIDTH 600 0
DWIDTH 10 0
BBX 7 10 2 0
BITMAP
FC
04
0C
18
30
30
60
C0
80
FE
ENDCHAR
STARTCHAR 007B
ENCODING 123
SWIDTH 600 0
DWIDTH 10 0
BBX 8 16 1 -2
BITMAP
07
0C
08
08
08
08
08
F0
18
08
08
08
08
08
0C
0F
ENDCHAR
STARTCHAR 007C
ENCODING 124
SWIDTH 600 0
DWIDTH 10 0
BBX 2 17 4 -2
BITMAP
C0
C0
C0
C0
C0
C0
C0
C0
C0
C0
C0
C0
C0
C0
C0
C0
C0
ENDCHAR
STARTCHAR 007D
ENCODING 125
SWIDTH 600 0
DWIDTH 10 0
BBX 7 16 2 -2
BITMAP
E0
60
30
20
20
20
20
1E
30
20
20
20
20
30
20
E0
ENDCHAR
STARTCHAR 007E
ENCODING 126
SWIDTH 600 0
DWIDTH 10 0
BBX 8 3 1 5
BITMAP
71
DB
CF
ENDCHAR
STARTCHAR 00A0
ENCODING 160
SWIDTH 600 0
DWIDTH 10 0
BBX 0 0 0 0
BITMAP
ENDCHAR
STARTCHAR 00A1
ENCODING 161
SWIDTH 600 0
DWIDTH 10 0
BBX 2 13 4 -3
BITMAP
C0
C0
00
00
C0
C0
C0
C0
C0
C0
C0
C0
C0
ENDCHAR
STARTCHAR 00A2
ENCODING 162
SWIDTH 600 0
DWIDTH 10 0
BBX 8 15 1 -2
BITMAP
08
08
18
7E
6B
4B
C8
C8
C8
4B
4B
7E
1C
08
08
ENDCHAR
STARTCHAR 00A3
ENCODING 163
SWIDTH 600 0
DWIDTH 10 0
BBX 8 13 1 0
BITMAP
3C
66
43
C0
40
60
FC
30
30
20
60
C0
FF
ENDCHAR
STARTCHAR 00A4
ENCODING 164
SWIDTH 600 0
DWIDTH 10 0
BBX 8 9 1 2
BITMAP
81
FF
76
42
43
42
66
FF
C1
ENDCHAR
STARTCHAR 00A5
ENCODING 165
SWIDTH 600 0
DWIDTH 10 0
BBX 9 13 1 0
BITMAP
8180
C300
4200
6600
2600
3400
1C00
FF00
1800
1800
FF00
1800
1800
ENDCHAR
STARTCHAR 00A6
ENCODING 166
SWIDTH 600 0
DWIDTH 10 0
BBX 2 17 4 -2
BITMAP
C0
C0
C0
C0
C0
C0
C0
00
00
00
C0
C0
C0
C0
C0
C0
C0
ENDCHAR
STARTCHAR 00A7
ENCODING 167
SWIDTH 600 0
DWIDTH 10 0
BBX 8 16 1 -3
BITMAP
3E
66
43
40
60
3E
42
43
C3
62
7C
0E
03
03
C3
7E
ENDCHAR
STARTCHAR 00A8
ENCODING 168
SWIDTH 600 0
DWIDTH 10 0
BBX 6 2 2 12
BITMAP
CC
CC
ENDCHAR
STARTCHAR 00A9
ENCODING 169
SWIDTH 600 0
DWIDTH 10 0
BBX 8 11 1 2
BITMAP
3C
43
9D
A5
A1
A1
A5
BD
81
43
3C
ENDCHAR
STARTCHAR 00AA
ENCODING 170
SWIDTH 600 0
DWIDTH 10 0
BBX 4 5 3 8
BITMAP
70
90
F0
90
F0
ENDCHAR
STARTCHAR 00AB
ENCODING 171
SWIDTH 600 0
DWIDTH 10 0
BBX 9 9 1 1
BITMAP
3B80
2200
6600
CC00
8800
CC00
6600
2200
3B80
ENDCHAR
STARTCHAR 00AC
ENCODING 172
SWIDTH 600 0
DWIDTH 10 0
BBX 7 4 2 3
BITMAP
FE
06
06
06
ENDCHAR
STARTCHAR 00AD
ENCODING 173
SWIDTH 600 0
DWIDTH 10 0
BBX 6 1 2 5
BITMAP
FC
ENDCHAR
STARTCHAR 00AE
ENCODING 174
SWIDTH 600 0
DWIDTH 10 0
BBX 8 11 1 2
BITMAP
3E
67
BD
A5
A5
BD
A9
A5
81
C3
7E
ENDCHAR
STARTCHAR 00AF
ENCODING 175
SWIDTH 600 0
DWIDTH 10 0
BBX 6 1 2 12
BITMAP
FC
ENDCHAR
STARTCHAR 00B0
ENCODING 176
SWIDTH 600 0
DWIDTH 10 0
BBX 5 5 3 8
BITMAP
F0
90
88
98
F0
ENDCHAR
STARTCHAR 00B1
ENCODING 177
SWIDTH 600 0
DWIDTH 10 0
BBX 8 10 1 0
BITMAP
18
18
18
FF
18
18
18
18
18
FF
ENDCHAR
STARTCHAR 00B2
ENCODING 178
SWIDTH 600 0
DWIDTH 10 0
BBX 6 7 2 7
BITMAP
78
4C
8C
08
30
60
7C
ENDCHAR
STARTCHAR 00B3
ENCODING 179
SWIDTH 600 0
DWIDTH 10 0
BBX 6 7 2 7
BITMAP
7C
08
30
08
04
CC
78
ENDCHAR
STARTCHAR 00B4
ENCODING 180
SWIDTH 600 0
DWIDTH 10 0
BBX 3 3 4 12
BITMAP
20
60
C0
ENDCHAR
STARTCHAR 00B5
ENCODING 181
SWIDTH 600 0
DWIDTH 10 0
BBX 7 13 2 -3
BITMAP
86
86
86
86
86
86
86
86
CE
BE
80
80
80
ENDCHAR
STARTCHAR 00B6
ENCODING 182
SWIDTH 600 0
DWIDTH 10 0
BBX 8 16 1 -3
BITMAP
7B
FB
FB
FB
FB
FB
7B
1B
1B
1B
1B
1B
1B
1B
1B
1B
ENDCHAR
STARTCHAR 00B7
ENCODING 183
SWIDTH 600 0
DWIDTH 10 0
BBX 3 3 4 5
BITMAP
C0
E0
C0
ENDCHAR
STARTCHAR 00B8
ENCODING 184
SWIDTH 600 0
DWIDTH 10 0
BBX 4 4 3 -4
BITMAP
40
30
30
F0
ENDCHAR
STARTCHAR 00B9
ENCODING 185
SWIDTH 600 0
DWIDTH 10 0
BBX 5 7 3 7
BITMAP
60
A0
20
20
20
20
F8
ENDCHAR
STARTCHAR 00BA
ENCODING 186
SWIDTH 600 0
DWIDTH 10 0
BBX 4 5 3 8
BITMAP
60
90
90
90
70
ENDCHAR
STARTCHAR 00BB
ENCODING 187
SWIDTH 600 0
DWIDTH 10 0
BBX 9 9 1 1
BITMAP
CC00
4600
6600
3300
1980
3300
6600
4600
CC00
ENDCHAR
STARTCHAR 00BC
ENCODING 188
SWIDTH 600 0
DWIDTH 10 0
BBX 10 13 0 0
BITMAP
30C0
5080
1100
1300
1200
7C00
0C00
0980
1B00
3280
2480
6780
C080
ENDCHAR
STARTCHAR 00BD
ENCODING 189
SWIDTH 600 0
DWIDTH 10 0
BBX 10 13 0 0
BITMAP
3040
5080
9180
1300
1200
7E00
0400
0B80
1EC0
1040
2180
6200
C7C0
ENDCHAR
STARTCHAR 00BE
ENCODING 190
SWIDTH 600 0
DWIDTH 10 0
BBX 10 13 0 0
BITMAP
78C0
1080
3100
0B00
CA00
7400
0C00
0980
1B00
3280
2480
6780
C080
ENDCHAR
STARTCHAR 00BF
ENCODING 191
SWIDTH 600 0
DWIDTH 10 0
BBX 6 13 2 -3
BITMAP
18
18
00
00
18
18
78
E0
C0
80
C0
60
3C
ENDCHAR
STARTCHAR 00C0
ENCODING 192
SWIDTH 600 0
DWIDTH 10 0
BBX 8 17 1 0
BITMAP
20
30
18
00
18
1C
3C
34
24
24
66
62
7E
42
C3
C3
C1
ENDCHAR
STARTCHAR 00C1
ENCODING 193
SWIDTH 600 0
DWIDTH 10 0
BBX 8 17 1 0
BITMAP
06
0C
18
00
18
1C
3C
34
24
24
66
62
7E
42
C3
C3
C1
ENDCHAR
STARTCHAR 00C2
ENCODING 194
SWIDTH 600 0
DWIDTH 10 0
BBX 8 17 1 0
BITMAP
18
3C
66
00
18
1C
3C
34
24
24
66
62
7E
42
C3
C3
C1
ENDCHAR
STARTCHAR 00C3
ENCODING 195
SWIDTH 600 0
DWIDTH 10 0
BBX 8 17 1 0
BITMAP
32
4E
00
00
18
1C
3C
34
24
24
66
62
7E
42
C3
C3
C1
ENDCHAR
STARTCHAR 00C4
ENCODING 196
SWIDTH 600 0
DWIDTH 10 0
BBX 8 17 1 0
BITMAP
66
66
00
00
18
1C
3C
34
24
24
66
62
7E
42
C3
C3
C1
ENDCHAR
STARTCHAR 00C5
ENCODING 197
SWIDTH 600 0
DWIDTH 10 0
BBX 8 18 1 0
BITMAP
1C
24
24
3C
00
18
1C
3C
34
24
24
66
62
7E
42
C3
C3
C1
ENDCHAR
STARTCHAR 00C6
ENCODING 198
SWIDTH 600 0
DWIDTH 10 0
BBX 9 13 1 0
BITMAP
3F80
2C00
6C00
6C00
6C00
4C00
4F00
4C00
FC00
CC00
CC00
8C00
8F80
ENDCHAR
STARTCHAR 00C7
ENCODING 199
SWIDTH 600 0
DWIDTH 10 0
BBX 7 16 2 -3
BITMAP
78
EC
86
86
80
80
80
80
80
86
86
EC
78
20
18
38
ENDCHAR
STARTCHAR 00C8
ENCODING 200
SWIDTH 600 0
DWIDTH 10 0
BBX 7 17 2 0
BITMAP
40
20
30
00
FE
80
80
80
80
80
FC
80
80
80
80
80
FE
ENDCHAR
STARTCHAR 00C9
ENCODING 201
SWIDTH 600 0
DWIDTH 10 0
BBX 7 17 2 0
BITMAP
0C
18
30
00
FE
80
80
80
80
80
FC
80
80
80
80
80
FE
ENDCHAR
STARTCHAR 00CA
ENCODING 202
SWIDTH 600 0
DWIDTH 10 0
BBX 7 17 2 0
BITMAP
10
38
CC
00
FE
80
80
80
80
80
FC
80
80
80
80
80
FE
ENDCHAR
STARTCHAR 00CB
ENCODING 203
SWIDTH 600 0
DWIDTH 10 0
BBX 7 17 2 0
BITMAP
CC
CC
00
00
FE
80
80
80
80
80
FC
80
80
80
80
80
FE
ENDCHAR
STARTCHAR 00CC
ENCODING 204
SWIDTH 600 0
DWIDTH 10 0
BBX 6 17 2 0
BITMAP
40
60
30
00
FC
30
30
30
30
30
30
30
30
30
30
30
FC
ENDCHAR
STARTCHAR 00CD
ENCODING 205
SWIDTH 600 0
DWIDTH 10 0
BBX 6 17 2 0
BITMAP
0C
18
30
00
FC
30
30
30
30
30
30
30
30
30
30
30
FC
ENDCHAR
STARTCHAR 00CE
ENCODING 206
SWIDTH 600 0
DWIDTH 10 0
BBX 6 17 2 0
BITMAP
30
78
CC
00
FC
30
30
30
30
30
30
30
30
30
30
30
FC
ENDCHAR
STARTCHAR 00CF
ENCODING 207
SWIDTH 600 0
DWIDTH 10 0
BBX 6 17 2 0
BITMAP
CC
CC
00
00
FC
30
30
30
30
30
30
30
30
30
30
30
FC
ENDCHAR
STARTCHAR 00D0
ENCODING 208
SWIDTH 600 0
DWIDTH 10 0
BBX 9 13 0 0
BITMAP
3E00
2700
2180
2180
2180
2180
F980
2180
2180
2180
2100
2700
3E00
ENDCHAR
STARTCHAR 00D1
ENCODING 209
SWIDTH 600 0
DWIDTH 10 0
BBX 7 17 2 0
BITMAP
64
9C
00
00
C6
C6
C6
E6
A6
A6
B6
96
96
9E
8E
8E
8E
ENDCHAR
STARTCHAR 00D2
ENCODING 210
SWIDTH 600 0
DWIDTH 10 0
BBX 8 17 1 0
BITMAP
20
30
18
00
3C
66
43
43
C3
C3
C3
C3
C3
43
43
66
3C
ENDCHAR
STARTCHAR 00D3
ENCODING 211
SWIDTH 600 0
DWIDTH 10 0
BBX 8 17 1 0
BITMAP
06
0C
18
00
3C
66
43
43
C3
C3
C3
C3
C3
43
43
66
3C
ENDCHAR
STARTCHAR 00D4
ENCODING 212
SWIDTH 600 0
DWIDTH 10 0
BBX 8 17 1 0
BITMAP
18
3C
66
00
3C
66
43
43
C3
C3
C3
C3
C3
43
43
66
3C
ENDCHAR
STARTCHAR 00D5
ENCODING 213
SWIDTH 600 0
DWIDTH 10 0
BBX 8 17 1 0
BITMAP
32
4E
00
00
3C
66
43
43
C3
C3
C3
C3
C3
43
43
66
3C
ENDCHAR
STARTCHAR 00D6
ENCODING 214
SWIDTH 600 0
DWIDTH 10 0
BBX 8 17 1 0
BITMAP
66
66
00
00
3C
66
43
43
C3
C3
C3
C3
C3
43
43
66
3C
ENDCHAR
STARTCHAR 00D7
ENCODING 215
SWIDTH 600 0
DWIDTH 10 0
BBX 6 7 2 2
BITMAP
84
CC
78
30
78
CC
84
ENDCHAR
STARTCHAR 00D8
ENCODING 216
SWIDTH 600 0
DWIDTH 10 0
BBX 9 13 1 0
BITMAP
3D80
6700
4300
4700
C700
CF00
CB00
D300
F300
6300
6300
6600
FC00
ENDCHAR
STARTCHAR 00D9
ENCODING 217
SWIDTH 600 0
DWIDTH 10 0
BBX 7 17 2 0
BITMAP
40
60
30
00
86
86
86
86
86
86
86
86
86
86
86
CC
78
ENDCHAR
STARTCHAR 00DA
ENCODING 218
SWIDTH 600 0
DWIDTH 10 0
BBX 7 17 2 0
BITMAP
0C
18
30
00
86
86
86
86
86
86
86
86
86
86
86
CC
78
ENDCHAR
STARTCHAR 00DB
ENCODING 219
SWIDTH 600 0
DWIDTH 10 0
BBX 7 17 2 0
BITMAP
30
78
CC
00
86
86
86
86
86
86
86
86
86
86
86
CC
78
ENDCHAR
STARTCHAR 00DC
ENCODING 220
SWIDTH 600 0
DWIDTH 10 0
BBX 7 17 2 0
BITMAP
CC
CC
00
00
86
86
86
86
86
86
86
86
86
86
86
CC
78
ENDCHAR
STARTCHAR 00DD
ENCODING 221
SWIDTH 600 0
DWIDTH 10 0
BBX 9 17 1 0
BITMAP
0600
0C00
1800
0000
8180
C300
4200
6600
2600
3400
1C00
1800
1800
1800
1800
1800
1800
ENDCHAR
STARTCHAR 00DE
ENCODING 222
SWIDTH 600 0
DWIDTH 10 0
BBX 7 13 2 0
BITMAP
80
80
80
FC
86
82
82
86
FC
80
80
80
80
ENDCHAR
STARTCHAR 00DF
ENCODING 223
SWIDTH 600 0
DWIDTH 10 0
BBX 7 13 2 0
BITMAP
78
EC
86
86
86
8C
B8
8C
86
82
86
8E
B8
ENDCHAR
STARTCHAR 00E0
ENCODING 224
SWIDTH 600 0
DWIDTH 10 0
BBX 8 15 1 0
BITMAP
20
30
18
00
00
3C
66
43
03
7F
E3
C3
C3
6F
7B
ENDCHAR
STARTCHAR 00E1
ENCODING 225
SWIDTH 600 0
DWIDTH 10 0
BBX 8 15 1 0
BITMAP
06
0C
18
00
00
3C
66
43
03
7F
E3
C3
C3
6F
7B
ENDCHAR
STARTCHAR 00E2
ENCODING 226
SWIDTH 600 0
DWIDTH 10 0
BBX 8 15 1 0
BITMAP
18
1C
66
00
00
3C
66
43
03
7F
E3
C3
C3
6F
7B
ENDCHAR
STARTCHAR 00E3
ENCODING 227
SWIDTH 600 0
DWIDTH 10 0
BBX 8 14 1 0
BITMAP
32
6E
00
00
3C
66
43
03
7F
E3
C3
C3
6F
7B
ENDCHAR
STARTCHAR 00E4
ENCODING 228
SWIDTH 600 0
DWIDTH 10 0
BBX 8 14 1 0
BITMAP
66
66
00
00
3C
66
43
03
7F
E3
C3
C3
6F
7B
ENDCHAR
STARTCHAR 00E5
ENCODING 229
SWIDTH 600 0
DWIDTH 10 0
BBX 8 15 1 0
BITMAP
1C
24
24
1C
00
3C
66
43
03
7F
E3
C3
C3
6F
7B
ENDCHAR
STARTCHAR 00E6
ENCODING 230
SWIDTH 600 0
DWIDTH 10 0
BBX 9 10 1 0
BITMAP
7700
D900
1980
1980
FF80
D800
9800
9980
D900
7700
ENDCHAR
STARTCHAR 00E7
ENCODING 231
SWIDTH 600 0
DWIDTH 10 0
BBX 8 13 1 -3
BITMAP
3C
76
43
40
C0
C0
40
43
76
3C
10
0C
1C
ENDCHAR
STARTCHAR 00E8
ENCODING 232
SWIDTH 600 0
DWIDTH 10 0
BBX 8 15 1 0
BITMAP
20
30
18
00
00
3C
66
43
C3
FF
C0
C0
43
66
3C
ENDCHAR
STARTCHAR 00E9
ENCODING 233
SWIDTH 600 0
DWIDTH 10 0
BBX 8 15 1 0
BITMAP
06
0C
18
00
00
3C
66
43
C3
FF
C0
C0
43
66
3C
ENDCHAR
STARTCHAR 00EA
ENCODING 234
SWIDTH 600 0
DWIDTH 10 0
BBX 8 15 1 0
BITMAP
18
3C
66
00
00
3C
66
43
C3
FF
C0
C0
43
66
3C
ENDCHAR
STARTCHAR 00EB
ENCODING 235
SWIDTH 600 0
DWIDTH 10 0
BBX 8 14 1 0
BITMAP
66
66
00
00
3C
66
43
C3
FF
C0
C0
43
66
3C
ENDCHAR
STARTCHAR 00EC
ENCODING 236
SWIDTH 600 0
DWIDTH 10 0
BBX 8 15 1 0
BITMAP
30
10
18
00
00
78
08
08
08
08
08
08
08
08
FF
ENDCHAR
STARTCHAR 00ED
ENCODING 237
SWIDTH 600 0
DWIDTH 10 0
BBX 8 15 1 0
BITMAP
06
0C
18
00
00
78
08
08
08
08
08
08
08
08
FF
ENDCHAR
STARTCHAR 00EE
ENCODING 238
SWIDTH 600 0
DWIDTH 10 0
BBX 8 15 1 0
BITMAP
08
1C
66
00
00
78
08
08
08
08
08
08
08
08
FF
ENDCHAR
STARTCHAR 00EF
ENCODING 239
SWIDTH 600 0
DWIDTH 10 0
BBX 8 14 1 0
BITMAP
76
26
00
00
78
08
08
08
08
08
08
08
08
FF
ENDCHAR
STARTCHAR 00F0
ENCODING 240
SWIDTH 600 0
DWIDTH 10 0
BBX 8 13 1 0
BITMAP
32
1C
78
4C
06
3A
67
C3
C3
C3
C3
66
3C
ENDCHAR
STARTCHAR 00F1
ENCODING 241
SWIDTH 600 0
DWIDTH 10 0
BBX 7 14 2 0
BITMAP
64
DC
00
00
B8
EC
86
86
86
86
86
86
86
86
ENDCHAR
STARTCHAR 00F2
ENCODING 242
SWIDTH 600 0
DWIDTH 10 0
BBX 8 15 1 0
BITMAP
20
30
18
00
00
3C
66
43
C3
C3
C3
C3
43
66
3C
ENDCHAR
STARTCHAR 00F3
ENCODING 243
SWIDTH 600 0
DWIDTH 10 0
BBX 8 15 1 0
BITMAP
06
0C
18
00
00
3C
66
43
C3
C3
C3
C3
43
66
3C
ENDCHAR
STARTCHAR 00F4
ENCODING 244
SWIDTH 600 0
DWIDTH 10 0
BBX 8 15 1 0
BITMAP
18
3C
66
00
00
3C
66
43
C3
C3
C3
C3
43
66
3C
ENDCHAR
STARTCHAR 00F5
ENCODING 245
SWIDTH 600 0
DWIDTH 10 0
BBX 8 14 1 0
BITMAP
32
4E
00
00
3C
66
43
C3
C3
C3
C3
43
66
3C
ENDCHAR
STARTCHAR 00F6
ENCODING 246
SWIDTH 600 0
DWIDTH 10 0
BBX 8 14 1 0
BITMAP
66
66
00
00
3C
66
43
C3
C3
C3
C3
43
66
3C
ENDCHAR
STARTCHAR 00F7
ENCODING 247
SWIDTH 600 0
DWIDTH 10 0
BBX 7 10 2 1
BITMAP
30
38
30
00
FE
00
00
30
38
30
ENDCHAR
STARTCHAR 00F8
ENCODING 248
SWIDTH 600 0
DWIDTH 10 0
BBX 9 11 1 0
BITMAP
0180
3F00
6600
4700
4F00
CB00
D300
7300
6300
6600
FC00
ENDCHAR
STARTCHAR 00F9
ENCODING 249
SWIDTH 600 0
DWIDTH 10 0
BBX 7 15 2 0
BITMAP
40
60
30
00
00
86
86
86
86
86
86
86
86
CC
78
ENDCHAR
STARTCHAR 00FA
ENCODING 250
SWIDTH 600 0
DWIDTH 10 0
BBX 7 15 2 0
BITMAP
0C
18
30
00
00
86
86
86
86
86
86
86
86
CC
78
ENDCHAR
STARTCHAR 00FB
ENCODING 251
SWIDTH 600 0
DWIDTH 10 0
BBX 7 15 2 0
BITMAP
30
78
CC
00
00
86
86
86
86
86
86
86
86
CC
78
ENDCHAR
STARTCHAR 00FC
ENCODING 252
SWIDTH 600 0
DWIDTH 10 0
BBX 7 14 2 0
BITMAP
CC
CC
00
00
86
86
86
86
86
86
86
86
CC
78
ENDCHAR
STARTCHAR 00FD
ENCODING 253
SWIDTH 600 0
DWIDTH 10 0
BBX 8 18 1 -3
BITMAP
06
0C
18
00
00
C1
C3
42
66
26
34
3C
1C
18
18
18
10
30
ENDCHAR
STARTCHAR 00FE
ENCODING 254
SWIDTH 600 0
DWIDTH 10 0
BBX 8 16 1 -3
BITMAP
C0
C0
C0
DC
E6
C3
C3
C3
C3
C3
C3
E6
DC
C0
C0
C0
ENDCHAR
STARTCHAR 00FF
ENCODING 255
SWIDTH 600 0
DWIDTH 10 0
BBX 8 17 1 -3
BITMAP
66
66
00
00
C1
C3
42
66
26
34
3C
1C
18
18
18
10
30
ENDCHAR
STARTCHAR 0100
ENCODING 256
SWIDTH 600 0
DWIDTH 10 0
BBX 8 16 1 0
BITMAP
7E
00
00
18
1C
3C
34
24
24
66
62
7E
42
C3
C3
C1
ENDCHAR
STARTCHAR 0101
ENCODING 257
SWIDTH 600 0
DWIDTH 10 0
BBX 8 13 1 0
BITMAP
7E
00
00
3C
66
43
03
7F
E3
C3
C3
6F
7B
ENDCHAR
STARTCHAR 0102
ENCODING 258
SWIDTH 600 0
DWIDTH 10 0
BBX 8 16 1 0
BITMAP
66
3C
00
18
1C
3C
34
24
24
66
62
7E
42
C3
C3
C1
ENDCHAR
STARTCHAR 0103
ENCODING 259
SWIDTH 600 0
DWIDTH 10 0
BBX 8 14 1 0
BITMAP
66
3C
00
00
3C
66
43
03
7F
E3
C3
C3
6F
7B
ENDCHAR
STARTCHAR 0104
ENCODING 260
SWIDTH 600 0
DWIDTH 10 0
BBX 9 16 1 -3
BITMAP
1800
1C00
3C00
3400
2400
2400
6600
6200
7E00
4200
C300
C300
C100
0200
0200
0380
ENDCHAR
STARTCHAR 0105
ENCODING 261
SWIDTH 600 0
DWIDTH 10 0
BBX 9 13 1 -3
BITMAP
3C00
6600
0300
7F00
6300
C300
C300
C300
6F00
3B00
0200
0600
0380
ENDCHAR
STARTCHAR 0106
ENCODING 262
SWIDTH 600 0
DWIDTH 10 0
BBX 7 17 2 0
BITMAP
0C
18
30
00
78
EC
86
86
80
80
80
80
80
86
86
EC
78
ENDCHAR
STARTCHAR 0107
ENCODING 263
SWIDTH 600 0
DWIDTH 10 0
BBX 8 15 1 0
BITMAP
06
0C
18
00
00
3C
76
43
40
C0
C0
40
43
76
3C
ENDCHAR
STARTCHAR 0108
ENCODING 264
SWIDTH 600 0
DWIDTH 10 0
BBX 7 17 2 0
BITMAP
30
38
CC
00
78
EC
86
86
80
80
80
80
80
86
86
EC
78
ENDCHAR
STARTCHAR 0109
ENCODING 265
SWIDTH 600 0
DWIDTH 10 0
BBX 8 15 1 0
BITMAP
08
1C
66
00
00
3C
76
43
40
C0
C0
40
43
76
3C
ENDCHAR
STARTCHAR 010A
ENCODING 266
SWIDTH 600 0
DWIDTH 10 0
BBX 7 17 2 0
BITMAP
30
30
00
00
78
EC
86
86
80
80
80
80
80
86
86
EC
78
ENDCHAR
STARTCHAR 010B
ENCODING 267
SWIDTH 600 0
DWIDTH 10 0
BBX 8 14 1 0
BITMAP
18
18
00
00
3C
76
43
40
C0
C0
40
43
76
3C
ENDCHAR
STARTCHAR 010C
ENCODING 268
SWIDTH 600 0
DWIDTH 10 0
BBX 7 17 2 0
BITMAP
C4
68
30
00
78
EC
86
86
80
80
80
80
80
86
86
EC
78
ENDCHAR
STARTCHAR 010D
ENCODING 269
SWIDTH 600 0
DWIDTH 10 0
BBX 8 15 1 0
BITMAP
62
34
18
00
00
3C
76
43
40
C0
C0
40
43
76
3C
ENDCHAR
STARTCHAR 010E
ENCODING 270
SWIDTH 600 0
DWIDTH 10 0
BBX 7 17 2 0
BITMAP
CC
78
30
00
F8
9C
86
86
86
86
86
86
86
86
84
9C
F8
ENDCHAR
STARTCHAR 010F
ENCODING 271
SWIDTH 600 0
DWIDTH 10 0
BBX 9 13 1 0
BITMAP
0680
0680
0680
7600
EE00
C600
C600
C600
C600
C600
C600
EE00
7600
ENDCHAR
STARTCHAR 0110
ENCODING 272
SWIDTH 600 0
DWIDTH 10 0
BBX 9 13 0 0
BITMAP
3E00
2700
2180
2180
2180
2180
F980
2180
2180
2180
2100
2700
3E00
ENDCHAR
STARTCHAR 0111
ENCODING 273
SWIDTH 600 0
DWIDTH 10 0
BBX 8 13 2 0
BITMAP
06
3F
06
06
76
CE
86
86
86
86
86
CE
76
ENDCHAR
STARTCHAR 0112
ENCODING 274
SWIDTH 600 0
DWIDTH 10 0
BBX 7 16 2 0
BITMAP
7C
00
00
FE
80
80
80
80
80
FC
80
80
80
80
80
FE
ENDCHAR
STARTCHAR 0113
ENCODING 275
SWIDTH 600 0
DWIDTH 10 0
BBX 8 13 1 0
BITMAP
7E
00
00
3C
66
43
C3
FF
C0
C0
43
66
3C
ENDCHAR
STARTCHAR 0114
ENCODING 276
SWIDTH 600 0
DWIDTH 10 0
BBX 7 16 2 0
BITMAP
4C
78
00
FE
80
80
80
80
80
FC
80
80
80
80
80
FE
ENDCHAR
STARTCHAR 0115
ENCODING 277
SWIDTH 600 0
DWIDTH 10 0
BBX 8 14 1 0
BITMAP
66
3C
00
00
3C
66
43
C3
FF
C0
C0
43
66
3C
ENDCHAR
STARTCHAR 0116
ENCODING 278
SWIDTH 600 0
DWIDTH 10 0
BBX 7 17 2 0
BITMAP
30
30
00
00
FE
80
80
80
80
80
FC
80
80
80
80
80
FE
ENDCHAR
STARTCHAR 0117
ENCODING 279
SWIDTH 600 0
DWIDTH 10 0
BBX 8 14 1 0
BITMAP
18
18
00
00
3C
66
43
C3
FF
C0
C0
43
66
3C
ENDCHAR
STARTCHAR 0118
ENCODING 280
SWIDTH 600 0
DWIDTH 10 0
BBX 7 16 2 -3
BITMAP
FE
80
80
80
80
FC
80
80
80
80
80
80
FE
08
08
0E
ENDCHAR
STARTCHAR 0119
ENCODING 281
SWIDTH 600 0
DWIDTH 10 0
BBX 8 13 1 -3
BITMAP
3C
66
43
43
FF
C0
40
43
66
3C
08
18
0E
ENDCHAR
STARTCHAR 011A
ENCODING 282
SWIDTH 600 0
DWIDTH 10 0
BBX 7 17 2 0
BITMAP
C4
68
30
00
FE
80
80
80
80
80
FC
80
80
80
80
80
FE
ENDCHAR
STARTCHAR 011B
ENCODING 283
SWIDTH 600 0
DWIDTH 10 0
BBX 8 15 1 0
BITMAP
66
3C
18
00
00
3C
66
43
C3
FF
C0
C0
43
66
3C
ENDCHAR
STARTCHAR 011C
ENCODING 284
SWIDTH 600 0
DWIDTH 10 0
BBX 8 17 1 0
BITMAP
18
3C
66
00
3C
66
43
40
C0
C0
CF
C3
C3
43
43
76
3C
ENDCHAR
STARTCHAR 011D
ENCODING 285
SWIDTH 600 0
DWIDTH 10 0
BBX 8 18 1 -3
BITMAP
18
3C
66
00
00
3B
67
43
43
C3
C3
43
67
7F
03
03
06
3C
ENDCHAR
STARTCHAR 011E
ENCODING 286
SWIDTH 600 0
DWIDTH 10 0
BBX 8 16 1 0
BITMAP
66
3C
00
3C
66
43
40
C0
C0
CF
C3
C3
43
43
76
3C
ENDCHAR
STARTCHAR 011F
ENCODING 287
SWIDTH 600 0
DWIDTH 10 0
BBX 8 17 1 -3
BITMAP
66
3C
00
00
3B
67
43
43
C3
C3
43
67
7F
03
03
06
3C
ENDCHAR
STARTCHAR 0120
ENCODING 288
SWIDTH 600 0
DWIDTH 10 0
BBX 8 17 1 0
BITMAP
18
18
00
00
3C
66
43
40
C0
C0
CF
C3
C3
43
43
76
3C
ENDCHAR
STARTCHAR 0121
ENCODING 289
SWIDTH 600 0
DWIDTH 10 0
BBX 8 17 1 -3
BITMAP
18
18
00
00
3B
67
43
43
C3
C3
43
67
7F
03
03
06
3C
ENDCHAR
STARTCHAR 0122
ENCODING 290
SWIDTH 600 0
DWIDTH 10 0
BBX 8 17 1 -4
BITMAP
3C
66
43
40
C0
C0
CF
C3
C3
43
43
76
3C
00
0C
18
30
ENDCHAR
STARTCHAR 0123
ENCODING 291
SWIDTH 600 0
DWIDTH 10 0
BBX 8 19 1 -3
BITMAP
0C
0C
18
18
00
00
3B
67
43
43
C3
C3
43
67
7F
03
03
06
3C
ENDCHAR
STARTCHAR 0124
ENCODING 292
SWIDTH 600 0
DWIDTH 10 0
BBX 7 17 2 0
BITMAP
30
78
CC
00
86
86
86
86
86
86
FE
86
86
86
86
86
86
ENDCHAR
STARTCHAR 0125
ENCODING 293
SWIDTH 600 0
DWIDTH 10 0
BBX 10 18 -1 0
BITMAP
1000
3800
CC00
0000
0000
1000
1000
1000
1700
1D80
10C0
10C0
10C0
10C0
10C0
10C0
10C0
10C0
ENDCHAR
STARTCHAR 0126
ENCODING 294
SWIDTH 600 0
DWIDTH 10 0
BBX 10 13 0 0
BITMAP
2180
2180
FFC0
2180
2180
2180
3F80
2180
2180
2180
2180
2180
2180
ENDCHAR
STARTCHAR 0127
ENCODING 295
SWIDTH 600 0
DWIDTH 10 0
BBX 9 13 0 0
BITMAP
2000
2000
FC00
2000
2F00
3300
2180
2180
2180
2180
2180
2180
2180
ENDCHAR
STARTCHAR 0128
ENCODING 296
SWIDTH 600 0
DWIDTH 10 0
BBX 6 17 2 0
BITMAP
64
9C
00
00
FC
30
30
30
30
30
30
30
30
30
30
30
FC
ENDCHAR
STARTCHAR 0129
ENCODING 297
SWIDTH 600 0
DWIDTH 10 0
BBX 8 14 1 0
BITMAP
32
2E
00
00
78
08
08
08
08
08
08
08
08
FF
ENDCHAR
STARTCHAR 012A
ENCODING 298
SWIDTH 600 0
DWIDTH 10 0
BBX 6 16 2 0
BITMAP
FC
00
00
FC
30
30
30
30
30
30
30
30
30
30
30
FC
ENDCHAR
STARTCHAR 012B
ENCODING 299
SWIDTH 600 0
DWIDTH 10 0
BBX 8 13 1 0
BITMAP
3E
00
00
78
08
08
08
08
08
08
08
08
FF
ENDCHAR
STARTCHAR 012C
ENCODING 300
SWIDTH 600 0
DWIDTH 10 0
BBX 6 16 2 0
BITMAP
CC
78
00
FC
30
30
30
30
30
30
30
30
30
30
30
FC
ENDCHAR
STARTCHAR 012D
ENCODING 301
SWIDTH 600 0
DWIDTH 10 0
BBX 8 14 1 0
BITMAP
22
3C
00
00
78
08
08
08
08
08
08
08
08
FF
ENDCHAR
STARTCHAR 012E
ENCODING 302
SWIDTH 600 0
DWIDTH 10 0
BBX 6 16 2 -3
BITMAP
FC
30
30
30
30
30
30
30
30
30
30
30
FC
20
60
38
ENDCHAR
STARTCHAR 012F
ENCODING 303
SWIDTH 600 0
DWIDTH 10 0
BBX 8 17 1 -3
BITMAP
1C
18
00
00
78
08
08
08
08
08
08
08
08
FF
10
30
1C
ENDCHAR
STARTCHAR 0130
ENCODING 304
SWIDTH 600 0
DWIDTH 10 0
BBX 6 17 2 0
BITMAP
30
30
00
00
FC
30
30
30
30
30
30
30
30
30
30
30
FC
ENDCHAR
STARTCHAR 0131
ENCODING 305
SWIDTH 600 0
DWIDTH 10 0
BBX 8 10 1 0
BITMAP
78
08
08
08
08
08
08
08
08
FF
ENDCHAR
STARTCHAR 0134
ENCODING 308
SWIDTH 600 0
DWIDTH 10 0
BBX 10 17 1 0
BITMAP
0200
0700
0CC0
0000
0200
0200
0200
0200
0200
0200
0200
0200
0200
8200
C200
EE00
7C00
ENDCHAR
STARTCHAR 0135
ENCODING 309
SWIDTH 600 0
DWIDTH 10 0
BBX 9 18 1 -3
BITMAP
0400
0E00
3B80
0000
0000
FC00
0400
0400
0400
0400
0400
0400
0400
0400
0400
0400
1C00
7800
ENDCHAR
STARTCHAR 0136
ENCODING 310
SWIDTH 600 0
DWIDTH 10 0
BBX 8 17 2 -4
BITMAP
86
86
84
8C
88
98
F0
98
98
8C
8C
86
83
00
18
30
60
ENDCHAR
STARTCHAR 0137
ENCODING 311
SWIDTH 600 0
DWIDTH 10 0
BBX 8 17 2 -4
BITMAP
80
80
80
86
84
8C
98
F0
98
88
8C
86
86
01
18
30
60
ENDCHAR
STARTCHAR 0138
ENCODING 312
SWIDTH 600 0
DWIDTH 10 0
BBX 8 10 2 0
BITMAP
86
84
8C
98
F0
98
8C
8C
86
83
ENDCHAR
STARTCHAR 0139
ENCODING 313
SWIDTH 600 0
DWIDTH 10 0
BBX 7 17 2 0
BITMAP
20
60
C0
00
C0
C0
C0
C0
C0
C0
C0
C0
C0
C0
C0
C0
FE
ENDCHAR
STARTCHAR 013A
ENCODING 314
SWIDTH 600 0
DWIDTH 10 0
BBX 8 17 1 0
BITMAP
0C
18
30
00
F0
10
10
10
10
10
10
10
10
10
10
18
0F
ENDCHAR
STARTCHAR 013B
ENCODING 315
SWIDTH 600 0
DWIDTH 10 0
BBX 7 17 2 -4
BITMAP
C0
C0
C0
C0
C0
C0
C0
C0
C0
C0
C0
C0
FE
00
08
18
30
ENDCHAR
STARTCHAR 013C
ENCODING 316
SWIDTH 600 0
DWIDTH 10 0
BBX 8 17 1 -4
BITMAP
F0
10
10
10
10
10
10
10
10
10
10
18
0F
00
0C
08
18
ENDCHAR
STARTCHAR 013D
ENCODING 317
SWIDTH 600 0
DWIDTH 10 0
BBX 7 13 2 0
BITMAP
CC
C8
C8
C0
C0
C0
C0
C0
C0
C0
C0
C0
FE
ENDCHAR
STARTCHAR 013E
ENCODING 318
SWIDTH 600 0
DWIDTH 10 0
BBX 8 13 1 0
BITMAP
F3
12
12
10
10
10
10
10
10
10
10
18
0F
ENDCHAR
STARTCHAR 013F
ENCODING 319
SWIDTH 600 0
DWIDTH 10 0
BBX 7 13 2 0
BITMAP
C0
C0
C0
C0
C0
C6
C6
C6
C0
C0
C0
C0
FE
ENDCHAR
STARTCHAR 0140
ENCODING 320
SWIDTH 600 0
DWIDTH 10 0
BBX 11 13 0 0
BITMAP
F800
1800
1800
1800
1800
18C0
18E0
18C0
1800
1800
1800
0C00
0F80
ENDCHAR
STARTCHAR 0141
ENCODING 321
SWIDTH 600 0
DWIDTH 10 0
BBX 9 13 0 0
BITMAP
3000
3000
3000
3200
3600
3800
3000
F000
B000
3000
3000
3000
3F80
ENDCHAR
STARTCHAR 0142
ENCODING 322
SWIDTH 600 0
DWIDTH 10 0
BBX 8 13 1 0
BITMAP
F0
10
10
12
16
1C
30
70
50
10
10
18
0F
ENDCHAR
STARTCHAR 0143
ENCODING 323
SWIDTH 600 0
DWIDTH 10 0
BBX 7 17 2 0
BITMAP
0C
18
30
00
C6
C6
C6
E6
A6
A6
B6
96
96
9E
8E
8E
8E
ENDCHAR
STARTCHAR 0144
ENCODING 324
SWIDTH 600 0
DWIDTH 10 0
BBX 7 15 2 0
BITMAP
0C
18
30
00
00
B8
EC
86
86
86
86
86
86
86
86
ENDCHAR
STARTCHAR 0145
ENCODING 325
SWIDTH 600 0
DWIDTH 10 0
BBX 7 17 2 -4
BITMAP
C6
C6
C6
E6
A6
A6
B6
96
96
9E
8E
8E
8E
00
18
30
60
ENDCHAR
STARTCHAR 0146
ENCODING 326
SWIDTH 600 0
DWIDTH 10 0
BBX 7 14 2 -4
BITMAP
B8
EC
86
86
86
86
86
86
86
86
00
18
30
60
ENDCHAR
STARTCHAR 0147
ENCODING 327
SWIDTH 600 0
DWIDTH 10 0
BBX 7 17 2 0
BITMAP
CC
78
30
00
C6
C6
C6
E6
A6
A6
B6
96
96
9E
8E
8E
8E
ENDCHAR
STARTCHAR 0148
ENCODING 328
SWIDTH 600 0
DWIDTH 10 0
BBX 7 15 2 0
BITMAP
C4
68
30
00
00
B8
EC
86
86
86
86
86
86
86
86
ENDCHAR
STARTCHAR 0149
ENCODING 329
SWIDTH 600 0
DWIDTH 10 0
BBX 9 14 0 0
BITMAP
6000
6000
C000
0000
2E00
3B00
2180
2180
2180
2180
2180
2180
2180
2180
ENDCHAR
STARTCHAR 014A
ENCODING 330
SWIDTH 600 0
DWIDTH 10 0
BBX 7 16 2 -3
BITMAP
C6
C6
E6
E6
A6
B6
96
96
9E
8E
8E
86
86
06
0C
38
ENDCHAR
STARTCHAR 014B
ENCODING 331
SWIDTH 600 0
DWIDTH 10 0
BBX 7 13 2 -3
BITMAP
B8
EC
86
86
86
86
86
86
86
86
06
0C
38
ENDCHAR
STARTCHAR 014C
ENCODING 332
SWIDTH 600 0
DWIDTH 10 0
BBX 8 16 1 0
BITMAP
7E
00
00
3C
66
43
43
C3
C3
C3
C3
C3
43
43
66
3C
ENDCHAR
STARTCHAR 014D
ENCODING 333
SWIDTH 600 0
DWIDTH 10 0
BBX 8 13 1 0
BITMAP
7E
00
00
3C
66
43
C3
C3
C3
C3
43
66
3C
ENDCHAR
STARTCHAR 014E
ENCODING 334
SWIDTH 600 0
DWIDTH 10 0
BBX 8 16 1 0
BITMAP
66
3C
00
3C
66
43
43
C3
C3
C3
C3
C3
43
43
66
3C
ENDCHAR
STARTCHAR 014F
ENCODING 335
SWIDTH 600 0
DWIDTH 10 0
BBX 8 14 1 0
BITMAP
66
3C
00
00
3C
66
43
C3
C3
C3
C3
43
66
3C
ENDCHAR
STARTCHAR 0150
ENCODING 336
SWIDTH 600 0
DWIDTH 10 0
BBX 8 17 1 0
BITMAP
1B
32
24
40
3C
66
43
43
C3
C3
C3
C3
C3
43
43
66
3C
ENDCHAR
STARTCHAR 0151
ENCODING 337
SWIDTH 600 0
DWIDTH 10 0
BBX 8 15 1 0
BITMAP
1B
32
24
40
00
3C
66
43
C3
C3
C3
C3
43
66
3C
ENDCHAR
STARTCHAR 0152
ENCODING 338
SWIDTH 600 0
DWIDTH 10 0
BBX 9 13 1 0
BITMAP
7F80
DC00
8C00
8C00
8C00
8C00
8F00
8C00
8C00
8C00
8C00
DC00
7F80
ENDCHAR
STARTCHAR 0153
ENCODING 339
SWIDTH 600 0
DWIDTH 10 0
BBX 9 10 1 0
BITMAP
7700
DF00
9980
9980
9F80
9800
9800
9880
DF00
7700
ENDCHAR
STARTCHAR 0154
ENCODING 340
SWIDTH 600 0
DWIDTH 10 0
BBX 7 17 2 0
BITMAP
0C
18
30
00
F8
8C
86
82
86
86
FC
98
88
8C
84
86
86
ENDCHAR
STARTCHAR 0155
ENCODING 341
SWIDTH 600 0
DWIDTH 10 0
BBX 7 15 2 0
BITMAP
0C
08
30
00
00
BC
AE
C6
86
80
80
80
80
80
80
ENDCHAR
STARTCHAR 0156
ENCODING 342
SWIDTH 600 0
DWIDTH 10 0
BBX 7 17 2 -4
BITMAP
F8
8C
86
82
86
86
FC
98
88
8C
84
86
86
00
18
30
60
ENDCHAR
STARTCHAR 0157
ENCODING 343
SWIDTH 600 0
DWIDTH 10 0
BBX 8 14 1 -4
BITMAP
5E
57
63
43
40
40
40
40
40
40
00
60
40
C0
ENDCHAR
STARTCHAR 0158
ENCODING 344
SWIDTH 600 0
DWIDTH 10 0
BBX 7 17 2 0
BITMAP
CC
78
30
00
F8
8C
86
82
86
86
FC
98
88
8C
84
86
86
ENDCHAR
STARTCHAR 0159
ENCODING 345
SWIDTH 600 0
DWIDTH 10 0
BBX 7 15 2 0
BITMAP
C6
6C
38
00
00
BC
AE
C6
86
80
80
80
80
80
80
ENDCHAR
STARTCHAR 015A
ENCODING 346
SWIDTH 600 0
DWIDTH 10 0
BBX 8 17 1 0
BITMAP
06
0C
18
00
3C
66
43
40
40
70
3E
03
03
C3
C3
66
3C
ENDCHAR
STARTCHAR 015B
ENCODING 347
SWIDTH 600 0
DWIDTH 10 0
BBX 8 15 1 0
BITMAP
06
0C
18
00
00
3C
66
43
40
7C
0E
03
C3
66
3E
ENDCHAR
STARTCHAR 015C
ENCODING 348
SWIDTH 600 0
DWIDTH 10 0
BBX 8 17 1 0
BITMAP
18
3C
66
00
3C
66
43
40
40
70
3E
03
03
C3
C3
66
3C
ENDCHAR
STARTCHAR 015D
ENCODING 349
SWIDTH 600 0
DWIDTH 10 0
BBX 8 15 1 0
BITMAP
18
3C
66
00
00
3C
66
43
40
7C
0E
03
C3
66
3E
ENDCHAR
STARTCHAR 015E
ENCODING 350
SWIDTH 600 0
DWIDTH 10 0
BBX 8 16 1 -3
BITMAP
3C
66
43
40
40
70
3E
03
03
C3
C3
66
3C
10
0C
3C
ENDCHAR
STARTCHAR 015F
ENCODING 351
SWIDTH 600 0
DWIDTH 10 0
BBX 8 13 1 -3
BITMAP
3C
66
43
40
7C
0E
03
C3
66
3E
10
0C
1C
ENDCHAR
STARTCHAR 0160
ENCODING 352
SWIDTH 600 0
DWIDTH 10 0
BBX 8 17 1 0
BITMAP
66
3C
18
00
3C
66
43
40
40
70
3E
03
03
C3
C3
66
3C
ENDCHAR
STARTCHAR 0161
ENCODING 353
SWIDTH 600 0
DWIDTH 10 0
BBX 8 15 1 0
BITMAP
66
3C
18
00
00
3C
66
43
40
7C
0E
03
C3
66
3E
ENDCHAR
STARTCHAR 0162
ENCODING 354
SWIDTH 600 0
DWIDTH 10 0
BBX 8 16 1 -3
BITMAP
FF
18
18
18
18
18
18
18
18
18
18
18
18
18
06
1C
ENDCHAR
STARTCHAR 0163
ENCODING 355
SWIDTH 600 0
DWIDTH 10 0
BBX 8 16 1 -3
BITMAP
30
30
30
FF
30
30
30
30
30
30
30
18
1F
0C
06
1E
ENDCHAR
STARTCHAR 0164
ENCODING 356
SWIDTH 600 0
DWIDTH 10 0
BBX 8 17 1 0
BITMAP
66
3C
18
00
FF
18
18
18
18
18
18
18
18
18
18
18
18
ENDCHAR
STARTCHAR 0165
ENCODING 357
SWIDTH 600 0
DWIDTH 10 0
BBX 8 14 1 0
BITMAP
02
36
36
30
FF
30
30
30
30
30
30
30
18
1F
ENDCHAR
STARTCHAR 0166
ENCODING 358
SWIDTH 600 0
DWIDTH 10 0
BBX 8 13 1 0
BITMAP
FF
18
18
18
18
18
7E
18
18
18
18
18
18
ENDCHAR
STARTCHAR 0167
ENCODING 359
SWIDTH 600 0
DWIDTH 10 0
BBX 8 13 1 0
BITMAP
30
30
30
FF
30
30
30
FE
30
30
30
18
1F
ENDCHAR
STARTCHAR 0168
ENCODING 360
SWIDTH 600 0
DWIDTH 10 0
BBX 7 17 2 0
BITMAP
64
9C
00
00
86
86
86
86
86
86
86
86
86
86
86
CC
78
ENDCHAR
STARTCHAR 0169
ENCODING 361
SWIDTH 600 0
DWIDTH 10 0
BBX 7 14 2 0
BITMAP
64
9C
00
00
86
86
86
86
86
86
86
86
CC
78
ENDCHAR
STARTCHAR 016A
ENCODING 362
SWIDTH 600 0
DWIDTH 10 0
BBX 7 16 2 0
BITMAP
FC
00
00
86
86
86
86
86
86
86
86
86
86
86
CC
78
ENDCHAR
STARTCHAR 016B
ENCODING 363
SWIDTH 600 0
DWIDTH 10 0
BBX 7 13 2 0
BITMAP
FC
00
00
86
86
86
86
86
86
86
86
CC
78
ENDCHAR
STARTCHAR 016C
ENCODING 364
SWIDTH 600 0
DWIDTH 10 0
BBX 7 16 2 0
BITMAP
CC
78
00
86
86
86
86
86
86
86
86
86
86
86
CC
78
ENDCHAR
STARTCHAR 016D
ENCODING 365
SWIDTH 600 0
DWIDTH 10 0
BBX 7 14 2 0
BITMAP
CC
78
00
00
86
86
86
86
86
86
86
86
CC
78
ENDCHAR
STARTCHAR 016E
ENCODING 366
SWIDTH 600 0
DWIDTH 10 0
BBX 7 18 2 0
BITMAP
38
48
48
78
00
86
86
86
86
86
86
86
86
86
86
86
CC
78
ENDCHAR
STARTCHAR 016F
ENCODING 367
SWIDTH 600 0
DWIDTH 10 0
BBX 7 15 2 0
BITMAP
38
48
48
78
00
86
86
86
86
86
86
86
86
CC
78
ENDCHAR
STARTCHAR 0170
ENCODING 368
SWIDTH 600 0
DWIDTH 10 0
BBX 7 17 2 0
BITMAP
36
64
48
80
86
86
86
86
86
86
86
86
86
86
86
CC
78
ENDCHAR
STARTCHAR 0171
ENCODING 369
SWIDTH 600 0
DWIDTH 10 0
BBX 7 15 2 0
BITMAP
36
64
48
80
00
86
86
86
86
86
86
86
86
CC
78
ENDCHAR
STARTCHAR 0172
ENCODING 370
SWIDTH 600 0
DWIDTH 10 0
BBX 7 16 2 -3
BITMAP
86
86
86
86
86
86
86
86
86
86
84
CC
70
10
30
1C
ENDCHAR
STARTCHAR 0173
ENCODING 371
SWIDTH 600 0
DWIDTH 10 0
BBX 7 13 2 -3
BITMAP
86
86
86
86
86
86
86
84
CC
78
10
30
1C
ENDCHAR
STARTCHAR 0174
ENCODING 372
SWIDTH 600 0
DWIDTH 10 0
BBX 10 17 0 0
BITMAP
0C00
1E00
3300
0000
CCC0
4CC0
4CC0
4C80
4E80
4A80
5A80
7280
7280
7380
3380
3380
3300
ENDCHAR
STARTCHAR 0175
ENCODING 373
SWIDTH 600 0
DWIDTH 10 0
BBX 9 15 1 0
BITMAP
1800
3C00
6600
0000
0000
9980
9900
9900
9900
9500
E500
6500
6600
6600
6600
ENDCHAR
STARTCHAR 0176
ENCODING 374
SWIDTH 600 0
DWIDTH 10 0
BBX 9 17 1 0
BITMAP
1800
3C00
6600
0000
8180
C300
4200
6600
2600
3400
1C00
1800
1800
1800
1800
1800
1800
ENDCHAR
STARTCHAR 0177
ENCODING 375
SWIDTH 600 0
DWIDTH 10 0
BBX 8 18 1 -3
BITMAP
18
3C
66
00
00
C1
C3
42
66
26
34
3C
1C
18
18
18
10
30
ENDCHAR
STARTCHAR 0178
ENCODING 376
SWIDTH 600 0
DWIDTH 10 0
BBX 9 17 1 0
BITMAP
6600
6600
0000
0000
8180
C300
4200
6600
2600
3400
1C00
1800
1800
1800
1800
1800
1800
ENDCHAR
STARTCHAR 0179
ENCODING 377
SWIDTH 600 0
DWIDTH 10 0
BBX 8 17 1 0
BITMAP
06
0C
18
00
7F
03
06
06
0C
08
18
10
30
20
60
C0
FF
ENDCHAR
STARTCHAR 017A
ENCODING 378
SWIDTH 600 0
DWIDTH 10 0
BBX 7 15 2 0
BITMAP
0C
18
30
00
00
FC
04
0C
18
30
30
60
C0
80
FE
ENDCHAR
STARTCHAR 017B
ENCODING 379
SWIDTH 600 0
DWIDTH 10 0
BBX 8 17 1 0
BITMAP
18
18
00
00
7F
03
06
06
0C
08
18
10
30
20
60
C0
FF
ENDCHAR
STARTCHAR 017C
ENCODING 380
SWIDTH 600 0
DWIDTH 10 0
BBX 7 14 2 0
BITMAP
30
30
00
00
FC
04
0C
18
30
30
60
C0
80
FE
ENDCHAR
STARTCHAR 017D
ENCODING 381
SWIDTH 600 0
DWIDTH 10 0
BBX 8 17 1 0
BITMAP
66
3C
18
00
7F
03
06
06
0C
08
18
10
30
20
60
C0
FF
ENDCHAR
STARTCHAR 017E
ENCODING 382
SWIDTH 600 0
DWIDTH 10 0
BBX 7 15 2 0
BITMAP
CC
78
30
00
00
FC
04
0C
18
30
30
60
C0
80
FE
ENDCHAR
STARTCHAR 017F
ENCODING 383
SWIDTH 600 0
DWIDTH 10 0
BBX 6 13 3 0
BITMAP
7C
C0
80
80
80
80
80
80
80
80
80
80
80
ENDCHAR
STARTCHAR 018F
ENCODING 399
SWIDTH 600 0
DWIDTH 10 0
BBX 7 13 2 0
BITMAP
78
CC
86
86
06
06
FE
86
86
86
86
CC
78
ENDCHAR
STARTCHAR 0190
ENCODING 400
SWIDTH 600 0
DWIDTH 10 0
BBX 8 13 1 0
BITMAP
3C
66
43
40
60
3C
60
C0
C0
C1
C3
77
3C
ENDCHAR
STARTCHAR 0192
ENCODING 402
SWIDTH 600 0
DWIDTH 10 0
BBX 9 16 0 -3
BITMAP
0780
0C00
0800
0800
0800
0800
7F80
0800
0800
0800
0800
0800
0800
0800
3800
F000
ENDCHAR
STARTCHAR 019B
ENCODING 411
SWIDTH 600 0
DWIDTH 10 0
BBX 8 13 1 0
BITMAP
32
1E
38
78
98
1C
3C
24
66
66
42
C3
C1
ENDCHAR
STARTCHAR 01A0
ENCODING 416
SWIDTH 600 0
DWIDTH 10 0
BBX 8 15 1 0
BITMAP
01
01
3D
67
43
43
C3
C3
C3
C3
C3
43
43
66
3C
ENDCHAR
STARTCHAR 01A1
ENCODING 417
SWIDTH 600 0
DWIDTH 10 0
BBX 8 12 1 0
BITMAP
01
01
3F
66
43
C3
C3
C3
C3
43
66
3C
ENDCHAR
STARTCHAR 01AF
ENCODING 431
SWIDTH 600 0
DWIDTH 10 0
BBX 8 15 2 0
BITMAP
01
01
87
86
86
86
86
86
86
86
86
86
86
CC
78
ENDCHAR
STARTCHAR 01B0
ENCODING 432
SWIDTH 600 0
DWIDTH 10 0
BBX 8 12 2 0
BITMAP
01
01
87
86
86
86
86
86
86
86
CC
78
ENDCHAR
STARTCHAR 01CD
ENCODING 461
SWIDTH 600 0
DWIDTH 10 0
BBX 8 17 1 0
BITMAP
66
3C
18
00
18
1C
3C
34
24
24
66
62
7E
42
C3
C3
C1
ENDCHAR
STARTCHAR 01CE
ENCODING 462
SWIDTH 600 0
DWIDTH 10 0
BBX 8 15 1 0
BITMAP
62
34
18
00
00
3C
66
43
03
7F
E3
C3
C3
6F
7B
ENDCHAR
STARTCHAR 01D0
ENCODING 464
SWIDTH 600 0
DWIDTH 10 0
BBX 8 15 1 0
BITMAP
62
34
1C
00
00
78
08
08
08
08
08
08
08
08
FF
ENDCHAR
STARTCHAR 01D2
ENCODING 466
SWIDTH 600 0
DWIDTH 10 0
BBX 8 15 1 0
BITMAP
66
3C
18
00
00
3C
66
43
C3
C3
C3
C3
43
66
3C
ENDCHAR
STARTCHAR 01D4
ENCODING 468
SWIDTH 600 0
DWIDTH 10 0
BBX 7 15 2 0
BITMAP
CC
78
30
00
00
86
86
86
86
86
86
86
86
CC
78
ENDCHAR
STARTCHAR 01D6
ENCODING 470
SWIDTH 600 0
DWIDTH 10 0
BBX 7 17 2 0
BITMAP
FC
00
00
CC
CC
00
00
86
86
86
86
86
86
86
86
CC
78
ENDCHAR
STARTCHAR 01D8
ENCODING 472
SWIDTH 600 0
DWIDTH 10 0
BBX 7 19 2 0
BITMAP
0C
18
30
00
00
CC
CC
00
00
86
86
86
86
86
86
86
86
CC
78
ENDCHAR
STARTCHAR 01DA
ENCODING 474
SWIDTH 600 0
DWIDTH 10 0
BBX 7 19 2 0
BITMAP
CC
78
30
00
00
CC
CC
00
00
86
86
86
86
86
86
86
86
CC
78
ENDCHAR
STARTCHAR 01DC
ENCODING 476
SWIDTH 600 0
DWIDTH 10 0
BBX 7 19 2 0
BITMAP
40
60
30
00
00
CC
CC
00
00
86
86
86
86
86
86
86
86
CC
78
ENDCHAR
STARTCHAR 01E6
ENCODING 486
SWIDTH 600 0
DWIDTH 10 0
BBX 8 17 1 0
BITMAP
66
3C
18
00
3C
66
43
40
C0
C0
CF
C3
C3
43
43
76
3C
ENDCHAR
STARTCHAR 01E7
ENCODING 487
SWIDTH 600 0
DWIDTH 10 0
BBX 8 18 1 -3
BITMAP
66
3C
18
00
00
3B
67
43
43
C3
C3
43
67
7F
03
03
06
3C
ENDCHAR
STARTCHAR 01EA
ENCODING 490
SWIDTH 600 0
DWIDTH 10 0
BBX 8 16 1 -3
BITMAP
3C
66
43
43
C3
C3
C3
C3
C3
43
42
66
38
08
18
0E
ENDCHAR
STARTCHAR 01EB
ENCODING 491
SWIDTH 600 0
DWIDTH 10 0
BBX 8 13 1 -3
BITMAP
3C
66
43
43
C3
C3
43
42
66
38
08
18
0E
ENDCHAR
STARTCHAR 01F4
ENCODING 500
SWIDTH 600 0
DWIDTH 10 0
BBX 8 17 1 0
BITMAP
06
0C
18
00
3C
66
43
40
C0
C0
CF
C3
C3
43
43
76
3C
ENDCHAR
STARTCHAR 01F5
ENCODING 501
SWIDTH 600 0
DWIDTH 10 0
BBX 8 18 1 -3
BITMAP
06
0C
18
00
00
3B
67
43
43
C3
C3
43
67
7F
03
03
06
3C
ENDCHAR
STARTCHAR 01FC
ENCODING 508
SWIDTH 600 0
DWIDTH 10 0
BBX 9 17 1 0
BITMAP
0600
0C00
1800
0000
3F80
2C00
6C00
6C00
6C00
4C00
4F00
4C00
FC00
CC00
CC00
8C00
8F80
ENDCHAR
STARTCHAR 01FD
ENCODING 509
SWIDTH 600 0
DWIDTH 10 0
BBX 9 15 1 0
BITMAP
0600
0C00
1800
0000
0000
7700
D900
1980
1980
FF80
D800
9800
9980
D900
7700
ENDCHAR
STARTCHAR 01FE
ENCODING 510
SWIDTH 600 0
DWIDTH 10 0
BBX 9 17 1 0
BITMAP
0600
0C00
1800
0000
3D80
6700
4300
4700
C700
CF00
CB00
D300
F300
6300
6300
6600
FC00
ENDCHAR
STARTCHAR 01FF
ENCODING 511
SWIDTH 600 0
DWIDTH 10 0
BBX 9 15 1 0
BITMAP
0600
0C00
1800
0000
0180
3F00
6600
4700
4F00
CB00
D300
7300
6300
6600
FC00
ENDCHAR
STARTCHAR 0218
ENCODING 536
SWIDTH 600 0
DWIDTH 10 0
BBX 8 17 1 -4
BITMAP
3C
66
43
40
40
70
3E
03
03
C3
C3
66
3C
00
0C
18
30
ENDCHAR
STARTCHAR 0219
ENCODING 537
SWIDTH 600 0
DWIDTH 10 0
BBX 8 14 1 -4
BITMAP
3C
66
43
40
7C
0E
03
C3
66
3E
00
0C
18
30
ENDCHAR
STARTCHAR 021A
ENCODING 538
SWIDTH 600 0
DWIDTH 10 0
BBX 8 17 1 -4
BITMAP
FF
18
18
18
18
18
18
18
18
18
18
18
18
00
0C
18
30
ENDCHAR
STARTCHAR 021B
ENCODING 539
SWIDTH 600 0
DWIDTH 10 0
BBX 8 17 1 -4
BITMAP
30
30
30
FF
30
30
30
30
30
30
30
18
1F
00
06
0C
18
ENDCHAR
STARTCHAR 0232
ENCODING 562
SWIDTH 600 0
DWIDTH 10 0
BBX 9 16 1 0
BITMAP
7E00
0000
0000
8180
C300
4200
6600
2600
3400
1C00
1800
1800
1800
1800
1800
1800
ENDCHAR
STARTCHAR 0233
ENCODING 563
SWIDTH 600 0
DWIDTH 10 0
BBX 8 16 1 -3
BITMAP
7E
00
00
C1
C3
42
66
26
34
3C
1C
18
18
18
10
30
ENDCHAR
STARTCHAR 0237
ENCODING 567
SWIDTH 600 0
DWIDTH 10 0
BBX 6 13 1 -3
BITMAP
FC
04
04
04
04
04
04
04
04
04
04
1C
78
ENDCHAR
STARTCHAR 0259
ENCODING 601
SWIDTH 600 0
DWIDTH 10 0
BBX 7 10 2 0
BITMAP
78
CC
86
06
06
FE
86
86
CC
78
ENDCHAR
STARTCHAR 02B9
ENCODING 697
SWIDTH 600 0
DWIDTH 10 0
BBX 3 6 3 7
BITMAP
60
60
60
C0
C0
80
ENDCHAR
STARTCHAR 02BA
ENCODING 698
SWIDTH 600 0
DWIDTH 10 0
BBX 8 6 1 7
BITMAP
73
63
66
46
C6
84
ENDCHAR
STARTCHAR 02BC
ENCODING 700
SWIDTH 600 0
DWIDTH 10 0
BBX 3 6 3 8
BITMAP
60
60
60
C0
C0
80
ENDCHAR
STARTCHAR 02C6
ENCODING 710
SWIDTH 600 0
DWIDTH 10 0
BBX 6 3 2 12
BITMAP
30
78
CC
ENDCHAR
STARTCHAR 02C7
ENCODING 711
SWIDTH 600 0
DWIDTH 10 0
BBX 6 3 2 12
BITMAP
CC
78
30
ENDCHAR
STARTCHAR 02C9
ENCODING 713
SWIDTH 600 0
DWIDTH 10 0
BBX 6 1 2 12
BITMAP
FC
ENDCHAR
STARTCHAR 02D8
ENCODING 728
SWIDTH 600 0
DWIDTH 10 0
BBX 6 2 2 12
BITMAP
CC
78
ENDCHAR
STARTCHAR 02D9
ENCODING 729
SWIDTH 600 0
DWIDTH 10 0
BBX 2 2 4 12
BITMAP
C0
C0
ENDCHAR
STARTCHAR 02DA
ENCODING 730
SWIDTH 600 0
DWIDTH 10 0
BBX 4 4 3 11
BITMAP
70
90
90
F0
ENDCHAR
STARTCHAR 02DB
ENCODING 731
SWIDTH 600 0
DWIDTH 10 0
BBX 4 4 3 -3
BITMAP
60
C0
C0
70
ENDCHAR
STARTCHAR 02DC
ENCODING 732
SWIDTH 600 0
DWIDTH 10 0
BBX 6 2 2 12
BITMAP
64
9C
ENDCHAR
STARTCHAR 02DD
ENCODING 733
SWIDTH 600 0
DWIDTH 10 0
BBX 7 3 2 12
BITMAP
36
64
C8
ENDCHAR
STARTCHAR 02F3
ENCODING 755
SWIDTH 600 0
DWIDTH 10 0
BBX 4 3 3 -4
BITMAP
F0
90
F0
ENDCHAR
STARTCHAR 02F7
ENCODING 759
SWIDTH 600 0
DWIDTH 10 0
BBX 6 2 2 -4
BITMAP
64
9C
ENDCHAR
STARTCHAR 0300
ENCODING 768
SWIDTH 0 0
DWIDTH 0 0
BBX 3 3 -7 12
BITMAP
80
C0
60
ENDCHAR
STARTCHAR 0301
ENCODING 769
SWIDTH 0 0
DWIDTH 0 0
BBX 3 3 -6 12
BITMAP
20
40
C0
ENDCHAR
STARTCHAR 0302
ENCODING 770
SWIDTH 0 0
DWIDTH 0 0
BBX 6 3 -8 12
BITMAP
30
78
CC
ENDCHAR
STARTCHAR 0303
ENCODING 771
SWIDTH 0 0
DWIDTH 0 0
BBX 6 2 -8 12
BITMAP
64
98
ENDCHAR
STARTCHAR 0304
ENCODING 772
SWIDTH 0 0
DWIDTH 0 0
BBX 6 1 -8 12
BITMAP
FC
ENDCHAR
STARTCHAR 0306
ENCODING 774
SWIDTH 0 0
DWIDTH 0 0
BBX 6 2 -8 12
BITMAP
CC
78
ENDCHAR
STARTCHAR 0307
ENCODING 775
SWIDTH 0 0
DWIDTH 0 0
BBX 2 2 -6 12
BITMAP
C0
C0
ENDCHAR
STARTCHAR 0308
ENCODING 776
SWIDTH 0 0
DWIDTH 0 0
BBX 6 2 -8 12
BITMAP
CC
CC
ENDCHAR
STARTCHAR 0309
ENCODING 777
SWIDTH 0 0
DWIDTH 0 0
BBX 4 3 -7 12
BITMAP
E0
30
60
ENDCHAR
STARTCHAR 030A
ENCODING 778
SWIDTH 0 0
DWIDTH 0 0
BBX 4 4 -7 11
BITMAP
E0
90
90
F0
ENDCHAR
STARTCHAR 030B
ENCODING 779
SWIDTH 0 0
DWIDTH 0 0
BBX 7 3 -8 12
BITMAP
36
6C
D8
ENDCHAR
STARTCHAR 030C
ENCODING 780
SWIDTH 0 0
DWIDTH 0 0
BBX 6 3 -8 12
BITMAP
CC
78
30
ENDCHAR
STARTCHAR 030F
ENCODING 783
SWIDTH 0 0
DWIDTH 0 0
BBX 7 3 -9 12
BITMAP
D8
4C
26
ENDCHAR
STARTCHAR 0312
ENCODING 786
SWIDTH 0 0
DWIDTH 0 0
BBX 4 4 -7 12
BITMAP
30
20
60
E0
ENDCHAR
STARTCHAR 031B
ENCODING 795
SWIDTH 0 0
DWIDTH 0 0
BBX 2 3 -4 9
BITMAP
40
40
C0
ENDCHAR
STARTCHAR 0323
ENCODING 803
SWIDTH 0 0
DWIDTH 0 0
BBX 2 2 -6 -4
BITMAP
C0
C0
ENDCHAR
STARTCHAR 0325
ENCODING 805
SWIDTH 0 0
DWIDTH 0 0
BBX 4 3 -7 -4
BITMAP
F0
90
F0
ENDCHAR
STARTCHAR 0326
ENCODING 806
SWIDTH 0 0
DWIDTH 0 0
BBX 3 3 -7 -4
BITMAP
20
60
C0
ENDCHAR
STARTCHAR 0327
ENCODING 807
SWIDTH 0 0
DWIDTH 0 0
BBX 4 4 -7 -4
BITMAP
40
20
30
E0
ENDCHAR
STARTCHAR 0328
ENCODING 808
SWIDTH 0 0
DWIDTH 0 0
BBX 3 4 -7 -3
BITMAP
60
C0
80
E0
ENDCHAR
STARTCHAR 0336
ENCODING 822
SWIDTH 0 0
DWIDTH 0 0
BBX 12 1 -11 5
BITMAP
FFF0
ENDCHAR
STARTCHAR 0337
ENCODING 823
SWIDTH 0 0
DWIDTH 0 0
BBX 9 11 -10 -1
BITMAP
0080
0100
0300
0600
0400
0C00
1800
1000
3000
6000
C000
ENDCHAR
STARTCHAR 0338
ENCODING 824
SWIDTH 0 0
DWIDTH 0 0
BBX 6 14 -8 -2
BITMAP
04
04
08
08
18
10
10
20
20
60
40
40
80
80
ENDCHAR
STARTCHAR 0374
ENCODING 884
SWIDTH 600 0
DWIDTH 10 0
BBX 3 5 3 8
BITMAP
60
60
40
C0
C0
ENDCHAR
STARTCHAR 0375
ENCODING 885
SWIDTH 600 0
DWIDTH 10 0
BBX 2 5 4 -3
BITMAP
C0
C0
C0
C0
80
ENDCHAR
STARTCHAR 037E
ENCODING 894
SWIDTH 600 0
DWIDTH 10 0
BBX 4 13 3 -3
BITMAP
60
70
60
00
00
00
00
00
60
60
60
40
C0
ENDCHAR
STARTCHAR 0384
ENCODING 900
SWIDTH 600 0
DWIDTH 10 0
BBX 3 3 4 12
BITMAP
60
40
C0
ENDCHAR
STARTCHAR 0385
ENCODING 901
SWIDTH 600 0
DWIDTH 10 0
BBX 6 5 2 12
BITMAP
08
10
30
CC
CC
ENDCHAR
STARTCHAR 0386
ENCODING 902
SWIDTH 600 0
DWIDTH 10 0
BBX 9 13 0 0
BITMAP
6C00
4E00
DE00
1A00
1200
1200
3300
3100
3F00
2100
6180
6180
6080
ENDCHAR
STARTCHAR 0387
ENCODING 903
SWIDTH 600 0
DWIDTH 10 0
BBX 3 3 4 5
BITMAP
C0
E0
C0
ENDCHAR
STARTCHAR 0388
ENCODING 904
SWIDTH 600 0
DWIDTH 10 0
BBX 11 13 -2 0
BITMAP
6FE0
C800
C800
0800
0800
0800
0FC0
0800
0800
0800
0800
0800
0FE0
ENDCHAR
STARTCHAR 0389
ENCODING 905
SWIDTH 600 0
DWIDTH 10 0
BBX 11 13 -2 0
BITMAP
6860
C860
C860
0860
0860
0860
0FE0
0860
0860
0860
0860
0860
0860
ENDCHAR
STARTCHAR 038A
ENCODING 906
SWIDTH 600 0
DWIDTH 10 0
BBX 10 13 -2 0
BITMAP
6FC0
C300
C300
0300
0300
0300
0300
0300
0300
0300
0300
0300
0FC0
ENDCHAR
STARTCHAR 038C
ENCODING 908
SWIDTH 600 0
DWIDTH 10 0
BBX 10 13 -1 0
BITMAP
CF00
D980
90C0
10C0
30C0
30C0
30C0
30C0
30C0
10C0
10C0
1980
0F00
ENDCHAR
STARTCHAR 038E
ENCODING 910
SWIDTH 600 0
DWIDTH 10 0
BBX 12 13 -2 0
BITMAP
5030
D860
8840
0CC0
04C0
0680
0380
0300
0300
0300
0300
0300
0300
ENDCHAR
STARTCHAR 038F
ENCODING 911
SWIDTH 600 0
DWIDTH 10 0
BBX 10 13 -1 0
BITMAP
CF00
D980
90C0
30C0
30C0
30C0
30C0
30C0
30C0
30C0
1080
0900
39C0
ENDCHAR
STARTCHAR 0390
ENCODING 912
SWIDTH 600 0
DWIDTH 10 0
BBX 8 17 1 0
BITMAP
04
08
18
66
66
00
00
F8
18
18
18
18
18
18
18
0C
0F
ENDCHAR
STARTCHAR 0391
ENCODING 913
SWIDTH 600 0
DWIDTH 10 0
BBX 8 13 1 0
BITMAP
18
1C
3C
34
24
24
66
62
7E
42
C3
C3
C1
ENDCHAR
STARTCHAR 0392
ENCODING 914
SWIDTH 600 0
DWIDTH 10 0
BBX 7 13 2 0
BITMAP
F8
8C
86
86
86
8C
F8
8C
86
86
86
8E
F8
ENDCHAR
STARTCHAR 0393
ENCODING 915
SWIDTH 600 0
DWIDTH 10 0
BBX 7 13 2 0
BITMAP
FE
C0
C0
C0
C0
C0
C0
C0
C0
C0
C0
C0
C0
ENDCHAR
STARTCHAR 0394
ENCODING 916
SWIDTH 600 0
DWIDTH 10 0
BBX 8 13 1 0
BITMAP
18
1C
3C
34
24
24
66
66
42
42
C3
C3
FF
ENDCHAR
STARTCHAR 0395
ENCODING 917
SWIDTH 600 0
DWIDTH 10 0
BBX 7 13 2 0
BITMAP
FE
80
80
80
80
80
FC
80
80
80
80
80
FE
ENDCHAR
STARTCHAR 0396
ENCODING 918
SWIDTH 600 0
DWIDTH 10 0
BBX 8 13 1 0
BITMAP
7F
03
06
06
0C
08
18
10
30
20
60
C0
FF
ENDCHAR
STARTCHAR 0397
ENCODING 919
SWIDTH 600 0
DWIDTH 10 0
BBX 7 13 2 0
BITMAP
86
86
86
86
86
86
FE
86
86
86
86
86
86
ENDCHAR
STARTCHAR 0398
ENCODING 920
SWIDTH 600 0
DWIDTH 10 0
BBX 8 13 1 0
BITMAP
3C
66
43
43
C3
C3
DF
C3
C3
43
43
66
3C
ENDCHAR
STARTCHAR 0399
ENCODING 921
SWIDTH 600 0
DWIDTH 10 0
BBX 6 13 2 0
BITMAP
FC
30
30
30
30
30
30
30
30
30
30
30
FC
ENDCHAR
STARTCHAR 039A
ENCODING 922
SWIDTH 600 0
DWIDTH 10 0
BBX 8 13 2 0
BITMAP
86
86
84
8C
88
98
F0
98
98
8C
8C
86
83
ENDCHAR
STARTCHAR 039B
ENCODING 923
SWIDTH 600 0
DWIDTH 10 0
BBX 8 13 1 0
BITMAP
18
1C
3C
3C
24
24
66
66
62
42
C3
C3
C1
ENDCHAR
STARTCHAR 039C
ENCODING 924
SWIDTH 600 0
DWIDTH 10 0
BBX 8 13 1 0
BITMAP
E3
E5
E5
E5
DD
D9
D9
C3
C3
C3
C3
C3
C3
ENDCHAR
STARTCHAR 039D
ENCODING 925
SWIDTH 600 0
DWIDTH 10 0
BBX 7 13 2 0
BITMAP
C6
C6
C6
E6
A6
A6
B6
96
96
9E
8E
8E
8E
ENDCHAR
STARTCHAR 039E
ENCODING 926
SWIDTH 600 0
DWIDTH 10 0
BBX 8 13 1 0
BITMAP
FF
00
00
00
00
00
7E
00
00
00
00
00
FF
ENDCHAR
STARTCHAR 039F
ENCODING 927
SWIDTH 600 0
DWIDTH 10 0
BBX 8 13 1 0
BITMAP
3C
66
43
43
C3
C3
C3
C3
C3
43
43
66
3C
ENDCHAR
STARTCHAR 03A0
ENCODING 928
SWIDTH 600 0
DWIDTH 10 0
BBX 7 13 2 0
BITMAP
FE
86
86
86
86
86
86
86
86
86
86
86
86
ENDCHAR
STARTCHAR 03A1
ENCODING 929
SWIDTH 600 0
DWIDTH 10 0
BBX 7 13 2 0
BITMAP
FC
8E
82
82
82
86
FC
80
80
80
80
80
80
ENDCHAR
STARTCHAR 03A3
ENCODING 931
SWIDTH 600 0
DWIDTH 10 0
BBX 8 13 1 0
BITMAP
FF
C0
60
30
18
18
0C
18
10
30
60
C0
FF
ENDCHAR
STARTCHAR 03A4
ENCODING 932
SWIDTH 600 0
DWIDTH 10 0
BBX 8 13 1 0
BITMAP
FF
18
18
18
18
18
18
18
18
18
18
18
18
ENDCHAR
STARTCHAR 03A5
ENCODING 933
SWIDTH 600 0
DWIDTH 10 0
BBX 9 13 1 0
BITMAP
8180
C300
4200
6600
2600
3400
1C00
1800
1800
1800
1800
1800
1800
ENDCHAR
STARTCHAR 03A6
ENCODING 934
SWIDTH 600 0
DWIDTH 10 0
BBX 8 15 1 -1
BITMAP
18
18
7E
DB
99
99
99
99
99
99
99
DB
7E
18
18
ENDCHAR
STARTCHAR 03A7
ENCODING 935
SWIDTH 600 0
DWIDTH 10 0
BBX 9 13 1 0
BITMAP
C300
4300
6600
2400
3C00
1800
1800
1C00
3C00
2600
6600
4300
C180
ENDCHAR
STARTCHAR 03A8
ENCODING 936
SWIDTH 600 0
DWIDTH 10 0
BBX 8 13 1 0
BITMAP
99
99
99
99
99
99
99
99
DB
7E
18
18
18
ENDCHAR
STARTCHAR 03A9
ENCODING 937
SWIDTH 600 0
DWIDTH 10 0
BBX 8 13 1 0
BITMAP
3C
66
43
C3
C3
C3
C3
C3
C3
C3
42
24
E7
ENDCHAR
STARTCHAR 03AA
ENCODING 938
SWIDTH 600 0
DWIDTH 10 0
BBX 6 17 2 0
BITMAP
CC
CC
00
00
FC
30
30
30
30
30
30
30
30
30
30
30
FC
ENDCHAR
STARTCHAR 03AB
ENCODING 939
SWIDTH 600 0
DWIDTH 10 0
BBX 9 17 1 0
BITMAP
6600
6600
0000
0000
8180
C300
4200
6600
2600
3400
1C00
1800
1800
1800
1800
1800
1800
ENDCHAR
STARTCHAR 03AC
ENCODING 940
SWIDTH 600 0
DWIDTH 10 0
BBX 8 14 1 0
BITMAP
0C
08
18
00
3B
67
43
C3
C3
C3
C3
43
67
3B
ENDCHAR
STARTCHAR 03AD
ENCODING 941
SWIDTH 600 0
DWIDTH 10 0
BBX 8 14 1 0
BITMAP
06
08
18
00
3E
67
C3
60
3C
60
C0
C3
67
3E
ENDCHAR
STARTCHAR 03AE
ENCODING 942
SWIDTH 600 0
DWIDTH 10 0
BBX 7 15 2 0
BITMAP
0C
18
30
00
00
B8
EC
86
86
86
86
86
86
86
86
ENDCHAR
STARTCHAR 03AF
ENCODING 943
SWIDTH 600 0
DWIDTH 10 0
BBX 8 15 1 0
BITMAP
06
0C
18
00
00
F8
18
18
18
18
18
18
18
0C
0F
ENDCHAR
STARTCHAR 03B0
ENCODING 944
SWIDTH 600 0
DWIDTH 10 0
BBX 7 17 2 0
BITMAP
08
10
30
CC
CC
00
00
86
86
86
86
86
86
86
86
CC
78
ENDCHAR
STARTCHAR 03B1
ENCODING 945
SWIDTH 600 0
DWIDTH 10 0
BBX 8 10 1 0
BITMAP
3B
67
43
C3
C3
C3
C3
43
67
3B
ENDCHAR
STARTCHAR 03B2
ENCODING 946
SWIDTH 600 0
DWIDTH 10 0
BBX 7 16 2 -3
BITMAP
78
CC
86
84
8C
B8
8C
86
82
82
86
EC
B8
80
80
80
ENDCHAR
STARTCHAR 03B3
ENCODING 947
SWIDTH 600 0
DWIDTH 10 0
BBX 8 13 1 -3
BITMAP
C3
43
42
62
26
24
34
1C
18
18
18
18
18
ENDCHAR
STARTCHAR 03B4
ENCODING 948
SWIDTH 600 0
DWIDTH 10 0
BBX 8 13 1 0
BITMAP
7F
60
30
18
3C
66
42
C3
C3
C3
43
66
3C
ENDCHAR
STARTCHAR 03B5
ENCODING 949
SWIDTH 600 0
DWIDTH 10 0
BBX 8 10 1 0
BITMAP
3E
67
C0
60
3C
60
C0
C3
67
3E
ENDCHAR
STARTCHAR 03B6
ENCODING 950
SWIDTH 600 0
DWIDTH 10 0
BBX 8 16 2 -3
BITMAP
FE
06
0C
18
30
60
40
C0
80
C0
E0
7C
1E
03
02
06
ENDCHAR
STARTCHAR 03B7
ENCODING 951
SWIDTH 600 0
DWIDTH 10 0
BBX 7 10 2 0
BITMAP
B8
EC
86
86
86
86
86
86
86
86
ENDCHAR
STARTCHAR 03B8
ENCODING 952
SWIDTH 600 0
DWIDTH 10 0
BBX 8 13 1 0
BITMAP
3C
66
43
43
C3
C3
FF
C3
C3
43
43
66
3C
ENDCHAR
STARTCHAR 03B9
ENCODING 953
SWIDTH 600 0
DWIDTH 10 0
BBX 8 10 1 0
BITMAP
F8
18
18
18
18
18
18
18
0C
0F
ENDCHAR
STARTCHAR 03BA
ENCODING 954
SWIDTH 600 0
DWIDTH 10 0
BBX 8 10 2 0
BITMAP
86
84
8C
98
F0
98
8C
8C
86
83
ENDCHAR
STARTCHAR 03BB
ENCODING 955
SWIDTH 600 0
DWIDTH 10 0
BBX 8 13 1 0
BITMAP
30
10
18
18
18
1C
3C
24
66
66
42
C3
C1
ENDCHAR
STARTCHAR 03BC
ENCODING 956
SWIDTH 600 0
DWIDTH 10 0
BBX 7 13 2 -3
BITMAP
86
86
86
86
86
86
86
86
CE
BE
80
80
80
ENDCHAR
STARTCHAR 03BD
ENCODING 957
SWIDTH 600 0
DWIDTH 10 0
BBX 8 10 1 0
BITMAP
C1
C3
42
62
66
26
34
3C
1C
18
ENDCHAR
STARTCHAR 03BE
ENCODING 958
SWIDTH 600 0
DWIDTH 10 0
BBX 8 17 1 -4
BITMAP
1E
77
63
40
60
60
1E
60
40
C0
40
70
3E
07
01
03
02
ENDCHAR
STARTCHAR 03BF
ENCODING 959
SWIDTH 600 0
DWIDTH 10 0
BBX 8 10 1 0
BITMAP
3C
66
43
C3
C3
C3
C3
43
66
3C
ENDCHAR
STARTCHAR 03C0
ENCODING 960
SWIDTH 600 0
DWIDTH 10 0
BBX 9 10 0 0
BITMAP
FF80
2300
2300
2300
2300
2300
2300
2300
2180
2180
ENDCHAR
STARTCHAR 03C1
ENCODING 961
SWIDTH 600 0
DWIDTH 10 0
BBX 7 13 2 -3
BITMAP
78
CC
86
86
86
86
86
86
EC
B8
80
80
80
ENDCHAR
STARTCHAR 03C2
ENCODING 962
SWIDTH 600 0
DWIDTH 10 0
BBX 7 13 2 -3
BITMAP
78
EC
86
80
80
80
80
C0
70
3C
04
04
0C
ENDCHAR
STARTCHAR 03C3
ENCODING 963
SWIDTH 600 0
DWIDTH 10 0
BBX 9 10 1 0
BITMAP
3F80
6400
4200
C300
C300
C300
C300
4200
6600
3C00
ENDCHAR
STARTCHAR 03C4
ENCODING 964
SWIDTH 600 0
DWIDTH 10 0
BBX 8 10 1 0
BITMAP
FF
10
10
10
10
10
10
10
18
0F
ENDCHAR
STARTCHAR 03C5
ENCODING 965
SWIDTH 600 0
DWIDTH 10 0
BBX 7 10 2 0
BITMAP
86
86
86
86
86
86
86
86
CC
78
ENDCHAR
STARTCHAR 03C6
ENCODING 966
SWIDTH 600 0
DWIDTH 10 0
BBX 8 13 1 -3
BITMAP
5E
DF
D9
99
99
99
99
D9
7F
3E
18
18
18
ENDCHAR
STARTCHAR 03C7
ENCODING 967
SWIDTH 600 0
DWIDTH 10 0
BBX 8 10 1 0
BITMAP
C3
66
26
3C
18
18
3C
66
62
C3
ENDCHAR
STARTCHAR 03C8
ENCODING 968
SWIDTH 600 0
DWIDTH 10 0
BBX 8 13 1 -3
BITMAP
99
99
99
99
99
99
99
D9
DB
7E
18
18
18
ENDCHAR
STARTCHAR 03C9
ENCODING 969
SWIDTH 600 0
DWIDTH 10 0
BBX 8 10 1 0
BITMAP
42
C3
81
99
99
99
99
99
DB
66
ENDCHAR
STARTCHAR 03CA
ENCODING 970
SWIDTH 600 0
DWIDTH 10 0
BBX 8 14 1 0
BITMAP
66
66
00
00
F8
18
18
18
18
18
18
18
0C
0F
ENDCHAR
STARTCHAR 03CB
ENCODING 971
SWIDTH 600 0
DWIDTH 10 0
BBX 7 14 2 0
BITMAP
CC
CC
00
00
86
86
86
86
86
86
86
86
CC
78
ENDCHAR
STARTCHAR 03CC
ENCODING 972
SWIDTH 600 0
DWIDTH 10 0
BBX 8 15 1 0
BITMAP
06
0C
18
00
00
3C
66
43
C3
C3
C3
C3
43
66
3C
ENDCHAR
STARTCHAR 03CD
ENCODING 973
SWIDTH 600 0
DWIDTH 10 0
BBX 7 15 2 0
BITMAP
0C
18
30
00
00
86
86
86
86
86
86
86
86
CC
78
ENDCHAR
STARTCHAR 03CE
ENCODING 974
SWIDTH 600 0
DWIDTH 10 0
BBX 8 15 1 0
BITMAP
04
0C
18
00
00
42
C3
81
99
99
99
99
99
DB
66
ENDCHAR
STARTCHAR 03CF
ENCODING 975
SWIDTH 600 0
DWIDTH 10 0
BBX 8 16 2 -3
BITMAP
86
86
8C
88
98
F0
98
98
8C
8C
84
86
83
03
07
0E
ENDCHAR
STARTCHAR 03D5
ENCODING 981
SWIDTH 600 0
DWIDTH 10 0
BBX 8 16 1 -3
BITMAP
18
18
18
7E
FF
D9
99
99
99
99
D9
FF
7E
18
18
18
ENDCHAR
STARTCHAR 03D6
ENCODING 982
SWIDTH 600 0
DWIDTH 10 0
BBX 10 10 0 0
BITMAP
FFC0
2100
4080
4080
4C80
4C80
4C80
4C80
6D80
3300
ENDCHAR
STARTCHAR 03D7
ENCODING 983
SWIDTH 600 0
DWIDTH 10 0
BBX 7 13 2 -3
BITMAP
86
8E
8E
96
96
B6
A6
E6
C6
C6
02
06
0C
ENDCHAR
STARTCHAR 0401
ENCODING 1025
SWIDTH 600 0
DWIDTH 10 0
BBX 7 17 2 0
BITMAP
CC
CC
00
00
FE
80
80
80
80
80
FC
80
80
80
80
80
FE
ENDCHAR
STARTCHAR 0402
ENCODING 1026
SWIDTH 600 0
DWIDTH 10 0
BBX 9 16 0 -3
BITMAP
F800
2000
2000
2000
2700
2980
3180
2080
2080
2080
2080
2080
2080
0180
0380
0F00
ENDCHAR
STARTCHAR 0403
ENCODING 1027
SWIDTH 600 0
DWIDTH 10 0
BBX 7 17 2 0
BITMAP
0C
08
30
00
FE
C0
C0
C0
C0
C0
C0
C0
C0
C0
C0
C0
C0
ENDCHAR
STARTCHAR 0404
ENCODING 1028
SWIDTH 600 0
DWIDTH 10 0
BBX 7 13 2 0
BITMAP
78
EC
86
80
80
F8
80
80
80
86
86
EC
78
ENDCHAR
STARTCHAR 0405
ENCODING 1029
SWIDTH 600 0
DWIDTH 10 0
BBX 8 13 1 0
BITMAP
3C
66
43
40
40
70
3E
03
03
C3
C3
66
3C
ENDCHAR
STARTCHAR 0406
ENCODING 1030
SWIDTH 600 0
DWIDTH 10 0
BBX 6 13 2 0
BITMAP
FC
30
30
30
30
30
30
30
30
30
30
30
FC
ENDCHAR
STARTCHAR 0407
ENCODING 1031
SWIDTH 600 0
DWIDTH 10 0
BBX 6 17 2 0
BITMAP
CC
CC
00
00
FC
30
30
30
30
30
30
30
30
30
30
30
FC
ENDCHAR
STARTCHAR 0408
ENCODING 1032
SWIDTH 600 0
DWIDTH 10 0
BBX 7 13 1 0
BITMAP
02
02
02
02
02
02
02
02
02
82
C2
EE
7C
ENDCHAR
STARTCHAR 0409
ENCODING 1033
SWIDTH 600 0
DWIDTH 10 0
BBX 10 13 0 0
BITMAP
7C00
6400
6400
6400
6400
6780
64C0
64C0
64C0
64C0
64C0
44C0
C780
ENDCHAR
STARTCHAR 040A
ENCODING 1034
SWIDTH 600 0
DWIDTH 10 0
BBX 9 13 1 0
BITMAP
8800
8800
8800
8800
8800
FF00
8980
8980
8980
8980
8980
8980
8F00
ENDCHAR
STARTCHAR 040B
ENCODING 1035
SWIDTH 600 0
DWIDTH 10 0
BBX 9 13 0 0
BITMAP
F800
2000
2000
2000
2700
2980
3180
2080
2080
2080
2080
2080
2080
ENDCHAR
STARTCHAR 040C
ENCODING 1036
SWIDTH 600 0
DWIDTH 10 0
BBX 8 17 2 0
BITMAP
0C
18
30
00
86
86
84
8C
88
98
F0
98
98
8C
8C
86
83
ENDCHAR
STARTCHAR 040E
ENCODING 1038
SWIDTH 600 0
DWIDTH 10 0
BBX 8 16 1 0
BITMAP
66
3C
00
C1
C3
42
62
26
24
34
1C
18
18
18
10
30
ENDCHAR
STARTCHAR 040F
ENCODING 1039
SWIDTH 600 0
DWIDTH 10 0
BBX 7 15 2 -2
BITMAP
86
86
86
86
86
86
86
86
86
86
86
86
FE
30
30
ENDCHAR
STARTCHAR 0410
ENCODING 1040
SWIDTH 600 0
DWIDTH 10 0
BBX 8 13 1 0
BITMAP
18
1C
3C
34
24
24
66
62
7E
42
C3
C3
C1
ENDCHAR
STARTCHAR 0411
ENCODING 1041
SWIDTH 600 0
DWIDTH 10 0
BBX 7 13 2 0
BITMAP
FE
80
80
80
80
F8
8C
86
86
86
86
8C
F8
ENDCHAR
STARTCHAR 0412
ENCODING 1042
SWIDTH 600 0
DWIDTH 10 0
BBX 7 13 2 0
BITMAP
F8
8C
86
86
86
8C
F8
8C
86
86
86
8E
F8
ENDCHAR
STARTCHAR 0413
ENCODING 1043
SWIDTH 600 0
DWIDTH 10 0
BBX 7 13 2 0
BITMAP
FE
C0
C0
C0
C0
C0
C0
C0
C0
C0
C0
C0
C0
ENDCHAR
STARTCHAR 0414
ENCODING 1044
SWIDTH 600 0
DWIDTH 10 0
BBX 10 16 0 -3
BITMAP
3F80
3180
3180
3180
3180
3180
3180
3180
3180
2180
2180
6180
FFC0
C0C0
C0C0
C0C0
ENDCHAR
STARTCHAR 0415
ENCODING 1045
SWIDTH 600 0
DWIDTH 10 0
BBX 7 13 2 0
BITMAP
FE
80
80
80
80
80
FC
80
80
80
80
80
FE
ENDCHAR
STARTCHAR 0416
ENCODING 1046
SWIDTH 600 0
DWIDTH 10 0
BBX 10 13 0 0
BITMAP
CCC0
4C80
6C80
6D80
2D00
3D00
3F00
3D00
2D00
6D80
6C80
4CC0
CCC0
ENDCHAR
STARTCHAR 0417
ENCODING 1047
SWIDTH 600 0
DWIDTH 10 0
BBX 8 13 1 0
BITMAP
3C
66
C3
03
06
3C
06
03
03
83
C3
66
3C
ENDCHAR
STARTCHAR 0418
ENCODING 1048
SWIDTH 600 0
DWIDTH 10 0
BBX 7 13 2 0
BITMAP
8E
8E
8E
9E
9E
96
B6
A6
A6
E6
C6
C6
C6
ENDCHAR
STARTCHAR 0419
ENCODING 1049
SWIDTH 600 0
DWIDTH 10 0
BBX 7 16 2 0
BITMAP
CC
78
00
8E
8E
8E
9E
9E
96
B6
A6
A6
E6
C6
C6
C6
ENDCHAR
STARTCHAR 041A
ENCODING 1050
SWIDTH 600 0
DWIDTH 10 0
BBX 8 13 2 0
BITMAP
86
86
84
8C
88
98
F0
98
98
8C
8C
86
83
ENDCHAR
STARTCHAR 041B
ENCODING 1051
SWIDTH 600 0
DWIDTH 10 0
BBX 9 13 0 0
BITMAP
3F80
3180
3180
3180
3180
3180
3180
3180
3180
3180
2180
6180
C180
ENDCHAR
STARTCHAR 041C
ENCODING 1052
SWIDTH 600 0
DWIDTH 10 0
BBX 8 13 1 0
BITMAP
E3
E5
E5
E5
DD
D9
D9
C3
C3
C3
C3
C3
C3
ENDCHAR
STARTCHAR 041D
ENCODING 1053
SWIDTH 600 0
DWIDTH 10 0
BBX 7 13 2 0
BITMAP
86
86
86
86
86
86
FE
86
86
86
86
86
86
ENDCHAR
STARTCHAR 041E
ENCODING 1054
SWIDTH 600 0
DWIDTH 10 0
BBX 8 13 1 0
BITMAP
3C
66
43
43
C3
C3
C3
C3
C3
43
43
66
3C
ENDCHAR
STARTCHAR 041F
ENCODING 1055
SWIDTH 600 0
DWIDTH 10 0
BBX 7 13 2 0
BITMAP
FE
86
86
86
86
86
86
86
86
86
86
86
86
ENDCHAR
STARTCHAR 0420
ENCODING 1056
SWIDTH 600 0
DWIDTH 10 0
BBX 7 13 2 0
BITMAP
FC
8E
82
82
82
86
FC
80
80
80
80
80
80
ENDCHAR
STARTCHAR 0421
ENCODING 1057
SWIDTH 600 0
DWIDTH 10 0
BBX 7 13 2 0
BITMAP
78
EC
86
86
80
80
80
80
80
86
86
EC
78
ENDCHAR
STARTCHAR 0422
ENCODING 1058
SWIDTH 600 0
DWIDTH 10 0
BBX 8 13 1 0
BITMAP
FF
18
18
18
18
18
18
18
18
18
18
18
18
ENDCHAR
STARTCHAR 0423
ENCODING 1059
SWIDTH 600 0
DWIDTH 10 0
BBX 8 13 1 0
BITMAP
C1
C3
42
62
26
24
34
1C
18
18
18
10
30
ENDCHAR
STARTCHAR 0424
ENCODING 1060
SWIDTH 600 0
DWIDTH 10 0
BBX 8 15 1 -1
BITMAP
18
18
7E
DB
99
99
99
99
99
99
99
DB
7E
18
18
ENDCHAR
STARTCHAR 0425
ENCODING 1061
SWIDTH 600 0
DWIDTH 10 0
BBX 9 13 1 0
BITMAP
C300
4300
6600
2400
3C00
1800
1800
1C00
3C00
2600
6600
4300
C180
ENDCHAR
STARTCHAR 0426
ENCODING 1062
SWIDTH 600 0
DWIDTH 10 0
BBX 8 16 2 -3
BITMAP
84
84
84
84
84
84
84
84
84
84
84
84
FF
03
03
03
ENDCHAR
STARTCHAR 0427
ENCODING 1063
SWIDTH 600 0
DWIDTH 10 0
BBX 8 13 1 0
BITMAP
C3
C3
C3
C3
C3
C3
43
7F
03
03
03
03
03
ENDCHAR
STARTCHAR 0428
ENCODING 1064
SWIDTH 600 0
DWIDTH 10 0
BBX 8 13 1 0
BITMAP
99
99
99
99
99
99
99
99
99
99
99
99
FF
ENDCHAR
STARTCHAR 0429
ENCODING 1065
SWIDTH 600 0
DWIDTH 10 0
BBX 9 16 1 -3
BITMAP
9900
9900
9900
9900
9900
9900
9900
9900
9900
9900
9900
9900
FF80
0080
0080
0080
ENDCHAR
STARTCHAR 042A
ENCODING 1066
SWIDTH 600 0
DWIDTH 10 0
BBX 9 13 0 0
BITMAP
F000
3000
3000
3000
3000
3F00
3380
3180
3080
3080
3180
3380
3F00
ENDCHAR
STARTCHAR 042B
ENCODING 1067
SWIDTH 600 0
DWIDTH 10 0
BBX 8 13 1 0
BITMAP
81
81
81
81
81
F1
99
89
8D
8D
89
99
F1
ENDCHAR
STARTCHAR 042C
ENCODING 1068
SWIDTH 600 0
DWIDTH 10 0
BBX 7 13 2 0
BITMAP
80
80
80
80
80
FC
8E
86
82
82
86
8E
FC
ENDCHAR
STARTCHAR 042D
ENCODING 1069
SWIDTH 600 0
DWIDTH 10 0
BBX 8 13 1 0
BITMAP
3C
66
C3
03
03
3F
03
03
03
C3
43
66
3C
ENDCHAR
STARTCHAR 042E
ENCODING 1070
SWIDTH 600 0
DWIDTH 10 0
BBX 9 13 1 0
BITMAP
8F00
9B00
9180
9180
9180
9180
F180
9180
9180
9180
9180
9B00
8E00
ENDCHAR
STARTCHAR 042F
ENCODING 1071
SWIDTH 600 0
DWIDTH 10 0
BBX 8 13 1 0
BITMAP
3F
63
C3
C3
C3
63
7F
33
33
63
63
43
C3
ENDCHAR
STARTCHAR 0430
ENCODING 1072
SWIDTH 600 0
DWIDTH 10 0
BBX 8 10 1 0
BITMAP
3C
66
43
03
7F
E3
C3
C3
6F
7B
ENDCHAR
STARTCHAR 0431
ENCODING 1073
SWIDTH 600 0
DWIDTH 10 0
BBX 8 13 1 0
BITMAP
1E
7E
60
40
DC
E6
C3
C3
C3
C3
43
66
3C
ENDCHAR
STARTCHAR 0432
ENCODING 1074
SWIDTH 600 0
DWIDTH 10 0
BBX 7 10 2 0
BITMAP
FC
8E
86
84
F8
86
86
86
8E
FC
ENDCHAR
STARTCHAR 0433
ENCODING 1075
SWIDTH 600 0
DWIDTH 10 0
BBX 7 10 2 0
BITMAP
FE
C0
C0
C0
C0
C0
C0
C0
C0
C0
ENDCHAR
STARTCHAR 0434
ENCODING 1076
SWIDTH 600 0
DWIDTH 10 0
BBX 10 13 0 -3
BITMAP
3F00
3100
3100
3100
3100
3100
2100
2100
6100
FFC0
C0C0
C0C0
C0C0
ENDCHAR
STARTCHAR 0435
ENCODING 1077
SWIDTH 600 0
DWIDTH 10 0
BBX 8 10 1 0
BITMAP
3C
66
43
C3
FF
C0
C0
43
66
3C
ENDCHAR
STARTCHAR 0436
ENCODING 1078
SWIDTH 600 0
DWIDTH 10 0
BBX 10 10 0 0
BITMAP
CCC0
6C80
6D80
2D00
3F00
2D00
2D80
6D80
4C80
CCC0
ENDCHAR
STARTCHAR 0437
ENCODING 1079
SWIDTH 600 0
DWIDTH 10 0
BBX 8 10 1 0
BITMAP
3E
67
83
02
3C
07
03
C3
67
7E
ENDCHAR
STARTCHAR 0438
ENCODING 1080
SWIDTH 600 0
DWIDTH 10 0
BBX 7 10 2 0
BITMAP
86
8E
8E
96
96
B6
A6
E6
C6
C6
ENDCHAR
STARTCHAR 0439
ENCODING 1081
SWIDTH 600 0
DWIDTH 10 0
BBX 7 14 2 0
BITMAP
CC
78
00
00
86
8E
8E
96
96
B6
A6
E6
C6
C6
ENDCHAR
STARTCHAR 043A
ENCODING 1082
SWIDTH 600 0
DWIDTH 10 0
BBX 8 10 2 0
BITMAP
86
84
8C
98
F0
98
8C
8C
86
83
ENDCHAR
STARTCHAR 043B
ENCODING 1083
SWIDTH 600 0
DWIDTH 10 0
BBX 9 10 0 0
BITMAP
3F80
3180
3180
3180
3180
3180
3180
2180
6180
C180
ENDCHAR
STARTCHAR 043C
ENCODING 1084
SWIDTH 600 0
DWIDTH 10 0
BBX 8 10 1 0
BITMAP
C3
E5
E5
F5
D9
D9
C1
C1
C1
C1
ENDCHAR
STARTCHAR 043D
ENCODING 1085
SWIDTH 600 0
DWIDTH 10 0
BBX 7 10 2 0
BITMAP
86
86
86
86
FE
86
86
86
86
86
ENDCHAR
STARTCHAR 043E
ENCODING 1086
SWIDTH 600 0
DWIDTH 10 0
BBX 8 10 1 0
BITMAP
3C
66
43
C3
C3
C3
C3
43
66
3C
ENDCHAR
STARTCHAR 043F
ENCODING 1087
SWIDTH 600 0
DWIDTH 10 0
BBX 7 10 2 0
BITMAP
FE
86
86
86
86
86
86
86
86
86
ENDCHAR
STARTCHAR 0440
ENCODING 1088
SWIDTH 600 0
DWIDTH 10 0
BBX 7 13 2 -3
BITMAP
B8
EC
86
86
86
86
86
86
EC
B8
80
80
80
ENDCHAR
STARTCHAR 0441
ENCODING 1089
SWIDTH 600 0
DWIDTH 10 0
BBX 8 10 1 0
BITMAP
3C
76
43
40
C0
C0
40
43
76
3C
ENDCHAR
STARTCHAR 0442
ENCODING 1090
SWIDTH 600 0
DWIDTH 10 0
BBX 8 10 1 0
BITMAP
FF
18
18
18
18
18
18
18
18
18
ENDCHAR
STARTCHAR 0443
ENCODING 1091
SWIDTH 600 0
DWIDTH 10 0
BBX 8 13 1 -3
BITMAP
C1
C3
42
66
26
34
3C
1C
18
18
18
10
30
ENDCHAR
STARTCHAR 0444
ENCODING 1092
SWIDTH 600 0
DWIDTH 10 0
BBX 8 16 1 -3
BITMAP
18
18
18
7E
FF
D9
99
99
99
99
D9
FF
7E
18
18
18
ENDCHAR
STARTCHAR 0445
ENCODING 1093
SWIDTH 600 0
DWIDTH 10 0
BBX 8 10 1 0
BITMAP
C3
66
26
3C
18
18
3C
66
62
C3
ENDCHAR
STARTCHAR 0446
ENCODING 1094
SWIDTH 600 0
DWIDTH 10 0
BBX 8 13 2 -3
BITMAP
84
84
84
84
84
84
84
84
84
FF
03
03
03
ENDCHAR
STARTCHAR 0447
ENCODING 1095
SWIDTH 600 0
DWIDTH 10 0
BBX 8 10 1 0
BITMAP
C3
C3
C3
C3
43
7F
03
03
03
03
ENDCHAR
STARTCHAR 0448
ENCODING 1096
SWIDTH 600 0
DWIDTH 10 0
BBX 8 10 1 0
BITMAP
99
99
99
99
99
99
99
99
99
FF
ENDCHAR
STARTCHAR 0449
ENCODING 1097
SWIDTH 600 0
DWIDTH 10 0
BBX 9 13 1 -3
BITMAP
9900
9900
9900
9900
9900
9900
9900
9900
9900
FF80
0080
0080
0080
ENDCHAR
STARTCHAR 044A
ENCODING 1098
SWIDTH 600 0
DWIDTH 10 0
BBX 10 10 0 0
BITMAP
F000
1000
1000
1000
1F80
1180
10C0
10C0
1180
1F00
ENDCHAR
STARTCHAR 044B
ENCODING 1099
SWIDTH 600 0
DWIDTH 10 0
BBX 8 10 1 0
BITMAP
81
81
81
81
F1
89
8D
8D
99
F1
ENDCHAR
STARTCHAR 044C
ENCODING 1100
SWIDTH 600 0
DWIDTH 10 0
BBX 7 10 2 0
BITMAP
80
80
80
80
FC
86
82
82
86
FC
ENDCHAR
STARTCHAR 044D
ENCODING 1101
SWIDTH 600 0
DWIDTH 10 0
BBX 8 10 1 0
BITMAP
3C
66
C3
03
1F
03
03
C3
66
3C
ENDCHAR
STARTCHAR 044E
ENCODING 1102
SWIDTH 600 0
DWIDTH 10 0
BBX 9 10 1 0
BITMAP
8E00
9B00
9100
9180
F180
9180
9180
9100
9B00
8E00
ENDCHAR
STARTCHAR 044F
ENCODING 1103
SWIDTH 600 0
DWIDTH 10 0
BBX 8 10 1 0
BITMAP
3F
63
C3
C3
43
7F
33
23
63
C3
ENDCHAR
STARTCHAR 0451
ENCODING 1105
SWIDTH 600 0
DWIDTH 10 0
BBX 8 14 1 0
BITMAP
66
66
00
00
3C
66
43
C3
FF
C0
C0
43
66
3C
ENDCHAR
STARTCHAR 0452
ENCODING 1106
SWIDTH 600 0
DWIDTH 10 0
BBX 9 16 0 -3
BITMAP
2000
FC00
2000
2000
2F00
3300
2180
2180
2180
2180
2180
2180
2180
0100
0300
0E00
ENDCHAR
STARTCHAR 0453
ENCODING 1107
SWIDTH 600 0
DWIDTH 10 0
BBX 7 15 2 0
BITMAP
0C
08
18
00
00
FE
C0
C0
C0
C0
C0
C0
C0
C0
C0
ENDCHAR
STARTCHAR 0454
ENCODING 1108
SWIDTH 600 0
DWIDTH 10 0
BBX 8 10 1 0
BITMAP
3C
66
43
C0
F8
C0
C0
43
76
3C
ENDCHAR
STARTCHAR 0455
ENCODING 1109
SWIDTH 600 0
DWIDTH 10 0
BBX 8 10 1 0
BITMAP
3C
66
43
40
7C
0E
03
C3
66
3E
ENDCHAR
STARTCHAR 0456
ENCODING 1110
SWIDTH 600 0
DWIDTH 10 0
BBX 8 14 1 0
BITMAP
1C
18
00
00
78
08
08
08
08
08
08
08
08
FF
ENDCHAR
STARTCHAR 0457
ENCODING 1111
SWIDTH 600 0
DWIDTH 10 0
BBX 8 14 1 0
BITMAP
76
26
00
00
78
08
08
08
08
08
08
08
08
FF
ENDCHAR
STARTCHAR 0458
ENCODING 1112
SWIDTH 600 0
DWIDTH 10 0
BBX 7 17 1 -3
BITMAP
0E
0E
00
00
FC
04
04
04
04
04
04
04
04
04
04
1C
78
ENDCHAR
STARTCHAR 0459
ENCODING 1113
SWIDTH 600 0
DWIDTH 10 0
BBX 10 10 0 0
BITMAP
7C00
6400
6400
6400
6780
64C0
64C0
64C0
44C0
C780
ENDCHAR
STARTCHAR 045A
ENCODING 1114
SWIDTH 600 0
DWIDTH 10 0
BBX 9 10 1 0
BITMAP
8800
8800
8800
8800
FF00
8980
8980
8980
8980
8F00
ENDCHAR
STARTCHAR 045B
ENCODING 1115
SWIDTH 600 0
DWIDTH 10 0
BBX 9 13 0 0
BITMAP
2000
2000
FC00
2000
2F00
3300
2180
2180
2180
2180
2180
2180
2180
ENDCHAR
STARTCHAR 045C
ENCODING 1116
SWIDTH 600 0
DWIDTH 10 0
BBX 8 15 2 0
BITMAP
0C
18
30
00
00
86
84
8C
98
F0
98
8C
8C
86
83
ENDCHAR
STARTCHAR 045E
ENCODING 1118
SWIDTH 600 0
DWIDTH 10 0
BBX 8 17 1 -3
BITMAP
66
3C
00
00
C1
C3
42
66
26
34
3C
1C
18
18
18
10
30
ENDCHAR
STARTCHAR 045F
ENCODING 1119
SWIDTH 600 0
DWIDTH 10 0
BBX 7 12 2 -2
BITMAP
86
86
86
86
86
86
86
86
86
FE
30
30
ENDCHAR
STARTCHAR 0490
ENCODING 1168
SWIDTH 600 0
DWIDTH 10 0
BBX 7 15 2 0
BITMAP
02
02
FE
C0
C0
C0
C0
C0
C0
C0
C0
C0
C0
C0
C0
ENDCHAR
STARTCHAR 0491
ENCODING 1169
SWIDTH 600 0
DWIDTH 10 0
BBX 7 12 2 0
BITMAP
06
06
FE
C0
C0
C0
C0
C0
C0
C0
C0
C0
ENDCHAR
STARTCHAR 0492
ENCODING 1170
SWIDTH 600 0
DWIDTH 10 0
BBX 8 13 1 0
BITMAP
7F
60
60
60
60
60
F8
60
60
60
60
60
60
ENDCHAR
STARTCHAR 0493
ENCODING 1171
SWIDTH 600 0
DWIDTH 10 0
BBX 8 10 1 0
BITMAP
3F
20
20
20
FC
20
20
20
20
20
ENDCHAR
STARTCHAR 049A
ENCODING 1178
SWIDTH 600 0
DWIDTH 10 0
BBX 9 16 1 -3
BITMAP
C300
C200
C600
C600
CC00
CC00
F800
CC00
CC00
C400
C600
C200
C380
0080
0080
0080
ENDCHAR
STARTCHAR 049B
ENCODING 1179
SWIDTH 600 0
DWIDTH 10 0
BBX 8 13 2 -3
BITMAP
86
8C
88
98
F0
98
98
8C
84
87
03
03
03
ENDCHAR
STARTCHAR 04A2
ENCODING 1186
SWIDTH 600 0
DWIDTH 10 0
BBX 7 16 2 -3
BITMAP
86
86
86
86
86
86
FE
86
86
86
86
86
86
02
02
02
ENDCHAR
STARTCHAR 04A3
ENCODING 1187
SWIDTH 600 0
DWIDTH 10 0
BBX 7 13 2 -3
BITMAP
86
86
86
86
FE
86
86
86
86
86
02
02
02
ENDCHAR
STARTCHAR 04AE
ENCODING 1198
SWIDTH 600 0
DWIDTH 10 0
BBX 9 13 1 0
BITMAP
8180
C300
4200
6600
2600
3400
1C00
1800
1800
1800
1800
1800
1800
ENDCHAR
STARTCHAR 04AF
ENCODING 1199
SWIDTH 600 0
DWIDTH 10 0
BBX 8 13 1 -3
BITMAP
C3
43
42
62
26
24
34
1C
18
18
18
18
18
ENDCHAR
STARTCHAR 04B0
ENCODING 1200
SWIDTH 600 0
DWIDTH 10 0
BBX 9 13 1 0
BITMAP
8180
C300
4200
6600
2400
3C00
1C00
1800
7E00
1800
1800
1800
1800
ENDCHAR
STARTCHAR 04B1
ENCODING 1201
SWIDTH 600 0
DWIDTH 10 0
BBX 8 13 1 -3
BITMAP
C3
43
42
62
26
24
34
1C
18
18
7E
18
18
ENDCHAR
STARTCHAR 04B6
ENCODING 1206
SWIDTH 600 0
DWIDTH 10 0
BBX 8 16 1 -3
BITMAP
C2
C2
C2
C2
C2
C2
C2
7E
02
02
02
02
03
01
01
01
ENDCHAR
STARTCHAR 04B7
ENCODING 1207
SWIDTH 600 0
DWIDTH 10 0
BBX 8 13 1 -3
BITMAP
C2
C2
C2
C2
C2
7E
02
02
02
03
01
01
01
ENDCHAR
STARTCHAR 04BA
ENCODING 1210
SWIDTH 600 0
DWIDTH 10 0
BBX 7 13 2 0
BITMAP
80
80
80
80
80
FC
8E
86
86
86
86
86
86
ENDCHAR
STARTCHAR 04BB
ENCODING 1211
SWIDTH 600 0
DWIDTH 10 0
BBX 7 10 2 0
BITMAP
80
80
80
80
FC
86
86
86
86
86
ENDCHAR
STARTCHAR 04D8
ENCODING 1240
SWIDTH 600 0
DWIDTH 10 0
BBX 8 13 1 0
BITMAP
3C
66
43
C3
03
03
FF
C3
C3
C3
43
66
3C
ENDCHAR
STARTCHAR 04D9
ENCODING 1241
SWIDTH 600 0
DWIDTH 10 0
BBX 8 10 1 0
BITMAP
3C
66
C3
03
03
FF
C3
43
66
3C
ENDCHAR
STARTCHAR 04DC
ENCODING 1244
SWIDTH 600 0
DWIDTH 10 0
BBX 10 17 0 0
BITMAP
3300
3300
0000
0000
CCC0
4C80
6C80
6D80
2D00
3D00
3F00
3D00
2D00
6D80
6C80
4CC0
CCC0
ENDCHAR
STARTCHAR 04DD
ENCODING 1245
SWIDTH 600 0
DWIDTH 10 0
BBX 10 14 0 0
BITMAP
3300
3300
0000
0000
CCC0
6C80
6D80
2D00
3F00
2D00
2D80
6D80
4C80
CCC0
ENDCHAR
STARTCHAR 04DE
ENCODING 1246
SWIDTH 600 0
DWIDTH 10 0
BBX 8 17 1 0
BITMAP
66
66
00
00
3C
66
C3
03
06
3C
06
03
03
83
C3
66
3C
ENDCHAR
STARTCHAR 04DF
ENCODING 1247
SWIDTH 600 0
DWIDTH 10 0
BBX 8 14 1 0
BITMAP
66
66
00
00
3E
67
83
02
3C
07
03
C3
67
7E
ENDCHAR
STARTCHAR 04E4
ENCODING 1252
SWIDTH 600 0
DWIDTH 10 0
BBX 7 17 2 0
BITMAP
CC
CC
00
00
8E
8E
8E
9E
9E
96
B6
A6
A6
E6
C6
C6
C6
ENDCHAR
STARTCHAR 04E5
ENCODING 1253
SWIDTH 600 0
DWIDTH 10 0
BBX 7 14 2 0
BITMAP
CC
CC
00
00
86
8E
8E
96
96
B6
A6
E6
C6
C6
ENDCHAR
STARTCHAR 04E6
ENCODING 1254
SWIDTH 600 0
DWIDTH 10 0
BBX 8 17 1 0
BITMAP
66
66
00
00
3C
66
43
43
C3
C3
C3
C3
C3
43
43
66
3C
ENDCHAR
STARTCHAR 04E7
ENCODING 1255
SWIDTH 600 0
DWIDTH 10 0
BBX 8 14 1 0
BITMAP
66
66
00
00
3C
66
43
C3
C3
C3
C3
43
66
3C
ENDCHAR
STARTCHAR 04E8
ENCODING 1256
SWIDTH 600 0
DWIDTH 10 0
BBX 7 13 2 0
BITMAP
78
CC
86
86
86
86
FE
86
86
86
86
CC
78
ENDCHAR
STARTCHAR 04E9
ENCODING 1257
SWIDTH 600 0
DWIDTH 10 0
BBX 7 10 2 0
BITMAP
78
CC
86
86
FE
86
86
86
CC
78
ENDCHAR
STARTCHAR 04F4
ENCODING 1268
SWIDTH 600 0
DWIDTH 10 0
BBX 8 17 1 0
BITMAP
66
66
00
00
C3
C3
C3
C3
C3
C3
43
7F
03
03
03
03
03
ENDCHAR
STARTCHAR 04F5
ENCODING 1269
SWIDTH 600 0
DWIDTH 10 0
BBX 8 14 1 0
BITMAP
66
66
00
00
C3
C3
C3
C3
43
7F
03
03
03
03
ENDCHAR
STARTCHAR 0AEA
ENCODING 2794
SWIDTH 600 0
DWIDTH 10 0
BBX 8 11 1 0
BITMAP
C3
66
3C
18
3C
26
42
C3
C3
63
3E
ENDCHAR
STARTCHAR 1E80
ENCODING 7808
SWIDTH 600 0
DWIDTH 10 0
BBX 10 17 0 0
BITMAP
1000
1800
0C00
0000
CCC0
4CC0
4CC0
4C80
4E80
4A80
5A80
7280
7280
7380
3380
3380
3300
ENDCHAR
STARTCHAR 1E81
ENCODING 7809
SWIDTH 600 0
DWIDTH 10 0
BBX 9 15 1 0
BITMAP
2000
3000
1800
0000
0000
9980
9900
9900
9900
9500
E500
6500
6600
6600
6600
ENDCHAR
STARTCHAR 1E82
ENCODING 7810
SWIDTH 600 0
DWIDTH 10 0
BBX 10 17 0 0
BITMAP
0300
0600
0C00
0000
CCC0
4CC0
4CC0
4C80
4E80
4A80
5A80
7280
7280
7380
3380
3380
3300
ENDCHAR
STARTCHAR 1E83
ENCODING 7811
SWIDTH 600 0
DWIDTH 10 0
BBX 9 15 1 0
BITMAP
0600
0C00
1800
0000
0000
9980
9900
9900
9900
9500
E500
6500
6600
6600
6600
ENDCHAR
STARTCHAR 1E84
ENCODING 7812
SWIDTH 600 0
DWIDTH 10 0
BBX 10 17 0 0
BITMAP
3300
3300
0000
0000
CCC0
4CC0
4CC0
4C80
4E80
4A80
5A80
7280
7280
7380
3380
3380
3300
ENDCHAR
STARTCHAR 1E85
ENCODING 7813
SWIDTH 600 0
DWIDTH 10 0
BBX 9 14 1 0
BITMAP
6600
6600
0000
0000
9980
9900
9900
9900
9500
E500
6500
6600
6600
6600
ENDCHAR
STARTCHAR 1E9E
ENCODING 7838
SWIDTH 600 0
DWIDTH 10 0
BBX 7 13 2 0
BITMAP
7E
E6
84
8C
98
90
9C
8E
86
82
86
8E
BC
ENDCHAR
STARTCHAR 1EA0
ENCODING 7840
SWIDTH 600 0
DWIDTH 10 0
BBX 8 17 1 -4
BITMAP
18
1C
3C
34
24
24
66
62
7E
42
C3
C3
C1
00
00
18
18
ENDCHAR
STARTCHAR 1EA1
ENCODING 7841
SWIDTH 600 0
DWIDTH 10 0
BBX 8 14 1 -4
BITMAP
3C
66
43
03
7F
E3
C3
C3
6F
7B
00
00
18
18
ENDCHAR
STARTCHAR 1EA2
ENCODING 7842
SWIDTH 600 0
DWIDTH 10 0
BBX 8 18 1 0
BITMAP
18
0C
08
10
00
18
1C
3C
34
24
24
66
62
7E
42
C3
C3
C1
ENDCHAR
STARTCHAR 1EA3
ENCODING 7843
SWIDTH 600 0
DWIDTH 10 0
BBX 8 15 1 0
BITMAP
1C
04
08
10
00
3C
66
43
03
7F
E3
C3
C3
6F
7B
ENDCHAR
STARTCHAR 1EA4
ENCODING 7844
SWIDTH 600 0
DWIDTH 10 0
BBX 9 19 1 0
BITMAP
0080
0180
1B00
3C00
6600
0000
1800
1C00
3C00
3400
2400
2400
6600
6200
7E00
4200
C300
C300
C100
ENDCHAR
STARTCHAR 1EA5
ENCODING 7845
SWIDTH 600 0
DWIDTH 10 0
BBX 10 17 1 0
BITMAP
00C0
0180
1B00
1C00
6600
0000
0000
3C00
6600
4300
0300
7F00
E300
C300
C300
6F00
7B00
ENDCHAR
STARTCHAR 1EA6
ENCODING 7846
SWIDTH 600 0
DWIDTH 10 0
BBX 8 18 1 0
BITMAP
06
03
1C
66
00
18
1C
3C
34
24
24
66
62
7E
42
C3
C3
C1
ENDCHAR
STARTCHAR 1EA7
ENCODING 7847
SWIDTH 600 0
DWIDTH 10 0
BBX 8 17 1 0
BITMAP
06
02
19
3C
66
00
00
3C
66
43
03
7F
E3
C3
C3
6F
7B
ENDCHAR
STARTCHAR 1EA8
ENCODING 7848
SWIDTH 600 0
DWIDTH 10 0
BBX 8 18 1 0
BITMAP
03
01
1B
36
40
18
1C
3C
34
24
24
66
62
7E
42
C3
C3
C1
ENDCHAR
STARTCHAR 1EA9
ENCODING 7849
SWIDTH 600 0
DWIDTH 10 0
BBX 8 17 1 0
BITMAP
03
01
01
1E
36
40
00
3C
66
43
03
7F
E3
C3
C3
6F
7B
ENDCHAR
STARTCHAR 1EAA
ENCODING 7850
SWIDTH 600 0
DWIDTH 10 0
BBX 8 18 1 0
BITMAP
32
6E
00
3C
66
18
1C
3C
34
24
24
66
62
7E
42
C3
C3
C1
ENDCHAR
STARTCHAR 1EAB
ENCODING 7851
SWIDTH 600 0
DWIDTH 10 0
BBX 8 16 1 0
BITMAP
32
6C
18
3C
66
00
3C
66
43
03
7F
E3
C3
C3
6F
7B
ENDCHAR
STARTCHAR 1EAC
ENCODING 7852
SWIDTH 600 0
DWIDTH 10 0
BBX 8 21 1 -4
BITMAP
18
3C
66
00
18
1C
3C
34
24
24
66
62
7E
42
C3
C3
C1
00
00
18
18
ENDCHAR
STARTCHAR 1EAD
ENCODING 7853
SWIDTH 600 0
DWIDTH 10 0
BBX 8 19 1 -4
BITMAP
18
1C
66
00
00
3C
66
43
03
7F
E3
C3
C3
6F
7B
00
00
18
18
ENDCHAR
STARTCHAR 1EAE
ENCODING 7854
SWIDTH 600 0
DWIDTH 10 0
BBX 8 18 1 0
BITMAP
0C
18
62
3C
00
18
1C
3C
34
24
24
66
62
7E
42
C3
C3
C1
ENDCHAR
STARTCHAR 1EAF
ENCODING 7855
SWIDTH 600 0
DWIDTH 10 0
BBX 8 16 1 0
BITMAP
0E
18
62
3C
00
00
3C
66
43
03
7F
E3
C3
C3
6F
7B
ENDCHAR
STARTCHAR 1EB0
ENCODING 7856
SWIDTH 600 0
DWIDTH 10 0
BBX 8 18 1 0
BITMAP
30
18
62
3C
00
18
1C
3C
34
24
24
66
62
7E
42
C3
C3
C1
ENDCHAR
STARTCHAR 1EB1
ENCODING 7857
SWIDTH 600 0
DWIDTH 10 0
BBX 8 16 1 0
BITMAP
30
18
62
3C
00
00
3C
66
43
03
7F
E3
C3
C3
6F
7B
ENDCHAR
STARTCHAR 1EB2
ENCODING 7858
SWIDTH 600 0
DWIDTH 10 0
BBX 8 18 1 0
BITMAP
18
08
72
3C
00
18
1C
3C
34
24
24
66
62
7E
42
C3
C3
C1
ENDCHAR
STARTCHAR 1EB3
ENCODING 7859
SWIDTH 600 0
DWIDTH 10 0
BBX 8 17 1 0
BITMAP
18
0C
18
62
3C
00
00
3C
66
43
03
7F
E3
C3
C3
6F
7B
ENDCHAR
STARTCHAR 1EB4
ENCODING 7860
SWIDTH 600 0
DWIDTH 10 0
BBX 8 18 1 0
BITMAP
32
4C
62
3E
00
18
1C
3C
34
24
24
66
62
7E
42
C3
C3
C1
ENDCHAR
STARTCHAR 1EB5
ENCODING 7861
SWIDTH 600 0
DWIDTH 10 0
BBX 8 17 1 0
BITMAP
32
6C
40
26
3C
00
00
3C
66
43
03
7F
E3
C3
C3
6F
7B
ENDCHAR
STARTCHAR 1EB6
ENCODING 7862
SWIDTH 600 0
DWIDTH 10 0
BBX 8 20 1 -4
BITMAP
66
3C
00
18
1C
3C
34
24
24
66
62
7E
42
C3
C3
C1
00
00
18
18
ENDCHAR
STARTCHAR 1EB7
ENCODING 7863
SWIDTH 600 0
DWIDTH 10 0
BBX 8 18 1 -4
BITMAP
66
3C
00
00
3C
66
43
03
7F
E3
C3
C3
6F
7B
00
00
18
18
ENDCHAR
STARTCHAR 1EB8
ENCODING 7864
SWIDTH 600 0
DWIDTH 10 0
BBX 7 17 2 -4
BITMAP
FE
80
80
80
80
80
FC
80
80
80
80
80
FE
00
00
30
30
ENDCHAR
STARTCHAR 1EB9
ENCODING 7865
SWIDTH 600 0
DWIDTH 10 0
BBX 8 14 1 -4
BITMAP
3C
66
43
C3
FF
C0
C0
43
66
3C
00
00
18
18
ENDCHAR
STARTCHAR 1EBA
ENCODING 7866
SWIDTH 600 0
DWIDTH 10 0
BBX 7 18 2 0
BITMAP
38
08
10
00
00
FE
80
80
80
80
80
FC
80
80
80
80
80
FE
ENDCHAR
STARTCHAR 1EBB
ENCODING 7867
SWIDTH 600 0
DWIDTH 10 0
BBX 8 15 1 0
BITMAP
1C
0C
08
10
00
3C
66
43
C3
FF
C0
C0
43
66
3C
ENDCHAR
STARTCHAR 1EBC
ENCODING 7868
SWIDTH 600 0
DWIDTH 10 0
BBX 7 17 2 0
BITMAP
64
5C
00
00
FE
80
80
80
80
80
FC
80
80
80
80
80
FE
ENDCHAR
STARTCHAR 1EBD
ENCODING 7869
SWIDTH 600 0
DWIDTH 10 0
BBX 8 14 1 0
BITMAP
32
4E
00
00
3C
66
43
C3
FF
C0
C0
43
66
3C
ENDCHAR
STARTCHAR 1EBE
ENCODING 7870
SWIDTH 600 0
DWIDTH 10 0
BBX 9 19 2 0
BITMAP
0180
0300
1600
3800
CC00
0000
FE00
8000
8000
8000
8000
8000
FC00
8000
8000
8000
8000
8000
FE00
ENDCHAR
STARTCHAR 1EBF
ENCODING 7871
SWIDTH 600 0
DWIDTH 10 0
BBX 10 17 1 0
BITMAP
00C0
0180
1B00
3C00
6600
0000
0000
3C00
6600
4300
C300
FF00
C000
C000
4300
6600
3C00
ENDCHAR
STARTCHAR 1EC0
ENCODING 7872
SWIDTH 600 0
DWIDTH 10 0
BBX 7 18 2 0
BITMAP
0C
06
38
CC
00
FE
80
80
80
80
80
FC
80
80
80
80
80
FE
ENDCHAR
STARTCHAR 1EC1
ENCODING 7873
SWIDTH 600 0
DWIDTH 10 0
BBX 8 17 1 0
BITMAP
0E
02
1B
3C
66
00
00
3C
66
43
C3
FF
C0
C0
43
66
3C
ENDCHAR
STARTCHAR 1EC2
ENCODING 7874
SWIDTH 600 0
DWIDTH 10 0
BBX 8 18 2 0
BITMAP
06
03
3E
6C
80
FE
80
80
80
80
80
FC
80
80
80
80
80
FE
ENDCHAR
STARTCHAR 1EC3
ENCODING 7875
SWIDTH 600 0
DWIDTH 10 0
BBX 8 17 1 0
BITMAP
03
01
01
1A
36
40
00
3C
66
43
C3
FF
C0
C0
43
66
3C
ENDCHAR
STARTCHAR 1EC4
ENCODING 7876
SWIDTH 600 0
DWIDTH 10 0
BBX 7 18 2 0
BITMAP
74
DC
00
38
4C
FE
80
80
80
80
80
FC
80
80
80
80
80
FE
ENDCHAR
STARTCHAR 1EC5
ENCODING 7877
SWIDTH 600 0
DWIDTH 10 0
BBX 8 16 1 0
BITMAP
32
4C
18
3C
66
00
3C
66
43
C3
FF
C0
C0
43
66
3C
ENDCHAR
STARTCHAR 1EC6
ENCODING 7878
SWIDTH 600 0
DWIDTH 10 0
BBX 7 21 2 -4
BITMAP
10
38
CC
00
FE
80
80
80
80
80
FC
80
80
80
80
80
FE
00
00
30
30
ENDCHAR
STARTCHAR 1EC7
ENCODING 7879
SWIDTH 600 0
DWIDTH 10 0
BBX 8 19 1 -4
BITMAP
18
3C
66
00
00
3C
66
43
C3
FF
C0
C0
43
66
3C
00
00
18
18
ENDCHAR
STARTCHAR 1EC8
ENCODING 7880
SWIDTH 600 0
DWIDTH 10 0
BBX 6 18 2 0
BITMAP
30
18
10
20
00
FC
30
30
30
30
30
30
30
30
30
30
30
FC
ENDCHAR
STARTCHAR 1EC9
ENCODING 7881
SWIDTH 600 0
DWIDTH 10 0
BBX 8 15 1 0
BITMAP
1C
04
0C
00
00
78
08
08
08
08
08
08
08
08
FF
ENDCHAR
STARTCHAR 1ECA
ENCODING 7882
SWIDTH 600 0
DWIDTH 10 0
BBX 6 17 2 -4
BITMAP
FC
30
30
30
30
30
30
30
30
30
30
30
FC
00
00
30
30
ENDCHAR
STARTCHAR 1ECB
ENCODING 7883
SWIDTH 600 0
DWIDTH 10 0
BBX 8 18 1 -4
BITMAP
1C
18
00
00
78
08
08
08
08
08
08
08
08
FF
00
00
1C
18
ENDCHAR
STARTCHAR 1ECC
ENCODING 7884
SWIDTH 600 0
DWIDTH 10 0
BBX 8 17 1 -4
BITMAP
3C
66
43
43
C3
C3
C3
C3
C3
43
43
66
3C
00
00
18
18
ENDCHAR
STARTCHAR 1ECD
ENCODING 7885
SWIDTH 600 0
DWIDTH 10 0
BBX 8 14 1 -4
BITMAP
3C
66
43
C3
C3
C3
C3
43
66
3C
00
00
18
18
ENDCHAR
STARTCHAR 1ECE
ENCODING 7886
SWIDTH 600 0
DWIDTH 10 0
BBX 8 18 1 0
BITMAP
18
0C
08
10
00
3C
66
43
43
C3
C3
C3
C3
C3
43
43
66
3C
ENDCHAR
STARTCHAR 1ECF
ENCODING 7887
SWIDTH 600 0
DWIDTH 10 0
BBX 8 15 1 0
BITMAP
1C
0C
08
10
00
3C
66
43
C3
C3
C3
C3
43
66
3C
ENDCHAR
STARTCHAR 1ED0
ENCODING 7888
SWIDTH 600 0
DWIDTH 10 0
BBX 9 19 1 0
BITMAP
0080
0180
1B00
3C00
6600
0000
3C00
6600
4300
4300
C300
C300
C300
C300
C300
4300
4300
6600
3C00
ENDCHAR
STARTCHAR 1ED1
ENCODING 7889
SWIDTH 600 0
DWIDTH 10 0
BBX 10 17 1 0
BITMAP
00C0
0180
1B00
3C00
6600
0000
0000
3C00
6600
4300
C300
C300
C300
C300
4300
6600
3C00
ENDCHAR
STARTCHAR 1ED2
ENCODING 7890
SWIDTH 600 0
DWIDTH 10 0
BBX 8 18 1 0
BITMAP
06
03
1C
66
00
3C
66
43
43
C3
C3
C3
C3
C3
43
43
66
3C
ENDCHAR
STARTCHAR 1ED3
ENCODING 7891
SWIDTH 600 0
DWIDTH 10 0
BBX 8 17 1 0
BITMAP
0E
02
1B
3C
66
00
00
3C
66
43
C3
C3
C3
C3
43
66
3C
ENDCHAR
STARTCHAR 1ED4
ENCODING 7892
SWIDTH 600 0
DWIDTH 10 0
BBX 8 18 1 0
BITMAP
03
01
1B
36
40
3C
66
43
43
C3
C3
C3
C3
C3
43
43
66
3C
ENDCHAR
STARTCHAR 1ED5
ENCODING 7893
SWIDTH 600 0
DWIDTH 10 0
BBX 8 17 1 0
BITMAP
03
01
01
1A
36
40
00
3C
66
43
C3
C3
C3
C3
43
66
3C
ENDCHAR
STARTCHAR 1ED6
ENCODING 7894
SWIDTH 600 0
DWIDTH 10 0
BBX 8 18 1 0
BITMAP
32
6E
00
3C
66
3C
66
43
43
C3
C3
C3
C3
C3
43
43
66
3C
ENDCHAR
STARTCHAR 1ED7
ENCODING 7895
SWIDTH 600 0
DWIDTH 10 0
BBX 8 16 1 0
BITMAP
32
4C
18
3C
66
00
3C
66
43
C3
C3
C3
C3
43
66
3C
ENDCHAR
STARTCHAR 1ED8
ENCODING 7896
SWIDTH 600 0
DWIDTH 10 0
BBX 8 21 1 -4
BITMAP
18
3C
66
00
3C
66
43
43
C3
C3
C3
C3
C3
43
43
66
3C
00
00
18
18
ENDCHAR
STARTCHAR 1ED9
ENCODING 7897
SWIDTH 600 0
DWIDTH 10 0
BBX 8 19 1 -4
BITMAP
18
3C
66
00
00
3C
66
43
C3
C3
C3
C3
43
66
3C
00
00
18
18
ENDCHAR
STARTCHAR 1EDA
ENCODING 7898
SWIDTH 600 0
DWIDTH 10 0
BBX 8 17 1 0
BITMAP
04
0C
19
01
3D
67
43
43
C3
C3
C3
C3
C3
43
43
66
3C
ENDCHAR
STARTCHAR 1EDB
ENCODING 7899
SWIDTH 600 0
DWIDTH 10 0
BBX 8 15 1 0
BITMAP
04
0C
18
01
01
3F
66
43
C3
C3
C3
C3
43
66
3C
ENDCHAR
STARTCHAR 1EDC
ENCODING 7900
SWIDTH 600 0
DWIDTH 10 0
BBX 8 17 1 0
BITMAP
60
30
19
01
3D
67
43
43
C3
C3
C3
C3
C3
43
43
66
3C
ENDCHAR
STARTCHAR 1EDD
ENCODING 7901
SWIDTH 600 0
DWIDTH 10 0
BBX 8 15 1 0
BITMAP
60
30
18
01
01
3F
66
43
C3
C3
C3
C3
43
66
3C
ENDCHAR
STARTCHAR 1EDE
ENCODING 7902
SWIDTH 600 0
DWIDTH 10 0
BBX 8 18 1 0
BITMAP
38
0C
08
11
01
3D
67
43
43
C3
C3
C3
C3
C3
43
43
66
3C
ENDCHAR
STARTCHAR 1EDF
ENCODING 7903
SWIDTH 600 0
DWIDTH 10 0
BBX 8 15 1 0
BITMAP
38
0C
08
11
01
3F
66
43
C3
C3
C3
C3
43
66
3C
ENDCHAR
STARTCHAR 1EE0
ENCODING 7904
SWIDTH 600 0
DWIDTH 10 0
BBX 8 17 1 0
BITMAP
32
4C
01
01
3D
67
43
43
C3
C3
C3
C3
C3
43
43
66
3C
ENDCHAR
STARTCHAR 1EE1
ENCODING 7905
SWIDTH 600 0
DWIDTH 10 0
BBX 8 14 1 0
BITMAP
32
4C
01
01
3F
66
43
C3
C3
C3
C3
43
66
3C
ENDCHAR
STARTCHAR 1EE2
ENCODING 7906
SWIDTH 600 0
DWIDTH 10 0
BBX 8 19 1 -4
BITMAP
01
01
3D
67
43
43
C3
C3
C3
C3
C3
43
43
66
3C
00
00
18
18
ENDCHAR
STARTCHAR 1EE3
ENCODING 7907
SWIDTH 600 0
DWIDTH 10 0
BBX 8 16 1 -4
BITMAP
01
01
3F
66
43
C3
C3
C3
C3
43
66
3C
00
00
18
18
ENDCHAR
STARTCHAR 1EE4
ENCODING 7908
SWIDTH 600 0
DWIDTH 10 0
BBX 7 17 2 -4
BITMAP
86
86
86
86
86
86
86
86
86
86
86
CC
78
00
00
30
30
ENDCHAR
STARTCHAR 1EE5
ENCODING 7909
SWIDTH 600 0
DWIDTH 10 0
BBX 7 14 2 -4
BITMAP
86
86
86
86
86
86
86
86
CC
78
00
00
30
30
ENDCHAR
STARTCHAR 1EE6
ENCODING 7910
SWIDTH 600 0
DWIDTH 10 0
BBX 7 18 2 0
BITMAP
30
18
10
20
00
86
86
86
86
86
86
86
86
86
86
86
CC
78
ENDCHAR
STARTCHAR 1EE7
ENCODING 7911
SWIDTH 600 0
DWIDTH 10 0
BBX 7 15 2 0
BITMAP
38
18
10
20
00
86
86
86
86
86
86
86
86
CC
78
ENDCHAR
STARTCHAR 1EE8
ENCODING 7912
SWIDTH 600 0
DWIDTH 10 0
BBX 8 17 2 0
BITMAP
0C
18
31
01
87
86
86
86
86
86
86
86
86
86
86
CC
78
ENDCHAR
STARTCHAR 1EE9
ENCODING 7913
SWIDTH 600 0
DWIDTH 10 0
BBX 8 15 2 0
BITMAP
0C
18
30
01
01
87
86
86
86
86
86
86
86
CC
78
ENDCHAR
STARTCHAR 1EEA
ENCODING 7914
SWIDTH 600 0
DWIDTH 10 0
BBX 8 17 2 0
BITMAP
40
60
31
01
87
86
86
86
86
86
86
86
86
86
86
CC
78
ENDCHAR
STARTCHAR 1EEB
ENCODING 7915
SWIDTH 600 0
DWIDTH 10 0
BBX 8 15 2 0
BITMAP
40
60
30
01
01
87
86
86
86
86
86
86
86
CC
78
ENDCHAR
STARTCHAR 1EEC
ENCODING 7916
SWIDTH 600 0
DWIDTH 10 0
BBX 8 18 2 0
BITMAP
30
18
10
21
01
87
86
86
86
86
86
86
86
86
86
86
CC
78
ENDCHAR
STARTCHAR 1EED
ENCODING 7917
SWIDTH 600 0
DWIDTH 10 0
BBX 8 15 2 0
BITMAP
38
18
10
21
01
87
86
86
86
86
86
86
86
CC
78
ENDCHAR
STARTCHAR 1EEE
ENCODING 7918
SWIDTH 600 0
DWIDTH 10 0
BBX 8 17 2 0
BITMAP
64
9C
01
01
87
86
86
86
86
86
86
86
86
86
86
CC
78
ENDCHAR
STARTCHAR 1EEF
ENCODING 7919
SWIDTH 600 0
DWIDTH 10 0
BBX 8 14 2 0
BITMAP
64
9C
01
01
87
86
86
86
86
86
86
86
CC
78
ENDCHAR
STARTCHAR 1EF0
ENCODING 7920
SWIDTH 600 0
DWIDTH 10 0
BBX 8 19 2 -4
BITMAP
01
01
87
86
86
86
86
86
86
86
86
86
86
CC
78
00
00
30
30
ENDCHAR
STARTCHAR 1EF1
ENCODING 7921
SWIDTH 600 0
DWIDTH 10 0
BBX 8 16 2 -4
BITMAP
01
01
87
86
86
86
86
86
86
86
CC
78
00
00
30
30
ENDCHAR
STARTCHAR 1EF2
ENCODING 7922
SWIDTH 600 0
DWIDTH 10 0
BBX 9 17 1 0
BITMAP
2000
3000
1800
0000
8180
C300
4200
6600
2600
3400
1C00
1800
1800
1800
1800
1800
1800
ENDCHAR
STARTCHAR 1EF3
ENCODING 7923
SWIDTH 600 0
DWIDTH 10 0
BBX 8 18 1 -3
BITMAP
20
30
18
00
00
C1
C3
42
66
26
34
3C
1C
18
18
18
10
30
ENDCHAR
STARTCHAR 1EF4
ENCODING 7924
SWIDTH 600 0
DWIDTH 10 0
BBX 9 17 1 -4
BITMAP
8180
C300
4200
6600
2600
3400
1C00
1800
1800
1800
1800
1800
1800
0000
0000
1800
1800
ENDCHAR
STARTCHAR 1EF5
ENCODING 7925
SWIDTH 600 0
DWIDTH 10 0
BBX 8 14 1 -4
BITMAP
C1
C3
42
66
26
34
3C
1C
18
18
18
10
33
03
ENDCHAR
STARTCHAR 1EF6
ENCODING 7926
SWIDTH 600 0
DWIDTH 10 0
BBX 9 18 1 0
BITMAP
1800
0C00
0800
1000
0000
8180
C300
4200
6600
2600
3400
1C00
1800
1800
1800
1800
1800
1800
ENDCHAR
STARTCHAR 1EF7
ENCODING 7927
SWIDTH 600 0
DWIDTH 10 0
BBX 8 18 1 -3
BITMAP
1C
0C
08
10
00
C1
C3
42
66
26
34
3C
1C
18
18
18
10
30
ENDCHAR
STARTCHAR 1EF8
ENCODING 7928
SWIDTH 600 0
DWIDTH 10 0
BBX 9 17 1 0
BITMAP
3200
4E00
0000
0000
8180
C300
4200
6600
2600
3400
1C00
1800
1800
1800
1800
1800
1800
ENDCHAR
STARTCHAR 1EF9
ENCODING 7929
SWIDTH 600 0
DWIDTH 10 0
BBX 8 17 1 -3
BITMAP
32
4E
00
00
C1
C3
42
66
26
34
3C
1C
18
18
18
10
30
ENDCHAR
STARTCHAR 2001
ENCODING 8193
SWIDTH 600 0
DWIDTH 10 0
BBX 0 0 0 0
BITMAP
ENDCHAR
STARTCHAR 200B
ENCODING 8203
SWIDTH 600 0
DWIDTH 10 0
BBX 0 0 0 0
BITMAP
ENDCHAR
STARTCHAR 2010
ENCODING 8208
SWIDTH 600 0
DWIDTH 10 0
BBX 6 1 2 5
BITMAP
FC
ENDCHAR
STARTCHAR 2013
ENCODING 8211
SWIDTH 600 0
DWIDTH 10 0
BBX 8 1 1 5
BITMAP
FF
ENDCHAR
STARTCHAR 2014
ENCODING 8212
SWIDTH 600 0
DWIDTH 10 0
BBX 10 1 0 5
BITMAP
FFC0
ENDCHAR
STARTCHAR 2016
ENCODING 8214
SWIDTH 600 0
DWIDTH 10 0
BBX 6 17 2 -2
BITMAP
C4
C4
C4
C4
C4
C4
C4
C4
C4
C4
C4
C4
C4
C4
C4
C4
C4
ENDCHAR
STARTCHAR 2018
ENCODING 8216
SWIDTH 600 0
DWIDTH 10 0
BBX 2 5 4 8
BITMAP
40
C0
80
80
C0
ENDCHAR
STARTCHAR 2019
ENCODING 8217
SWIDTH 600 0
DWIDTH 10 0
BBX 3 5 4 7
BITMAP
C0
60
60
C0
C0
ENDCHAR
STARTCHAR 201A
ENCODING 8218
SWIDTH 600 0
DWIDTH 10 0
BBX 3 5 4 -3
BITMAP
C0
60
60
C0
C0
ENDCHAR
STARTCHAR 201B
ENCODING 8219
SWIDTH 600 0
DWIDTH 10 0
BBX 2 5 4 8
BITMAP
C0
80
80
C0
40
ENDCHAR
STARTCHAR 201C
ENCODING 8220
SWIDTH 600 0
DWIDTH 10 0
BBX 6 5 2 8
BITMAP
6C
CC
C8
98
CC
ENDCHAR
STARTCHAR 201D
ENCODING 8221
SWIDTH 600 0
DWIDTH 10 0
BBX 6 5 2 7
BITMAP
CC
64
64
CC
C8
ENDCHAR
STARTCHAR 201E
ENCODING 8222
SWIDTH 600 0
DWIDTH 10 0
BBX 7 5 2 -3
BITMAP
CC
66
66
C4
CC
ENDCHAR
STARTCHAR 201F
ENCODING 8223
SWIDTH 600 0
DWIDTH 10 0
BBX 6 5 2 8
BITMAP
CC
88
C8
CC
6C
ENDCHAR
STARTCHAR 2020
ENCODING 8224
SWIDTH 600 0
DWIDTH 10 0
BBX 8 16 1 -1
BITMAP
18
18
18
18
FF
18
18
18
18
18
18
18
18
18
18
18
ENDCHAR
STARTCHAR 2021
ENCODING 8225
SWIDTH 600 0
DWIDTH 10 0
BBX 8 17 1 -2
BITMAP
18
18
18
18
FF
18
18
18
18
18
18
FF
18
18
18
18
18
ENDCHAR
STARTCHAR 2022
ENCODING 8226
SWIDTH 600 0
DWIDTH 10 0
BBX 4 4 3 4
BITMAP
70
F0
F0
60
ENDCHAR
STARTCHAR 2024
ENCODING 8228
SWIDTH 600 0
DWIDTH 10 0
BBX 3 3 4 0
BITMAP
C0
E0
C0
ENDCHAR
STARTCHAR 2026
ENCODING 8230
SWIDTH 600 0
DWIDTH 10 0
BBX 8 3 1 0
BITMAP
D9
DB
D9
ENDCHAR
STARTCHAR 2030
ENCODING 8240
SWIDTH 600 0
DWIDTH 10 0
BBX 11 13 0 0
BITMAP
7180
D100
9200
9400
F400
0800
0800
1000
36C0
2920
4920
4F60
86C0
ENDCHAR
STARTCHAR 2032
ENCODING 8242
SWIDTH 600 0
DWIDTH 10 0
BBX 2 5 4 7
BITMAP
C0
C0
C0
C0
80
ENDCHAR
STARTCHAR 2033
ENCODING 8243
SWIDTH 600 0
DWIDTH 10 0
BBX 6 5 2 7
BITMAP
6C
CC
CC
CC
88
ENDCHAR
STARTCHAR 2034
ENCODING 8244
SWIDTH 600 0
DWIDTH 10 0
BBX 10 5 0 7
BITMAP
66C0
6CC0
6C80
4D80
C980
ENDCHAR
STARTCHAR 2039
ENCODING 8249
SWIDTH 600 0
DWIDTH 10 0
BBX 6 9 2 1
BITMAP
0C
18
30
60
C0
60
30
18
0C
ENDCHAR
STARTCHAR 203A
ENCODING 8250
SWIDTH 600 0
DWIDTH 10 0
BBX 6 9 2 1
BITMAP
E0
20
30
18
0C
18
10
20
60
ENDCHAR
STARTCHAR 203C
ENCODING 8252
SWIDTH 600 0
DWIDTH 10 0
BBX 6 13 2 0
BITMAP
CC
CC
CC
CC
CC
CC
CC
CC
CC
00
00
CC
CC
ENDCHAR
STARTCHAR 203D
ENCODING 8253
SWIDTH 600 0
DWIDTH 10 0
BBX 6 13 2 0
BITMAP
F8
1C
04
24
24
2C
38
20
20
00
00
70
60
ENDCHAR
STARTCHAR 203E
ENCODING 8254
SWIDTH 600 0
DWIDTH 10 0
BBX 10 1 0 14
BITMAP
FFC0
ENDCHAR
STARTCHAR 203F
ENCODING 8255
SWIDTH 600 0
DWIDTH 10 0
BBX 10 3 0 -3
BITMAP
C0C0
E0C0
7F80
ENDCHAR
STARTCHAR 2044
ENCODING 8260
SWIDTH 600 0
DWIDTH 10 0
BBX 10 13 0 0
BITMAP
00C0
0080
0100
0300
0200
0400
0C00
0800
1800
3000
2000
6000
C000
ENDCHAR
STARTCHAR 2045
ENCODING 8261
SWIDTH 600 0
DWIDTH 10 0
BBX 5 16 3 -2
BITMAP
F8
C0
C0
C0
C0
C0
C0
F8
C0
C0
C0
C0
C0
C0
C0
F8
ENDCHAR
STARTCHAR 2046
ENCODING 8262
SWIDTH 600 0
DWIDTH 10 0
BBX 4 16 3 -2
BITMAP
F0
30
30
30
30
30
30
F0
30
30
30
30
30
30
30
F0
ENDCHAR
STARTCHAR 2070
ENCODING 8304
SWIDTH 600 0
DWIDTH 10 0
BBX 6 7 2 7
BITMAP
78
4C
C4
C4
C4
4C
78
ENDCHAR
STARTCHAR 2074
ENCODING 8308
SWIDTH 600 0
DWIDTH 10 0
BBX 6 7 2 7
BITMAP
18
30
6C
CC
FC
0C
0C
ENDCHAR
STARTCHAR 2075
ENCODING 8309
SWIDTH 600 0
DWIDTH 10 0
BBX 6 7 2 7
BITMAP
7C
40
78
0C
84
4C
78
ENDCHAR
STARTCHAR 2076
ENCODING 8310
SWIDTH 600 0
DWIDTH 10 0
BBX 6 7 2 7
BITMAP
10
20
78
4C
C4
CC
78
ENDCHAR
STARTCHAR 2077
ENCODING 8311
SWIDTH 600 0
DWIDTH 10 0
BBX 5 7 3 7
BITMAP
F8
98
10
30
20
60
40
ENDCHAR
STARTCHAR 2078
ENCODING 8312
SWIDTH 600 0
DWIDTH 10 0
BBX 6 7 2 7
BITMAP
78
C4
38
4C
84
CC
78
ENDCHAR
STARTCHAR 2079
ENCODING 8313
SWIDTH 600 0
DWIDTH 10 0
BBX 6 7 2 7
BITMAP
78
CC
CC
7C
18
10
30
ENDCHAR
STARTCHAR 207A
ENCODING 8314
SWIDTH 600 0
DWIDTH 10 0
BBX 4 5 3 5
BITMAP
60
60
F0
60
60
ENDCHAR
STARTCHAR 207C
ENCODING 8316
SWIDTH 600 0
DWIDTH 10 0
BBX 5 4 3 8
BITMAP
F8
00
00
F8
ENDCHAR
STARTCHAR 2080
ENCODING 8320
SWIDTH 600 0
DWIDTH 10 0
BBX 6 7 2 -2
BITMAP
78
4C
C4
C4
C4
4C
78
ENDCHAR
STARTCHAR 2081
ENCODING 8321
SWIDTH 600 0
DWIDTH 10 0
BBX 5 7 3 -2
BITMAP
60
A0
20
20
20
20
F8
ENDCHAR
STARTCHAR 2082
ENCODING 8322
SWIDTH 600 0
DWIDTH 10 0
BBX 6 7 2 -2
BITMAP
78
4C
8C
08
30
60
7C
ENDCHAR
STARTCHAR 2083
ENCODING 8323
SWIDTH 600 0
DWIDTH 10 0
BBX 6 7 2 -2
BITMAP
7C
08
30
08
04
CC
78
ENDCHAR
STARTCHAR 2084
ENCODING 8324
SWIDTH 600 0
DWIDTH 10 0
BBX 6 7 2 -2
BITMAP
18
30
6C
CC
FC
0C
0C
ENDCHAR
STARTCHAR 2085
ENCODING 8325
SWIDTH 600 0
DWIDTH 10 0
BBX 6 7 2 -2
BITMAP
7C
40
78
0C
84
4C
78
ENDCHAR
STARTCHAR 2086
ENCODING 8326
SWIDTH 600 0
DWIDTH 10 0
BBX 6 7 2 -2
BITMAP
10
20
78
4C
C4
CC
78
ENDCHAR
STARTCHAR 2087
ENCODING 8327
SWIDTH 600 0
DWIDTH 10 0
BBX 5 7 3 -2
BITMAP
F8
98
10
30
20
60
40
ENDCHAR
STARTCHAR 2088
ENCODING 8328
SWIDTH 600 0
DWIDTH 10 0
BBX 6 7 2 -2
BITMAP
78
C4
38
4C
84
CC
78
ENDCHAR
STARTCHAR 2089
ENCODING 8329
SWIDTH 600 0
DWIDTH 10 0
BBX 6 7 2 -2
BITMAP
78
CC
CC
7C
18
10
30
ENDCHAR
STARTCHAR 20AB
ENCODING 8363
SWIDTH 600 0
DWIDTH 10 0
BBX 8 14 2 -1
BITMAP
06
06
1F
06
76
CE
86
86
86
86
CE
76
00
FE
ENDCHAR
STARTCHAR 20AC
ENCODING 8364
SWIDTH 600 0
DWIDTH 10 0
BBX 9 13 0 0
BITMAP
1E00
3300
2180
2000
FC00
2000
2000
FC00
2000
2180
2180
3B00
1E00
ENDCHAR
STARTCHAR 20AE
ENCODING 8366
SWIDTH 600 0
DWIDTH 10 0
BBX 8 13 1 0
BITMAP
FF
18
18
18
19
1F
F8
99
1F
F8
98
18
18
ENDCHAR
STARTCHAR 20B4
ENCODING 8372
SWIDTH 600 0
DWIDTH 10 0
BBX 8 13 1 0
BITMAP
3C
76
43
02
06
FF
00
FF
60
41
42
66
3C
ENDCHAR
STARTCHAR 20BD
ENCODING 8381
SWIDTH 600 0
DWIDTH 10 0
BBX 8 13 1 0
BITMAP
7E
47
41
41
41
43
FE
40
40
FC
40
40
40
ENDCHAR
STARTCHAR 20BF
ENCODING 8383
SWIDTH 600 0
DWIDTH 10 0
BBX 7 18 2 -2
BITMAP
50
50
50
F8
8C
86
86
86
8C
F8
8C
86
86
86
8E
F8
50
50
ENDCHAR
STARTCHAR 2102
ENCODING 8450
SWIDTH 600 0
DWIDTH 10 0
BBX 8 13 1 0
BITMAP
3C
62
A1
A1
A0
A0
A0
A0
A0
A1
A1
62
3C
ENDCHAR
STARTCHAR 210D
ENCODING 8461
SWIDTH 600 0
DWIDTH 10 0
BBX 8 13 1 0
BITMAP
E7
A5
A5
A5
A5
A5
BD
A5
A5
A5
A5
A5
E7
ENDCHAR
STARTCHAR 2113
ENCODING 8467
SWIDTH 600 0
DWIDTH 10 0
BBX 8 12 1 0
BITMAP
1C
36
22
22
22
26
3C
F0
60
20
33
1E
ENDCHAR
STARTCHAR 2115
ENCODING 8469
SWIDTH 600 0
DWIDTH 10 0
BBX 7 13 2 0
BITMAP
C2
C2
A2
A2
D2
D2
AA
AA
AA
96
96
8A
8E
ENDCHAR
STARTCHAR 2116
ENCODING 8470
SWIDTH 600 0
DWIDTH 10 0
BBX 9 13 1 0
BITMAP
8B80
8A80
CA80
CA80
CA80
CA80
AA80
AB80
A800
A800
9800
9800
9800
ENDCHAR
STARTCHAR 2119
ENCODING 8473
SWIDTH 600 0
DWIDTH 10 0
BBX 8 13 1 0
BITMAP
FE
A3
A3
A3
A3
A3
BE
A0
A0
A0
A0
A0
E0
ENDCHAR
STARTCHAR 211A
ENCODING 8474
SWIDTH 600 0
DWIDTH 10 0
BBX 8 16 1 -3
BITMAP
3C
66
A5
A5
A5
A5
A5
A5
A5
A5
A5
66
3C
04
02
03
ENDCHAR
STARTCHAR 211D
ENCODING 8477
SWIDTH 600 0
DWIDTH 10 0
BBX 9 13 1 0
BITMAP
FE00
A500
A500
A500
A500
A500
BE00
B400
AA00
AA00
A500
A500
E380
ENDCHAR
STARTCHAR 2122
ENCODING 8482
SWIDTH 600 0
DWIDTH 10 0
BBX 10 6 0 6
BITMAP
FEC0
26C0
2740
2540
2440
2440
ENDCHAR
STARTCHAR 2124
ENCODING 8484
SWIDTH 600 0
DWIDTH 10 0
BBX 8 13 1 0
BITMAP
FF
05
0A
0A
0C
14
18
28
28
50
50
A0
FF
ENDCHAR
STARTCHAR 212E
ENCODING 8494
SWIDTH 600 0
DWIDTH 10 0
BBX 8 13 1 0
BITMAP
3C
42
C3
C3
C3
C3
FF
C0
C0
C0
C1
42
3C
ENDCHAR
STARTCHAR 2140
ENCODING 8512
SWIDTH 600 0
DWIDTH 10 0
BBX 8 16 1 -3
BITMAP
FF
A0
50
50
28
18
14
0A
0A
14
18
28
50
50
A0
FF
ENDCHAR
STARTCHAR 218A
ENCODING 8586
SWIDTH 600 0
DWIDTH 10 0
BBX 8 13 1 0
BITMAP
FF
03
06
0C
18
30
60
40
C0
C3
43
66
3C
ENDCHAR
STARTCHAR 218B
ENCODING 8587
SWIDTH 600 0
DWIDTH 10 0
BBX 7 13 2 0
BITMAP
78
EC
86
86
80
80
C0
78
10
20
60
C0
FE
ENDCHAR
STARTCHAR 2190
ENCODING 8592
SWIDTH 600 0
DWIDTH 10 0
BBX 10 9 0 1
BITMAP
1C00
1000
3000
6000
FFC0
6000
3000
1000
1C00
ENDCHAR
STARTCHAR 2191
ENCODING 8593
SWIDTH 600 0
DWIDTH 10 0
BBX 9 13 1 0
BITMAP
0800
1800
3C00
7B00
9980
9880
1800
1800
1800
1800
1800
1800
1800
ENDCHAR
STARTCHAR 2192
ENCODING 8594
SWIDTH 600 0
DWIDTH 10 0
BBX 10 10 0 1
BITMAP
0400
0600
0300
0180
0180
FFC0
0180
0300
0200
0600
ENDCHAR
STARTCHAR 2193
ENCODING 8595
SWIDTH 600 0
DWIDTH 10 0
BBX 9 13 1 -1
BITMAP
1800
1800
1800
1800
1800
1800
1800
9880
9980
7B00
3C00
1800
0800
ENDCHAR
STARTCHAR 2194
ENCODING 8596
SWIDTH 600 0
DWIDTH 10 0
BBX 13 9 -1 1
BITMAP
1980
30C0
6060
C030
FFF8
C030
6060
30C0
1980
ENDCHAR
STARTCHAR 2195
ENCODING 8597
SWIDTH 600 0
DWIDTH 10 0
BBX 9 18 1 -3
BITMAP
1800
3C00
7E00
DB00
9880
1800
1800
1800
1800
1800
1800
1800
9880
9980
DB00
7E00
3C00
0800
ENDCHAR
STARTCHAR 2196
ENCODING 8598
SWIDTH 600 0
DWIDTH 10 0
BBX 8 8 1 4
BITMAP
FE
E1
B0
98
8C
86
83
41
ENDCHAR
STARTCHAR 2197
ENCODING 8599
SWIDTH 600 0
DWIDTH 10 0
BBX 8 8 1 4
BITMAP
7F
83
05
09
11
21
41
82
ENDCHAR
STARTCHAR 2198
ENCODING 8600
SWIDTH 600 0
DWIDTH 10 0
BBX 8 8 1 0
BITMAP
82
C1
61
31
19
0D
07
FF
ENDCHAR
STARTCHAR 2199
ENCODING 8601
SWIDTH 600 0
DWIDTH 10 0
BBX 8 8 1 0
BITMAP
41
83
86
8C
98
B0
E0
FF
ENDCHAR
STARTCHAR 219D
ENCODING 8605
SWIDTH 600 0
DWIDTH 10 0
BBX 10 5 0 3
BITMAP
0780
00C0
71C0
DB40
CE40
ENDCHAR
STARTCHAR 219E
ENCODING 8606
SWIDTH 600 0
DWIDTH 10 0
BBX 10 6 0 1
BITMAP
3700
4C00
FFC0
CC00
6600
3300
ENDCHAR
STARTCHAR 21A0
ENCODING 8608
SWIDTH 600 0
DWIDTH 10 0
BBX 10 6 0 1
BITMAP
3B80
0CC0
FFC0
0CC0
0980
3300
ENDCHAR
STARTCHAR 21A2
ENCODING 8610
SWIDTH 600 0
DWIDTH 10 0
BBX 10 6 0 1
BITMAP
30C0
4100
FE00
C300
6180
30C0
ENDCHAR
STARTCHAR 21A3
ENCODING 8611
SWIDTH 600 0
DWIDTH 10 0
BBX 10 6 0 1
BITMAP
E380
30C0
1FC0
30C0
6180
C300
ENDCHAR
STARTCHAR 21A5
ENCODING 8613
SWIDTH 600 0
DWIDTH 10 0
BBX 6 9 2 0
BITMAP
38
7C
B4
B4
30
30
30
30
FC
ENDCHAR
STARTCHAR 21A6
ENCODING 8614
SWIDTH 600 0
DWIDTH 10 0
BBX 10 6 0 1
BITMAP
C380
C0C0
FFC0
C0C0
C180
C300
ENDCHAR
STARTCHAR 21A7
ENCODING 8615
SWIDTH 600 0
DWIDTH 10 0
BBX 6 9 2 0
BITMAP
FC
30
30
30
30
B4
B4
7C
30
ENDCHAR
STARTCHAR 21A9
ENCODING 8617
SWIDTH 600 0
DWIDTH 10 0
BBX 10 10 0 2
BITMAP
0700
0180
00C0
18C0
30C0
61C0
FF80
6000
2000
1800
ENDCHAR
STARTCHAR 21AA
ENCODING 8618
SWIDTH 600 0
DWIDTH 10 0
BBX 10 10 0 2
BITMAP
3800
6000
C000
C200
C100
6080
3FC0
0080
0100
0300
ENDCHAR
STARTCHAR 21AD
ENCODING 8621
SWIDTH 600 0
DWIDTH 10 0
BBX 10 6 0 2
BITMAP
3300
6D80
D6C0
F3C0
4080
3380
ENDCHAR
STARTCHAR 21BE
ENCODING 8638
SWIDTH 600 0
DWIDTH 10 0
BBX 5 17 4 -3
BITMAP
80
C0
A0
90
88
80
80
80
80
80
80
80
80
80
80
80
80
ENDCHAR
STARTCHAR 21C9
ENCODING 8649
SWIDTH 600 0
DWIDTH 10 0
BBX 10 10 0 0
BITMAP
0180
00C0
FFC0
00C0
0180
0180
00C0
FFC0
00C0
0180
ENDCHAR
STARTCHAR 21D0
ENCODING 8656
SWIDTH 600 0
DWIDTH 10 0
BBX 10 10 0 0
BITMAP
1C00
3000
3FC0
6000
C000
4000
7FC0
3000
1800
0C00
ENDCHAR
STARTCHAR 21D1
ENCODING 8657
SWIDTH 600 0
DWIDTH 10 0
BBX 10 17 0 -3
BITMAP
1200
3300
5280
9240
9240
1200
1200
1200
1200
1200
1200
1200
1200
1200
1200
1200
1200
ENDCHAR
STARTCHAR 21D2
ENCODING 8658
SWIDTH 600 0
DWIDTH 10 0
BBX 10 10 0 0
BITMAP
0E00
0300
FF00
0080
00C0
00C0
FF80
0300
0600
0C00
ENDCHAR
STARTCHAR 21D3
ENCODING 8659
SWIDTH 600 0
DWIDTH 10 0
BBX 10 17 0 -3
BITMAP
1200
1200
1200
1200
1200
1200
1200
1200
1200
1200
1200
1200
9240
9240
5280
3300
1200
ENDCHAR
STARTCHAR 21D4
ENCODING 8660
SWIDTH 600 0
DWIDTH 10 0
BBX 13 10 -1 0
BITMAP
1980
30C0
7FE0
4030
8018
C030
7FE0
30C0
10C0
1980
ENDCHAR
STARTCHAR 21DB
ENCODING 8667
SWIDTH 600 0
DWIDTH 10 0
BBX 10 10 0 0
BITMAP
0E00
FF00
0180
0080
FFC0
0080
0180
FF00
0600
0C00
ENDCHAR
STARTCHAR 21DE
ENCODING 8670
SWIDTH 600 0
DWIDTH 10 0
BBX 7 13 2 0
BITMAP
10
38
7C
FE
30
30
FC
30
30
FC
30
30
30
ENDCHAR
STARTCHAR 21DF
ENCODING 8671
SWIDTH 600 0
DWIDTH 10 0
BBX 7 13 2 0
BITMAP
30
30
30
FC
30
30
FC
30
30
FE
78
38
10
ENDCHAR
STARTCHAR 21E5
ENCODING 8677
SWIDTH 600 0
DWIDTH 10 0
BBX 10 7 0 2
BITMAP
18C0
04C0
06C0
FFC0
06C0
04C0
18C0
ENDCHAR
STARTCHAR 21E7
ENCODING 8679
SWIDTH 600 0
DWIDTH 10 0
BBX 10 14 0 0
BITMAP
0400
0C00
1200
2100
4080
F3C0
1200
1200
1200
1200
1200
1200
1200
1E00
ENDCHAR
STARTCHAR 21E8
ENCODING 8680
SWIDTH 600 0
DWIDTH 10 0
BBX 10 10 0 1
BITMAP
0400
0400
0600
FD80
8040
8040
FD80
0600
0400
0400
ENDCHAR
STARTCHAR 21EA
ENCODING 8682
SWIDTH 600 0
DWIDTH 10 0
BBX 10 13 0 0
BITMAP
0C00
1200
2100
2080
F3C0
1200
1200
1200
1E00
0000
1E00
1200
1E00
ENDCHAR
STARTCHAR 2200
ENCODING 8704
SWIDTH 600 0
DWIDTH 10 0
BBX 8 12 1 0
BITMAP
C1
C3
43
7E
62
66
26
24
34
3C
18
18
ENDCHAR
STARTCHAR 2201
ENCODING 8705
SWIDTH 600 0
DWIDTH 10 0
BBX 5 9 3 0
BITMAP
F0
98
98
80
80
80
98
98
F0
ENDCHAR
STARTCHAR 2202
ENCODING 8706
SWIDTH 600 0
DWIDTH 10 0
BBX 7 12 2 0
BITMAP
70
18
0C
04
76
CE
86
86
86
86
C4
78
ENDCHAR
STARTCHAR 2203
ENCODING 8707
SWIDTH 600 0
DWIDTH 10 0
BBX 8 12 1 0
BITMAP
FF
03
03
03
03
7F
03
03
03
03
03
FF
ENDCHAR
STARTCHAR 2204
ENCODING 8708
SWIDTH 600 0
DWIDTH 10 0
BBX 8 16 1 -2
BITMAP
02
02
FF
07
0F
0B
0B
7F
13
33
23
23
63
FF
40
C0
ENDCHAR
STARTCHAR 2205
ENCODING 8709
SWIDTH 600 0
DWIDTH 10 0
BBX 10 12 0 0
BITMAP
00C0
1F80
7180
42C0
C240
8440
8840
D840
D0C0
6180
7F00
C000
ENDCHAR
STARTCHAR 2206
ENCODING 8710
SWIDTH 600 0
DWIDTH 10 0
BBX 8 13 1 0
BITMAP
18
1C
3C
34
24
24
66
66
42
42
C3
C3
FF
ENDCHAR
STARTCHAR 2207
ENCODING 8711
SWIDTH 600 0
DWIDTH 10 0
BBX 8 12 1 0
BITMAP
FF
C3
C3
42
62
66
26
24
34
3C
1C
18
ENDCHAR
STARTCHAR 2208
ENCODING 8712
SWIDTH 600 0
DWIDTH 10 0
BBX 9 10 1 1
BITMAP
3F80
C000
C000
8000
8000
FF80
8000
8000
C000
7F80
ENDCHAR
STARTCHAR 2209
ENCODING 8713
SWIDTH 600 0
DWIDTH 10 0
BBX 9 14 1 -1
BITMAP
0200
0200
7F80
E400
CC00
8800
8800
FF80
9000
9000
F000
7F80
2000
4000
ENDCHAR
STARTCHAR 220A
ENCODING 8714
SWIDTH 600 0
DWIDTH 10 0
BBX 5 5 3 3
BITMAP
F8
80
F8
80
F8
ENDCHAR
STARTCHAR 220B
ENCODING 8715
SWIDTH 600 0
DWIDTH 10 0
BBX 9 10 1 1
BITMAP
FE00
0300
0100
0180
0180
FF80
0180
0180
0300
FE00
ENDCHAR
STARTCHAR 220C
ENCODING 8716
SWIDTH 600 0
DWIDTH 10 0
BBX 9 14 1 -1
BITMAP
0200
0200
FE00
0700
0D00
0980
0980
FF80
1180
1180
3300
FE00
2000
4000
ENDCHAR
STARTCHAR 220E
ENCODING 8718
SWIDTH 600 0
DWIDTH 10 0
BBX 6 9 2 0
BITMAP
FC
FC
FC
FC
FC
FC
FC
FC
FC
ENDCHAR
STARTCHAR 220F
ENCODING 8719
SWIDTH 600 0
DWIDTH 10 0
BBX 9 15 1 -3
BITMAP
FF80
4200
4200
4200
4200
4200
4200
4200
4200
4200
4200
4200
4200
4200
4200
ENDCHAR
STARTCHAR 2210
ENCODING 8720
SWIDTH 600 0
DWIDTH 10 0
BBX 9 15 1 -3
BITMAP
4200
4200
4200
4200
4200
4200
4200
4200
4200
4200
4200
4200
4200
4200
FF80
ENDCHAR
STARTCHAR 2211
ENCODING 8721
SWIDTH 600 0
DWIDTH 10 0
BBX 8 15 1 -3
BITMAP
FF
C0
60
20
30
18
0C
0C
0C
18
30
30
60
C0
FF
ENDCHAR
STARTCHAR 2212
ENCODING 8722
SWIDTH 600 0
DWIDTH 10 0
BBX 6 1 2 5
BITMAP
FC
ENDCHAR
STARTCHAR 2213
ENCODING 8723
SWIDTH 600 0
DWIDTH 10 0
BBX 8 10 1 -1
BITMAP
FF
18
18
18
18
FF
18
18
18
18
ENDCHAR
STARTCHAR 2215
ENCODING 8725
SWIDTH 600 0
DWIDTH 10 0
BBX 10 13 0 0
BITMAP
00C0
0080
0100
0300
0200
0400
0C00
0800
1800
3000
2000
6000
C000
ENDCHAR
STARTCHAR 2218
ENCODING 8728
SWIDTH 600 0
DWIDTH 10 0
BBX 4 4 3 3
BITMAP
70
90
90
60
ENDCHAR
STARTCHAR 2219
ENCODING 8729
SWIDTH 600 0
DWIDTH 10 0
BBX 3 3 4 4
BITMAP
C0
E0
C0
ENDCHAR
STARTCHAR 221A
ENCODING 8730
SWIDTH 600 0
DWIDTH 10 0
BBX 9 12 1 0
BITMAP
0180
0100
0100
E300
6300
2200
2200
3600
1400
1400
1400
1C00
ENDCHAR
STARTCHAR 221E
ENCODING 8734
SWIDTH 600 0
DWIDTH 10 0
BBX 9 6 1 3
BITMAP
E700
9900
9980
8980
9900
E700
ENDCHAR
STARTCHAR 2223
ENCODING 8739
SWIDTH 600 0
DWIDTH 10 0
BBX 2 13 4 0
BITMAP
C0
C0
C0
C0
C0
C0
C0
C0
C0
C0
C0
C0
C0
ENDCHAR
STARTCHAR 2224
ENCODING 8740
SWIDTH 600 0
DWIDTH 10 0
BBX 6 13 2 0
BITMAP
30
30
30
34
38
38
30
30
70
70
B0
30
30
ENDCHAR
STARTCHAR 2225
ENCODING 8741
SWIDTH 600 0
DWIDTH 10 0
BBX 5 13 3 0
BITMAP
98
98
98
98
98
98
98
98
98
98
98
98
98
ENDCHAR
STARTCHAR 2227
ENCODING 8743
SWIDTH 600 0
DWIDTH 10 0
BBX 8 9 1 1
BITMAP
18
18
3C
34
26
66
42
43
C3
ENDCHAR
STARTCHAR 2228
ENCODING 8744
SWIDTH 600 0
DWIDTH 10 0
BBX 8 9 1 1
BITMAP
C1
C3
42
62
66
24
34
1C
18
ENDCHAR
STARTCHAR 2229
ENCODING 8745
SWIDTH 600 0
DWIDTH 10 0
BBX 8 12 1 0
BITMAP
7E
C3
81
81
81
81
81
81
81
81
81
81
ENDCHAR
STARTCHAR 222A
ENCODING 8746
SWIDTH 600 0
DWIDTH 10 0
BBX 8 12 1 0
BITMAP
81
81
81
81
81
81
81
81
81
81
C3
7E
ENDCHAR
STARTCHAR 222B
ENCODING 8747
SWIDTH 600 0
DWIDTH 10 0
BBX 9 15 0 -3
BITMAP
0F80
0C00
0800
0800
0800
0800
0800
0800
0800
0800
0800
0800
0800
1800
F000
ENDCHAR
STARTCHAR 2234
ENCODING 8756
SWIDTH 600 0
DWIDTH 10 0
BBX 10 10 0 0
BITMAP
0C00
0C00
0000
0000
0000
0000
0000
0000
E1C0
61C0
ENDCHAR
STARTCHAR 2235
ENCODING 8757
SWIDTH 600 0
DWIDTH 10 0
BBX 10 10 0 0
BITMAP
61C0
E1C0
0000
0000
0000
0000
0000
0000
0C00
0C00
ENDCHAR
STARTCHAR 2236
ENCODING 8758
SWIDTH 600 0
DWIDTH 10 0
BBX 3 10 4 0
BITMAP
C0
E0
C0
00
00
00
00
C0
E0
C0
ENDCHAR
STARTCHAR 2237
ENCODING 8759
SWIDTH 600 0
DWIDTH 10 0
BBX 8 9 1 0
BITMAP
43
E7
C3
00
00
00
43
E7
C3
ENDCHAR
STARTCHAR 2238
ENCODING 8760
SWIDTH 600 0
DWIDTH 10 0
BBX 6 5 2 3
BITMAP
30
38
30
00
FC
ENDCHAR
STARTCHAR 2239
ENCODING 8761
SWIDTH 600 0
DWIDTH 10 0
BBX 10 8 0 2
BITMAP
00C0
01C0
00C0
FC00
FC00
00C0
01C0
00C0
ENDCHAR
STARTCHAR 223C
ENCODING 8764
SWIDTH 600 0
DWIDTH 10 0
BBX 8 3 1 5
BITMAP
71
DB
CF
ENDCHAR
STARTCHAR 223E
ENCODING 8766
SWIDTH 600 0
DWIDTH 10 0
BBX 9 5 1 3
BITMAP
F300
9100
9980
8900
C700
ENDCHAR
STARTCHAR 2243
ENCODING 8771
SWIDTH 600 0
DWIDTH 10 0
BBX 8 7 1 3
BITMAP
71
D1
CB
CE
00
00
FF
ENDCHAR
STARTCHAR 2245
ENCODING 8773
SWIDTH 600 0
DWIDTH 10 0
BBX 8 10 1 2
BITMAP
71
DB
CF
00
00
FF
00
00
00
FF
ENDCHAR
STARTCHAR 2247
ENCODING 8775
SWIDTH 600 0
DWIDTH 10 0
BBX 8 15 1 -1
BITMAP
02
02
75
DD
CF
08
08
FF
10
10
10
FF
20
20
40
ENDCHAR
STARTCHAR 2248
ENCODING 8776
SWIDTH 600 0
DWIDTH 10 0
BBX 8 7 1 3
BITMAP
71
DB
CF
00
71
DB
CF
ENDCHAR
STARTCHAR 2249
ENCODING 8777
SWIDTH 600 0
DWIDTH 10 0
BBX 8 14 1 -1
BITMAP
02
02
04
04
75
D9
CF
10
71
D9
EF
20
20
40
ENDCHAR
STARTCHAR 224B
ENCODING 8779
SWIDTH 600 0
DWIDTH 10 0
BBX 8 10 1 1
BITMAP
71
D9
CE
00
71
CF
00
00
71
CF
ENDCHAR
STARTCHAR 224D
ENCODING 8781
SWIDTH 600 0
DWIDTH 10 0
BBX 8 7 1 2
BITMAP
81
FF
7E
00
7E
FF
C1
ENDCHAR
STARTCHAR 2254
ENCODING 8788
SWIDTH 600 0
DWIDTH 10 0
BBX 10 8 0 2
BITMAP
C000
EFC0
C000
0000
0000
C000
EFC0
C000
ENDCHAR
STARTCHAR 2257
ENCODING 8791
SWIDTH 600 0
DWIDTH 10 0
BBX 8 11 1 2
BITMAP
1C
24
24
1C
00
00
FF
00
00
00
FF
ENDCHAR
STARTCHAR 225F
ENCODING 8799
SWIDTH 600 0
DWIDTH 10 0
BBX 8 12 1 2
BITMAP
3C
04
06
1C
10
10
00
FF
00
00
00
FF
ENDCHAR
STARTCHAR 2260
ENCODING 8800
SWIDTH 600 0
DWIDTH 10 0
BBX 8 14 1 -1
BITMAP
02
02
04
04
0C
FF
08
10
10
FF
20
20
20
40
ENDCHAR
STARTCHAR 2261
ENCODING 8801
SWIDTH 600 0
DWIDTH 10 0
BBX 8 8 1 2
BITMAP
FF
00
00
FF
00
00
00
FF
ENDCHAR
STARTCHAR 2262
ENCODING 8802
SWIDTH 600 0
DWIDTH 10 0
BBX 8 14 1 -1
BITMAP
02
04
04
FF
08
08
FF
10
10
10
FF
20
20
60
ENDCHAR
STARTCHAR 2263
ENCODING 8803
SWIDTH 600 0
DWIDTH 10 0
BBX 8 8 1 2
BITMAP
FF
00
FF
00
00
FF
00
FF
ENDCHAR
STARTCHAR 2264
ENCODING 8804
SWIDTH 600 0
DWIDTH 10 0
BBX 8 12 1 0
BITMAP
01
07
1C
70
80
70
1C
07
01
00
00
FF
ENDCHAR
STARTCHAR 2265
ENCODING 8805
SWIDTH 600 0
DWIDTH 10 0
BBX 8 12 1 0
BITMAP
80
E0
38
0E
01
07
1C
70
C0
00
00
FF
ENDCHAR
STARTCHAR 226A
ENCODING 8810
SWIDTH 600 0
DWIDTH 10 0
BBX 10 9 0 1
BITMAP
0440
18C0
3380
C600
8400
6600
3180
0CC0
0440
ENDCHAR
STARTCHAR 226B
ENCODING 8811
SWIDTH 600 0
DWIDTH 10 0
BBX 10 9 0 1
BITMAP
8400
C600
3300
18C0
0C40
19C0
6300
C600
8800
ENDCHAR
STARTCHAR 226C
ENCODING 8812
SWIDTH 600 0
DWIDTH 10 0
BBX 5 11 3 -1
BITMAP
F8
70
90
88
88
88
88
90
90
60
98
ENDCHAR
STARTCHAR 226D
ENCODING 8813
SWIDTH 600 0
DWIDTH 10 0
BBX 8 11 1 0
BITMAP
06
04
85
FF
7E
08
7E
FF
D1
A1
60
ENDCHAR
STARTCHAR 226E
ENCODING 8814
SWIDTH 600 0
DWIDTH 10 0
BBX 8 14 1 -1
BITMAP
02
04
04
05
0E
38
E8
D0
70
1C
27
21
20
40
ENDCHAR
STARTCHAR 226F
ENCODING 8815
SWIDTH 600 0
DWIDTH 10 0
BBX 8 14 1 -1
BITMAP
02
04
04
C4
78
1C
0F
13
1E
38
E0
A0
20
40
ENDCHAR
STARTCHAR 2270
ENCODING 8816
SWIDTH 600 0
DWIDTH 10 0
BBX 8 15 1 -2
BITMAP
02
03
07
1C
64
C8
78
1C
17
11
10
20
FF
20
40
ENDCHAR
STARTCHAR 2271
ENCODING 8817
SWIDTH 600 0
DWIDTH 10 0
BBX 8 15 1 -2
BITMAP
02
C2
74
1C
07
09
0E
38
F0
90
10
20
FF
20
40
ENDCHAR
STARTCHAR 2272
ENCODING 8818
SWIDTH 600 0
DWIDTH 10 0
BBX 8 12 1 0
BITMAP
01
07
1C
70
C0
E0
38
0E
03
00
71
DF
ENDCHAR
STARTCHAR 2273
ENCODING 8819
SWIDTH 600 0
DWIDTH 10 0
BBX 8 12 1 0
BITMAP
80
E0
38
0E
03
07
1C
70
C0
00
73
CE
ENDCHAR
STARTCHAR 227A
ENCODING 8826
SWIDTH 600 0
DWIDTH 10 0
BBX 8 10 1 1
BITMAP
03
03
06
0C
F8
F8
1C
06
02
03
ENDCHAR
STARTCHAR 227B
ENCODING 8827
SWIDTH 600 0
DWIDTH 10 0
BBX 8 10 1 1
BITMAP
C0
40
60
38
0F
0F
38
60
40
C0
ENDCHAR
STARTCHAR 227C
ENCODING 8828
SWIDTH 600 0
DWIDTH 10 0
BBX 8 12 1 0
BITMAP
03
02
06
1C
F0
F8
0E
06
03
00
00
FF
ENDCHAR
STARTCHAR 2282
ENCODING 8834
SWIDTH 600 0
DWIDTH 10 0
BBX 9 8 1 2
BITMAP
7F80
C000
8000
8000
8000
8000
C000
7F80
ENDCHAR
STARTCHAR 2283
ENCODING 8835
SWIDTH 600 0
DWIDTH 10 0
BBX 9 8 1 2
BITMAP
FE00
0300
0100
0180
0180
0100
0300
FE00
ENDCHAR
STARTCHAR 2284
ENCODING 8836
SWIDTH 600 0
DWIDTH 10 0
BBX 9 14 1 -1
BITMAP
0200
0200
0400
7F80
CC00
8800
8800
9000
9000
D000
7F80
2000
2000
4000
ENDCHAR
STARTCHAR 2285
ENCODING 8837
SWIDTH 600 0
DWIDTH 10 0
BBX 9 14 1 -1
BITMAP
0200
0200
0400
FE00
0B00
0900
0980
1980
1100
1300
FE00
2000
2000
4000
ENDCHAR
STARTCHAR 2286
ENCODING 8838
SWIDTH 600 0
DWIDTH 10 0
BBX 9 11 1 0
BITMAP
7F80
C000
8000
8000
8000
8000
C000
7F80
0000
0000
FF80
ENDCHAR
STARTCHAR 2287
ENCODING 8839
SWIDTH 600 0
DWIDTH 10 0
BBX 9 11 1 0
BITMAP
FE00
0300
0100
0180
0180
0100
0300
FE00
0000
0000
FF00
ENDCHAR
STARTCHAR 2288
ENCODING 8840
SWIDTH 600 0
DWIDTH 10 0
BBX 9 16 1 -2
BITMAP
0100
0200
0200
7F80
C400
8400
8C00
8800
8800
D800
7F80
1000
2000
FF80
6000
4000
ENDCHAR
STARTCHAR 2289
ENCODING 8841
SWIDTH 600 0
DWIDTH 10 0
BBX 9 16 1 -2
BITMAP
0100
0200
0200
FE00
0700
0500
0D80
0980
0900
1B00
FE00
1000
2000
FF00
6000
4000
ENDCHAR
STARTCHAR 228E
ENCODING 8846
SWIDTH 600 0
DWIDTH 10 0
BBX 8 12 1 0
BITMAP
81
81
81
81
81
81
89
89
BD
89
C3
7E
ENDCHAR
STARTCHAR 228F
ENCODING 8847
SWIDTH 600 0
DWIDTH 10 0
BBX 9 8 1 2
BITMAP
FF80
FF80
8000
8000
8000
8000
FF80
FF80
ENDCHAR
STARTCHAR 2290
ENCODING 8848
SWIDTH 600 0
DWIDTH 10 0
BBX 9 8 1 2
BITMAP
FF80
0180
0180
0180
0180
0180
0180
FF80
ENDCHAR
STARTCHAR 2291
ENCODING 8849
SWIDTH 600 0
DWIDTH 10 0
BBX 9 11 1 0
BITMAP
FF80
8000
8000
8000
8000
8000
8000
FF80
0000
0000
FF80
ENDCHAR
STARTCHAR 2292
ENCODING 8850
SWIDTH 600 0
DWIDTH 10 0
BBX 9 11 1 0
BITMAP
FF80
0180
0180
0180
0180
0180
0180
FF80
0000
0000
FF80
ENDCHAR
STARTCHAR 2293
ENCODING 8851
SWIDTH 600 0
DWIDTH 10 0
BBX 8 9 1 0
BITMAP
FF
C1
C1
C1
C1
C1
C1
C1
C1
ENDCHAR
STARTCHAR 2294
ENCODING 8852
SWIDTH 600 0
DWIDTH 10 0
BBX 8 9 1 0
BITMAP
C1
C1
C1
C1
C1
C1
C1
C1
FF
ENDCHAR
STARTCHAR 2295
ENCODING 8853
SWIDTH 600 0
DWIDTH 10 0
BBX 10 11 0 0
BITMAP
1E00
2D80
4CC0
8C40
8C40
FFC0
8C40
8C40
4C80
2D00
1E00
ENDCHAR
STARTCHAR 2296
ENCODING 8854
SWIDTH 600 0
DWIDTH 10 0
BBX 10 11 0 0
BITMAP
1E00
6180
40C0
8040
8040
BF40
8040
8040
40C0
6180
1E00
ENDCHAR
STARTCHAR 2297
ENCODING 8855
SWIDTH 600 0
DWIDTH 10 0
BBX 10 11 0 0
BITMAP
1E00
6180
61C0
B340
9E40
8C40
9E40
B340
61C0
6180
3F00
ENDCHAR
STARTCHAR 2298
ENCODING 8856
SWIDTH 600 0
DWIDTH 10 0
BBX 10 11 0 0
BITMAP
1E00
6180
41C0
8240
8440
8C40
8840
9040
70C0
6180
3F00
ENDCHAR
STARTCHAR 2299
ENCODING 8857
SWIDTH 600 0
DWIDTH 10 0
BBX 10 11 0 0
BITMAP
1E00
6180
40C0
8040
8040
8C40
8C40
8040
40C0
6180
1E00
ENDCHAR
STARTCHAR 229B
ENCODING 8859
SWIDTH 600 0
DWIDTH 10 0
BBX 10 10 0 0
BITMAP
3F00
4C80
8C40
FDC0
BF40
8C40
9A40
F340
6180
3F00
ENDCHAR
STARTCHAR 229C
ENCODING 8860
SWIDTH 600 0
DWIDTH 10 0
BBX 10 11 0 0
BITMAP
1E00
7180
40C0
8040
FFC0
8040
8040
FFC0
8040
6180
3F00
ENDCHAR
STARTCHAR 229D
ENCODING 8861
SWIDTH 600 0
DWIDTH 10 0
BBX 10 11 0 0
BITMAP
1E00
6180
40C0
8040
8040
FFC0
8040
8040
40C0
6180
3F00
ENDCHAR
STARTCHAR 229E
ENCODING 8862
SWIDTH 600 0
DWIDTH 10 0
BBX 10 10 0 0
BITMAP
FFC0
C0C0
A1C0
9240
8C40
8C40
9340
A1C0
C0C0
FFC0
ENDCHAR
STARTCHAR 229F
ENCODING 8863
SWIDTH 600 0
DWIDTH 10 0
BBX 10 10 0 0
BITMAP
FFC0
8040
8040
8040
BF40
8040
8040
8040
8040
FFC0
ENDCHAR
STARTCHAR 22A0
ENCODING 8864
SWIDTH 600 0
DWIDTH 10 0
BBX 10 10 0 1
BITMAP
FFC0
8C40
8C40
8C40
8C40
FFC0
8C40
8C40
8C40
FFC0
ENDCHAR
STARTCHAR 22A1
ENCODING 8865
SWIDTH 600 0
DWIDTH 10 0
BBX 10 10 0 0
BITMAP
FFC0
8040
8040
8040
8C40
8C40
8040
8040
8040
FFC0
ENDCHAR
STARTCHAR 22A2
ENCODING 8866
SWIDTH 600 0
DWIDTH 10 0
BBX 10 10 0 0
BITMAP
C000
C000
C000
C000
FFC0
C000
C000
C000
C000
C000
ENDCHAR
STARTCHAR 22A3
ENCODING 8867
SWIDTH 600 0
DWIDTH 10 0
BBX 10 10 0 0
BITMAP
0040
0040
0040
0040
FFC0
0040
0040
0040
0040
0040
ENDCHAR
STARTCHAR 22A4
ENCODING 8868
SWIDTH 600 0
DWIDTH 10 0
BBX 10 10 0 0
BITMAP
FFC0
0C00
0C00
0C00
0C00
0C00
0C00
0C00
0C00
0C00
ENDCHAR
STARTCHAR 22A5
ENCODING 8869
SWIDTH 600 0
DWIDTH 10 0
BBX 10 10 0 0
BITMAP
0C00
0C00
0C00
0C00
0C00
0C00
0C00
0C00
0C00
FFC0
ENDCHAR
STARTCHAR 22B4
ENCODING 8884
SWIDTH 600 0
DWIDTH 10 0
BBX 8 12 1 0
BITMAP
01
07
1F
73
83
73
1F
07
01
00
00
FF
ENDCHAR
STARTCHAR 22B8
ENCODING 8888
SWIDTH 600 0
DWIDTH 10 0
BBX 10 3 0 4
BITMAP
01C0
FE40
01C0
ENDCHAR
STARTCHAR 22BB
ENCODING 8891
SWIDTH 600 0
DWIDTH 10 0
BBX 8 12 1 0
BITMAP
C1
C3
42
66
26
34
3C
1C
18
00
00
FF
ENDCHAR
STARTCHAR 22BC
ENCODING 8892
SWIDTH 600 0
DWIDTH 10 0
BBX 8 11 1 2
BITMAP
FF
00
00
18
3C
3C
24
66
62
43
C3
ENDCHAR
STARTCHAR 22BD
ENCODING 8893
SWIDTH 600 0
DWIDTH 10 0
BBX 8 11 1 2
BITMAP
FF
00
00
C3
43
62
66
26
34
3C
18
ENDCHAR
STARTCHAR 22C2
ENCODING 8898
SWIDTH 600 0
DWIDTH 10 0
BBX 8 12 1 0
BITMAP
7E
C3
81
81
81
81
81
81
81
81
81
81
ENDCHAR
STARTCHAR 22C3
ENCODING 8899
SWIDTH 600 0
DWIDTH 10 0
BBX 8 12 1 0
BITMAP
81
81
81
81
81
81
81
81
81
81
C3
7E
ENDCHAR
STARTCHAR 22C4
ENCODING 8900
SWIDTH 600 0
DWIDTH 10 0
BBX 5 5 3 3
BITMAP
20
50
98
60
20
ENDCHAR
STARTCHAR 22C6
ENCODING 8902
SWIDTH 600 0
DWIDTH 10 0
BBX 4 5 3 3
BITMAP
20
20
F0
60
90
ENDCHAR
STARTCHAR 22C8
ENCODING 8904
SWIDTH 600 0
DWIDTH 10 0
BBX 10 10 0 1
BITMAP
8040
C0C0
A140
9240
8C40
8C40
9240
A1C0
C0C0
8040
ENDCHAR
STARTCHAR 22C9
ENCODING 8905
SWIDTH 600 0
DWIDTH 10 0
BBX 10 10 0 1
BITMAP
8040
C080
A100
9200
8C00
8C00
9200
A180
C0C0
8040
ENDCHAR
STARTCHAR 22CA
ENCODING 8906
SWIDTH 600 0
DWIDTH 10 0
BBX 10 10 0 1
BITMAP
8040
40C0
2140
1240
0C40
0C40
1240
21C0
40C0
8040
ENDCHAR
STARTCHAR 22CE
ENCODING 8910
SWIDTH 600 0
DWIDTH 10 0
BBX 10 9 0 0
BITMAP
E1C0
3300
1200
1E00
0C00
0C00
0C00
0C00
0C00
ENDCHAR
STARTCHAR 22D0
ENCODING 8912
SWIDTH 600 0
DWIDTH 10 0
BBX 9 10 1 1
BITMAP
3F80
C000
8000
9F80
B000
B000
9F80
8000
C000
7F80
ENDCHAR
STARTCHAR 22E2
ENCODING 8930
SWIDTH 600 0
DWIDTH 10 0
BBX 9 16 1 -2
BITMAP
0300
0200
0200
FF80
8400
8400
8C00
8800
8800
9000
FF80
1000
2000
FF80
6000
4000
ENDCHAR
STARTCHAR 22EE
ENCODING 8942
SWIDTH 600 0
DWIDTH 10 0
BBX 2 10 4 0
BITMAP
C0
C0
00
00
C0
C0
00
00
C0
C0
ENDCHAR
STARTCHAR 22EF
ENCODING 8943
SWIDTH 600 0
DWIDTH 10 0
BBX 10 2 0 4
BITMAP
CCC0
CCC0
ENDCHAR
STARTCHAR 22F0
ENCODING 8944
SWIDTH 600 0
DWIDTH 10 0
BBX 10 10 0 0
BITMAP
00C0
00C0
0000
0000
0C00
0C00
0000
0000
C000
C000
ENDCHAR
STARTCHAR 22F1
ENCODING 8945
SWIDTH 600 0
DWIDTH 10 0
BBX 10 10 0 0
BITMAP
C000
C000
0000
0000
0C00
0C00
0000
0000
00C0
00C0
ENDCHAR
STARTCHAR 2302
ENCODING 8962
SWIDTH 600 0
DWIDTH 10 0
BBX 8 10 1 0
BITMAP
08
18
24
42
81
81
81
81
81
FF
ENDCHAR
STARTCHAR 2303
ENCODING 8963
SWIDTH 600 0
DWIDTH 10 0
BBX 9 5 1 8
BITMAP
0800
1800
3C00
6600
C380
ENDCHAR
STARTCHAR 2304
ENCODING 8964
SWIDTH 600 0
DWIDTH 10 0
BBX 10 6 0 0
BITMAP
8040
C040
6180
3300
1E00
0C00
ENDCHAR
STARTCHAR 2305
ENCODING 8965
SWIDTH 600 0
DWIDTH 10 0
BBX 9 7 1 5
BITMAP
FF00
0000
0800
1C00
3400
6200
C180
ENDCHAR
STARTCHAR 2308
ENCODING 8968
SWIDTH 600 0
DWIDTH 10 0
BBX 5 16 3 -2
BITMAP
F8
C0
C0
C0
C0
C0
C0
C0
C0
C0
C0
C0
C0
C0
C0
C0
ENDCHAR
STARTCHAR 2309
ENCODING 8969
SWIDTH 600 0
DWIDTH 10 0
BBX 4 16 3 -2
BITMAP
F0
30
30
30
30
30
30
30
30
30
30
30
30
30
30
30
ENDCHAR
STARTCHAR 230A
ENCODING 8970
SWIDTH 600 0
DWIDTH 10 0
BBX 5 16 3 -2
BITMAP
C0
C0
C0
C0
C0
C0
C0
C0
C0
C0
C0
C0
C0
C0
C0
F8
ENDCHAR
STARTCHAR 230B
ENCODING 8971
SWIDTH 600 0
DWIDTH 10 0
BBX 4 16 3 -2
BITMAP
30
30
30
30
30
30
30
30
30
30
30
30
30
30
30
F0
ENDCHAR
STARTCHAR 2318
ENCODING 8984
SWIDTH 600 0
DWIDTH 10 0
BBX 10 10 0 1
BITMAP
71C0
9240
9240
7FC0
1200
1200
7FC0
9240
9240
73C0
ENDCHAR
STARTCHAR 231C
ENCODING 8988
SWIDTH 600 0
DWIDTH 10 0
BBX 5 5 3 9
BITMAP
F8
C0
C0
C0
C0
ENDCHAR
STARTCHAR 231D
ENCODING 8989
SWIDTH 600 0
DWIDTH 10 0
BBX 5 5 2 9
BITMAP
F8
18
18
18
18
ENDCHAR
STARTCHAR 231E
ENCODING 8990
SWIDTH 600 0
DWIDTH 10 0
BBX 5 5 3 -2
BITMAP
C0
C0
C0
C0
F8
ENDCHAR
STARTCHAR 231F
ENCODING 8991
SWIDTH 600 0
DWIDTH 10 0
BBX 5 5 2 -2
BITMAP
18
18
18
18
F8
ENDCHAR
STARTCHAR 2324
ENCODING 8996
SWIDTH 600 0
DWIDTH 10 0
BBX 10 5 0 7
BITMAP
E5C0
0C00
1200
3100
6080
ENDCHAR
STARTCHAR 2325
ENCODING 8997
SWIDTH 600 0
DWIDTH 10 0
BBX 10 12 0 0
BITMAP
F1C0
1000
1800
0800
0800
0C00
0C00
0400
0600
0600
0200
03C0
ENDCHAR
STARTCHAR 2326
ENCODING 8998
SWIDTH 600 0
DWIDTH 10 0
BBX 14 11 -1 1
BITMAP
3F80
FFC0
DEE0
CC70
E4F8
F3FC
E1F8
C4F0
8E60
DFC0
7F80
ENDCHAR
STARTCHAR 2328
ENCODING 9000
SWIDTH 600 0
DWIDTH 10 0
BBX 13 10 -1 1
BITMAP
FFF0
A488
A488
FFC8
CA48
CA48
FFF8
8078
8078
FFF0
ENDCHAR
STARTCHAR 232B
ENCODING 9003
SWIDTH 600 0
DWIDTH 10 0
BBX 14 11 -3 1
BITMAP
07F0
0FFC
1DEC
18CC
3C5C
FF3C
7E1C
3C8C
18C4
0DEC
07FC
ENDCHAR
STARTCHAR 2336
ENCODING 9014
SWIDTH 600 0
DWIDTH 10 0
BBX 10 13 0 0
BITMAP
FFC0
0400
0400
0400
0400
0400
0400
0400
0400
0400
0400
0400
FFC0
ENDCHAR
STARTCHAR 2337
ENCODING 9015
SWIDTH 600 0
DWIDTH 10 0
BBX 4 16 3 -2
BITMAP
F0
90
90
90
90
90
90
90
90
90
90
90
90
90
90
F0
ENDCHAR
STARTCHAR 2338
ENCODING 9016
SWIDTH 600 0
DWIDTH 10 0
BBX 10 16 0 -2
BITMAP
FFC0
8040
8040
8040
8040
FFC0
8040
8040
8040
FFC0
8040
8040
8040
8040
8040
FFC0
ENDCHAR
STARTCHAR 2339
ENCODING 9017
SWIDTH 600 0
DWIDTH 10 0
BBX 10 16 0 -2
BITMAP
FFC0
8040
8040
8C40
8E40
8C40
8040
8040
FFC0
8040
8C40
8E40
8C40
8040
8040
FFC0
ENDCHAR
STARTCHAR 233A
ENCODING 9018
SWIDTH 600 0
DWIDTH 10 0
BBX 10 16 0 -2
BITMAP
FFC0
8040
8040
8C40
9A40
B140
E0C0
C040
C040
E0C0
B140
9A40
8C40
8040
8040
FFC0
ENDCHAR
STARTCHAR 233B
ENCODING 9019
SWIDTH 600 0
DWIDTH 10 0
BBX 10 16 0 -2
BITMAP
FFC0
8040
8040
8040
8040
8040
8E40
9240
9240
8C40
8040
8040
8040
8040
8040
FFC0
ENDCHAR
STARTCHAR 233C
ENCODING 9020
SWIDTH 600 0
DWIDTH 10 0
BBX 10 16 0 -2
BITMAP
FFC0
8040
8040
9E40
E1C0
C0C0
8040
8040
8040
8040
C0C0
E1C0
9E40
8040
8040
FFC0
ENDCHAR
STARTCHAR 233D
ENCODING 9021
SWIDTH 600 0
DWIDTH 10 0
BBX 10 16 0 -2
BITMAP
0400
0400
0400
3F00
4480
8440
8440
8440
8440
8440
8440
4480
3F00
0400
0400
0400
ENDCHAR
STARTCHAR 233E
ENCODING 9022
SWIDTH 600 0
DWIDTH 10 0
BBX 10 11 0 1
BITMAP
1E00
6180
40C0
8C40
9240
9240
9240
8C40
40C0
6180
1E00
ENDCHAR
STARTCHAR 233F
ENCODING 9023
SWIDTH 600 0
DWIDTH 10 0
BBX 8 16 1 -2
BITMAP
03
02
06
06
04
0C
0C
08
FF
10
30
30
20
60
60
C0
ENDCHAR
STARTCHAR 2340
ENCODING 9024
SWIDTH 600 0
DWIDTH 10 0
BBX 8 16 1 -2
BITMAP
C0
40
60
20
30
30
10
18
FF
08
0C
04
06
06
02
03
ENDCHAR
STARTCHAR 2341
ENCODING 9025
SWIDTH 600 0
DWIDTH 10 0
BBX 10 16 0 -2
BITMAP
FFC0
8040
80C0
8140
8140
8240
8440
8440
8840
8840
9040
9040
A040
C040
C040
FFC0
ENDCHAR
STARTCHAR 2342
ENCODING 9026
SWIDTH 600 0
DWIDTH 10 0
BBX 10 16 0 -2
BITMAP
FFC0
C040
C040
A040
9040
9040
8840
8840
8440
8440
8240
8140
8140
80C0
8040
FFC0
ENDCHAR
STARTCHAR 2343
ENCODING 9027
SWIDTH 600 0
DWIDTH 10 0
BBX 10 16 0 -2
BITMAP
FFC0
8040
8040
8040
83C0
8E40
B840
E040
E040
B840
8E40
83C0
80C0
8040
8040
FFC0
ENDCHAR
STARTCHAR 2344
ENCODING 9028
SWIDTH 600 0
DWIDTH 10 0
BBX 10 16 0 -2
BITMAP
FFC0
8040
8040
C040
F040
9C40
8740
81C0
81C0
8740
9C40
F040
C040
8040
8040
FFC0
ENDCHAR
STARTCHAR 2345
ENCODING 9029
SWIDTH 600 0
DWIDTH 10 0
BBX 10 13 0 0
BITMAP
0C00
0C00
0C00
2C00
4C00
4C00
FFC0
CC00
4C00
2C00
0C00
0C00
0C00
ENDCHAR
STARTCHAR 2346
ENCODING 9030
SWIDTH 600 0
DWIDTH 10 0
BBX 11 13 0 0
BITMAP
0C00
0C00
0C00
0C80
0C80
0CC0
FFE0
0CC0
0C80
0C80
0C00
0C00
0C00
ENDCHAR
STARTCHAR 2347
ENCODING 9031
SWIDTH 600 0
DWIDTH 10 0
BBX 10 16 0 -2
BITMAP
FFC0
8040
8040
8040
8C40
8840
9040
BFC0
B040
9840
8C40
8040
8040
8040
8040
FFC0
ENDCHAR
STARTCHAR 2348
ENCODING 9032
SWIDTH 600 0
DWIDTH 10 0
BBX 10 16 0 -2
BITMAP
FFC0
8040
8040
8040
8C40
8640
8240
FF40
8340
8640
8C40
8040
8040
8040
8040
FFC0
ENDCHAR
STARTCHAR 2349
ENCODING 9033
SWIDTH 600 0
DWIDTH 10 0
BBX 10 17 0 -2
BITMAP
6000
2000
3000
1E00
7180
58C0
8840
8C40
8C40
8440
8640
46C0
6380
1F00
0300
0100
0180
ENDCHAR
STARTCHAR 234A
ENCODING 9034
SWIDTH 600 0
DWIDTH 10 0
BBX 10 13 0 -3
BITMAP
0C00
0C00
0C00
0C00
0C00
0C00
0C00
0C00
0C00
FFC0
0000
0000
FFC0
ENDCHAR
STARTCHAR 234B
ENCODING 9035
SWIDTH 600 0
DWIDTH 10 0
BBX 8 16 1 -2
BITMAP
08
08
18
1C
3C
3C
2C
2E
6E
6A
4A
4B
CB
FF
08
08
ENDCHAR
STARTCHAR 234C
ENCODING 9036
SWIDTH 600 0
DWIDTH 10 0
BBX 10 16 0 -2
BITMAP
FFC0
8040
8040
8040
C0C0
C0C0
A0C0
A140
A140
9240
9240
9240
8C40
8C40
8040
FFC0
ENDCHAR
STARTCHAR 234D
ENCODING 9037
SWIDTH 600 0
DWIDTH 10 0
BBX 10 16 0 -2
BITMAP
FFC0
8040
8C40
8E40
9E40
9A40
9240
9340
B340
B140
A140
E1C0
E1C0
FFC0
8040
FFC0
ENDCHAR
STARTCHAR 234E
ENCODING 9038
SWIDTH 600 0
DWIDTH 10 0
BBX 10 10 0 0
BITMAP
0C00
0C00
1E00
2D00
2D00
2D00
1E00
0C00
0C00
FFC0
ENDCHAR
STARTCHAR 234F
ENCODING 9039
SWIDTH 600 0
DWIDTH 10 0
BBX 10 13 0 0
BITMAP
0400
0E00
3F00
0C80
0C00
0C00
FFC0
0C00
0C00
0C00
0C00
0C00
0C00
ENDCHAR
STARTCHAR 2350
ENCODING 9040
SWIDTH 600 0
DWIDTH 10 0
BBX 10 16 0 -2
BITMAP
FFC0
8040
8C40
9E40
BF40
ADC0
8C40
8C40
8C40
8C40
8C40
8C40
8C40
8C40
8C40
FFC0
ENDCHAR
STARTCHAR 2351
ENCODING 9041
SWIDTH 600 0
DWIDTH 10 0
BBX 10 13 0 0
BITMAP
FFC0
0000
0000
FFC0
0C00
0C00
0C00
0C00
0C00
0C00
0C00
0C00
0C00
ENDCHAR
STARTCHAR 2352
ENCODING 9042
SWIDTH 600 0
DWIDTH 10 0
BBX 8 16 1 -2
BITMAP
08
08
FF
CB
4B
4A
6A
6E
2E
2C
3C
3C
1C
18
08
08
ENDCHAR
STARTCHAR 2353
ENCODING 9043
SWIDTH 600 0
DWIDTH 10 0
BBX 10 16 0 -2
BITMAP
FFC0
8040
8C40
8C40
9240
9240
9240
A140
A140
A0C0
C0C0
C0C0
8040
8040
8040
FFC0
ENDCHAR
STARTCHAR 2354
ENCODING 9044
SWIDTH 600 0
DWIDTH 10 0
BBX 10 16 0 -2
BITMAP
FFC0
8040
FFC0
E0C0
E1C0
A1C0
B140
B340
9340
9240
9A40
9E40
8E40
8C40
8040
FFC0
ENDCHAR
STARTCHAR 2355
ENCODING 9045
SWIDTH 600 0
DWIDTH 10 0
BBX 10 10 0 0
BITMAP
FFC0
0C00
0C00
0C00
1E00
2D00
2D00
1E00
0C00
0C00
ENDCHAR
STARTCHAR 2356
ENCODING 9046
SWIDTH 600 0
DWIDTH 10 0
BBX 10 13 0 0
BITMAP
0C00
0C00
0C00
0C00
0C00
0C00
FFC0
0C00
0C00
0C00
3F80
1E00
0C00
ENDCHAR
STARTCHAR 2357
ENCODING 9047
SWIDTH 600 0
DWIDTH 10 0
BBX 10 16 0 -2
BITMAP
FFC0
8C40
8C40
8C40
8C40
8C40
8C40
8C40
8C40
8C40
ADC0
BF40
9E40
8C40
8040
FFC0
ENDCHAR
STARTCHAR 2358
ENCODING 9048
SWIDTH 600 0
DWIDTH 10 0
BBX 6 15 2 -3
BITMAP
30
30
30
30
30
00
00
00
00
00
00
00
00
00
FC
ENDCHAR
STARTCHAR 2359
ENCODING 9049
SWIDTH 600 0
DWIDTH 10 0
BBX 8 15 1 -3
BITMAP
18
18
3C
34
24
26
66
62
42
43
C3
FF
00
00
FF
ENDCHAR
STARTCHAR 235A
ENCODING 9050
SWIDTH 600 0
DWIDTH 10 0
BBX 10 14 0 -3
BITMAP
0400
0E00
1300
2180
40C0
8040
4080
2100
1200
0C00
0400
0000
0000
FFC0
ENDCHAR
STARTCHAR 235B
ENCODING 9051
SWIDTH 600 0
DWIDTH 10 0
BBX 6 10 2 -3
BITMAP
30
48
48
30
00
00
00
00
00
FC
ENDCHAR
STARTCHAR 235C
ENCODING 9052
SWIDTH 600 0
DWIDTH 10 0
BBX 10 14 0 -3
BITMAP
1E00
6180
4040
8040
8040
8040
8040
8040
40C0
6180
1E00
0000
0000
FFC0
ENDCHAR
STARTCHAR 235D
ENCODING 9053
SWIDTH 600 0
DWIDTH 10 0
BBX 8 10 1 0
BITMAP
3C
42
5D
A5
A5
99
81
81
81
81
ENDCHAR
STARTCHAR 235E
ENCODING 9054
SWIDTH 600 0
DWIDTH 10 0
BBX 10 16 0 -2
BITMAP
FFC0
8040
8C40
8C40
8C40
8C40
8C40
8040
8040
8040
8040
8040
8040
8040
8040
FFC0
ENDCHAR
STARTCHAR 235F
ENCODING 9055
SWIDTH 600 0
DWIDTH 10 0
BBX 10 11 0 1
BITMAP
1E00
6180
40C0
8440
9440
8E40
8C40
8040
40C0
6180
1E00
ENDCHAR
STARTCHAR 2360
ENCODING 9056
SWIDTH 600 0
DWIDTH 10 0
BBX 10 16 0 -2
BITMAP
FFC0
8040
8040
8C40
8E40
8C40
8040
8040
8040
8040
8C40
8E40
8C40
8040
8040
FFC0
ENDCHAR
STARTCHAR 2361
ENCODING 9057
SWIDTH 600 0
DWIDTH 10 0
BBX 10 13 0 0
BITMAP
3300
3300
0000
FFC0
0C00
0C00
0C00
0C00
0C00
0C00
0C00
0C00
0C00
ENDCHAR
STARTCHAR 2362
ENCODING 9058
SWIDTH 600 0
DWIDTH 10 0
BBX 8 16 1 0
BITMAP
66
66
00
00
FF
C3
43
42
62
66
26
24
34
3C
1C
18
ENDCHAR
STARTCHAR 2363
ENCODING 9059
SWIDTH 600 0
DWIDTH 10 0
BBX 6 8 2 4
BITMAP
CC
CC
00
00
10
78
30
48
ENDCHAR
STARTCHAR 2364
ENCODING 9060
SWIDTH 600 0
DWIDTH 10 0
BBX 6 8 2 3
BITMAP
CC
CC
00
00
38
48
48
30
ENDCHAR
STARTCHAR 2365
ENCODING 9061
SWIDTH 600 0
DWIDTH 10 0
BBX 10 15 0 1
BITMAP
3300
3300
0000
0000
1E00
6180
40C0
8040
8040
8040
8040
8040
40C0
6180
1E00
ENDCHAR
STARTCHAR 2366
ENCODING 9062
SWIDTH 600 0
DWIDTH 10 0
BBX 8 16 1 -2
BITMAP
08
08
08
89
89
89
89
89
89
89
49
6A
1C
08
08
08
ENDCHAR
STARTCHAR 2367
ENCODING 9063
SWIDTH 600 0
DWIDTH 10 0
BBX 9 16 1 -2
BITMAP
0800
0800
0800
0800
0800
7F80
8800
8800
8800
8800
8800
7F80
0800
0800
0800
0800
ENDCHAR
STARTCHAR 2368
ENCODING 9064
SWIDTH 600 0
DWIDTH 10 0
BBX 8 7 1 5
BITMAP
66
66
00
00
71
DB
CF
ENDCHAR
STARTCHAR 2369
ENCODING 9065
SWIDTH 600 0
DWIDTH 10 0
BBX 8 13 1 1
BITMAP
66
66
00
00
C0
70
1C
07
03
0E
38
E0
80
ENDCHAR
STARTCHAR 236A
ENCODING 9066
SWIDTH 600 0
DWIDTH 10 0
BBX 6 8 2 2
BITMAP
FC
FC
00
30
30
20
60
60
ENDCHAR
STARTCHAR 236B
ENCODING 9067
SWIDTH 600 0
DWIDTH 10 0
BBX 8 16 1 0
BITMAP
32
4E
00
00
FF
C3
43
42
62
66
26
24
34
3C
1C
18
ENDCHAR
STARTCHAR 236C
ENCODING 9068
SWIDTH 600 0
DWIDTH 10 0
BBX 8 12 1 0
BITMAP
3C
66
43
43
F3
DB
CF
C3
C3
43
62
3C
ENDCHAR
STARTCHAR 236D
ENCODING 9069
SWIDTH 600 0
DWIDTH 10 0
BBX 8 16 1 -1
BITMAP
08
08
08
08
08
08
08
08
79
CF
08
08
08
08
08
08
ENDCHAR
STARTCHAR 236E
ENCODING 9070
SWIDTH 600 0
DWIDTH 10 0
BBX 6 15 2 -3
BITMAP
30
38
10
00
00
00
00
30
30
20
60
60
00
00
FC
ENDCHAR
STARTCHAR 236F
ENCODING 9071
SWIDTH 600 0
DWIDTH 10 0
BBX 10 16 0 -2
BITMAP
FFC0
8040
8140
8240
8240
FFC0
8440
8440
8840
FFC0
9840
9040
9040
A040
8040
FFC0
ENDCHAR
STARTCHAR 2370
ENCODING 9072
SWIDTH 600 0
DWIDTH 10 0
BBX 10 16 0 -2
BITMAP
FFC0
8040
BE40
8740
8340
8140
8340
9E40
9840
9840
8040
8040
9840
9840
8040
FFC0
ENDCHAR
STARTCHAR 2371
ENCODING 9073
SWIDTH 600 0
DWIDTH 10 0
BBX 8 13 1 1
BITMAP
32
4E
00
00
C1
C3
42
62
66
24
34
1C
18
ENDCHAR
STARTCHAR 2372
ENCODING 9074
SWIDTH 600 0
DWIDTH 10 0
BBX 8 13 1 1
BITMAP
32
4E
00
00
18
18
3C
34
26
66
42
43
C3
ENDCHAR
STARTCHAR 2373
ENCODING 9075
SWIDTH 600 0
DWIDTH 10 0
BBX 8 10 1 0
BITMAP
F8
18
18
18
18
18
18
18
0C
0F
ENDCHAR
STARTCHAR 2374
ENCODING 9076
SWIDTH 600 0
DWIDTH 10 0
BBX 7 12 2 -3
BITMAP
78
CC
86
86
86
86
86
C4
BC
80
80
80
ENDCHAR
STARTCHAR 2375
ENCODING 9077
SWIDTH 600 0
DWIDTH 10 0
BBX 8 9 1 0
BITMAP
42
C3
81
99
99
99
99
D9
77
ENDCHAR
STARTCHAR 2376
ENCODING 9078
SWIDTH 600 0
DWIDTH 10 0
BBX 8 12 1 -3
BITMAP
79
CF
C6
C6
C6
C6
C6
CF
79
00
00
FF
ENDCHAR
STARTCHAR 2377
ENCODING 9079
SWIDTH 600 0
DWIDTH 10 0
BBX 8 12 1 -3
BITMAP
3E
63
40
60
3C
60
C0
C3
7E
00
00
7F
ENDCHAR
STARTCHAR 2378
ENCODING 9080
SWIDTH 600 0
DWIDTH 10 0
BBX 8 12 1 -3
BITMAP
F8
18
18
18
18
18
18
18
0F
00
00
FF
ENDCHAR
STARTCHAR 2379
ENCODING 9081
SWIDTH 600 0
DWIDTH 10 0
BBX 8 12 1 -3
BITMAP
42
C3
C1
81
99
99
99
D9
F7
00
00
FF
ENDCHAR
STARTCHAR 237A
ENCODING 9082
SWIDTH 600 0
DWIDTH 10 0
BBX 8 9 1 0
BITMAP
79
4F
C6
C6
C6
C6
C6
C7
79
ENDCHAR
STARTCHAR 2389
ENCODING 9097
SWIDTH 600 0
DWIDTH 10 0
BBX 10 11 0 1
BITMAP
1E00
6180
40C0
8040
8040
E1C0
9140
9240
4CC0
6D80
1E00
ENDCHAR
STARTCHAR 238A
ENCODING 9098
SWIDTH 600 0
DWIDTH 10 0
BBX 10 11 0 1
BITMAP
1E00
6180
40C0
FFC0
C0C0
A140
A140
9240
4A40
6D80
1E00
ENDCHAR
STARTCHAR 238B
ENCODING 9099
SWIDTH 600 0
DWIDTH 10 0
BBX 10 9 0 2
BITMAP
FF00
E180
F0C0
9840
0C40
4640
60C0
3180
1F00
ENDCHAR
STARTCHAR 2395
ENCODING 9109
SWIDTH 600 0
DWIDTH 10 0
BBX 10 16 0 -2
BITMAP
FFC0
8040
8040
8040
8040
8040
8040
8040
8040
8040
8040
8040
8040
8040
8040
FFC0
ENDCHAR
STARTCHAR 239B
ENCODING 9115
SWIDTH 600 0
DWIDTH 10 0
BBX 5 19 4 -5
BITMAP
18
30
60
40
40
C0
C0
C0
C0
C0
C0
C0
C0
C0
C0
C0
C0
C0
C0
ENDCHAR
STARTCHAR 239C
ENCODING 9116
SWIDTH 600 0
DWIDTH 10 0
BBX 2 23 4 -5
BITMAP
C0
C0
C0
C0
C0
C0
C0
C0
C0
C0
C0
C0
C0
C0
C0
C0
C0
C0
C0
C0
C0
C0
C0
ENDCHAR
STARTCHAR 239D
ENCODING 9117
SWIDTH 600 0
DWIDTH 10 0
BBX 5 19 4 -2
BITMAP
C0
C0
C0
C0
C0
C0
C0
C0
C0
C0
C0
C0
C0
C0
40
40
60
30
18
ENDCHAR
STARTCHAR 239E
ENCODING 9118
SWIDTH 600 0
DWIDTH 10 0
BBX 5 19 1 -5
BITMAP
C0
60
30
10
18
18
18
18
18
18
18
18
18
18
18
18
18
18
18
ENDCHAR
STARTCHAR 239F
ENCODING 9119
SWIDTH 600 0
DWIDTH 10 0
BBX 2 23 4 -5
BITMAP
C0
C0
C0
C0
C0
C0
C0
C0
C0
C0
C0
C0
C0
C0
C0
C0
C0
C0
C0
C0
C0
C0
C0
ENDCHAR
STARTCHAR 23A0
ENCODING 9120
SWIDTH 600 0
DWIDTH 10 0
BBX 5 19 1 -2
BITMAP
18
18
18
18
18
18
18
18
18
18
18
18
18
18
18
10
30
60
C0
ENDCHAR
STARTCHAR 23A1
ENCODING 9121
SWIDTH 600 0
DWIDTH 10 0
BBX 5 19 4 -5
BITMAP
F8
C0
C0
C0
C0
C0
C0
C0
C0
C0
C0
C0
C0
C0
C0
C0
C0
C0
C0
ENDCHAR
STARTCHAR 23A2
ENCODING 9122
SWIDTH 600 0
DWIDTH 10 0
BBX 2 23 4 -5
BITMAP
C0
C0
C0
C0
C0
C0
C0
C0
C0
C0
C0
C0
C0
C0
C0
C0
C0
C0
C0
C0
C0
C0
C0
ENDCHAR
STARTCHAR 23A3
ENCODING 9123
SWIDTH 600 0
DWIDTH 10 0
BBX 5 19 4 -2
BITMAP
C0
C0
C0
C0
C0
C0
C0
C0
C0
C0
C0
C0
C0
C0
C0
C0
C0
C0
F8
ENDCHAR
STARTCHAR 23A4
ENCODING 9124
SWIDTH 600 0
DWIDTH 10 0
BBX 4 19 2 -5
BITMAP
F0
30
30
30
30
30
30
30
30
30
30
30
30
30
30
30
30
30
30
ENDCHAR
STARTCHAR 23A5
ENCODING 9125
SWIDTH 600 0
DWIDTH 10 0
BBX 2 23 4 -5
BITMAP
C0
C0
C0
C0
C0
C0
C0
C0
C0
C0
C0
C0
C0
C0
C0
C0
C0
C0
C0
C0
C0
C0
C0
ENDCHAR
STARTCHAR 23A6
ENCODING 9126
SWIDTH 600 0
DWIDTH 10 0
BBX 4 19 2 -2
BITMAP
30
30
30
30
30
30
30
30
30
30
30
30
30
30
30
30
30
30
F0
ENDCHAR
STARTCHAR 23A7
ENCODING 9127
SWIDTH 600 0
DWIDTH 10 0
BBX 4 19 4 -5
BITMAP
70
40
C0
C0
C0
C0
C0
C0
C0
C0
C0
C0
C0
C0
C0
C0
C0
C0
C0
ENDCHAR
STARTCHAR 23A8
ENCODING 9128
SWIDTH 600 0
DWIDTH 10 0
BBX 5 23 1 -5
BITMAP
18
18
18
18
18
18
18
18
18
18
18
E0
18
18
18
18
18
18
18
18
18
18
18
ENDCHAR
STARTCHAR 23A9
ENCODING 9129
SWIDTH 600 0
DWIDTH 10 0
BBX 4 19 4 -2
BITMAP
C0
C0
C0
C0
C0
C0
C0
C0
C0
C0
C0
C0
C0
C0
C0
C0
C0
C0
70
ENDCHAR
STARTCHAR 23AA
ENCODING 9130
SWIDTH 600 0
DWIDTH 10 0
BBX 2 23 4 -5
BITMAP
C0
C0
C0
C0
C0
C0
C0
C0
C0
C0
C0
C0
C0
C0
C0
C0
C0
C0
C0
C0
C0
C0
C0
ENDCHAR
STARTCHAR 23AB
ENCODING 9131
SWIDTH 600 0
DWIDTH 10 0
BBX 4 19 2 -5
BITMAP
E0
30
30
30
30
30
30
30
30
30
30
30
30
30
30
30
30
30
30
ENDCHAR
STARTCHAR 23AC
ENCODING 9132
SWIDTH 600 0
DWIDTH 10 0
BBX 5 23 4 -5
BITMAP
C0
C0
C0
C0
C0
C0
C0
C0
C0
C0
40
38
40
C0
C0
C0
C0
C0
C0
C0
C0
C0
C0
ENDCHAR
STARTCHAR 23AD
ENCODING 9133
SWIDTH 600 0
DWIDTH 10 0
BBX 4 19 2 -2
BITMAP
30
30
30
30
30
30
30
30
30
30
30
30
30
30
30
30
30
30
E0
ENDCHAR
STARTCHAR 23CE
ENCODING 9166
SWIDTH 600 0
DWIDTH 10 0
BBX 10 12 0 1
BITMAP
03C0
0240
0A40
1A40
2A40
4E40
8040
8040
4FC0
3800
1800
0800
ENDCHAR
STARTCHAR 23FB
ENCODING 9211
SWIDTH 600 0
DWIDTH 10 0
BBX 11 13 0 0
BITMAP
0400
0C00
0C00
2C80
6DC0
CCC0
CCC0
CC60
CCC0
C0C0
E1C0
7F80
1E00
ENDCHAR
STARTCHAR 23FC
ENCODING 9212
SWIDTH 600 0
DWIDTH 10 0
BBX 11 11 0 0
BITMAP
1E00
7F80
61C0
CCC0
CC40
8C60
CC40
CCC0
61C0
7F80
1E00
ENDCHAR
STARTCHAR 23FD
ENCODING 9213
SWIDTH 600 0
DWIDTH 10 0
BBX 2 11 4 0
BITMAP
40
C0
C0
C0
C0
C0
C0
C0
C0
C0
C0
ENDCHAR
STARTCHAR 23FE
ENCODING 9214
SWIDTH 600 0
DWIDTH 10 0
BBX 10 10 0 0
BITMAP
2000
6000
6000
E000
E000
F000
F800
7FC0
3F80
1F00
ENDCHAR
STARTCHAR 2400
ENCODING 9216
SWIDTH 600 0
DWIDTH 10 0
BBX 8 13 1 0
BITMAP
88
C8
E8
A8
98
98
00
11
11
11
11
19
0E
ENDCHAR
STARTCHAR 2401
ENCODING 9217
SWIDTH 600 0
DWIDTH 10 0
BBX 8 13 1 0
BITMAP
F0
88
E0
38
88
F8
00
11
11
1F
11
11
11
ENDCHAR
STARTCHAR 2402
ENCODING 9218
SWIDTH 600 0
DWIDTH 10 0
BBX 9 12 1 1
BITMAP
F000
8800
F000
1800
8800
F000
0000
1980
0A00
0600
0E00
1980
ENDCHAR
STARTCHAR 2403
ENCODING 9219
SWIDTH 600 0
DWIDTH 10 0
BBX 9 12 1 1
BITMAP
F800
8000
8000
F000
8000
F800
0000
1980
0B00
0600
0E00
1980
ENDCHAR
STARTCHAR 2404
ENCODING 9220
SWIDTH 600 0
DWIDTH 10 0
BBX 9 13 1 0
BITMAP
F800
8000
8000
F000
8000
F800
0000
1F80
0400
0400
0400
0400
0400
ENDCHAR
STARTCHAR 2405
ENCODING 9221
SWIDTH 600 0
DWIDTH 10 0
BBX 9 13 1 -1
BITMAP
F800
8000
F000
8000
F800
0000
0E00
1900
1080
1580
1A80
0F00
0180
ENDCHAR
STARTCHAR 2406
ENCODING 9222
SWIDTH 600 0
DWIDTH 10 0
BBX 10 12 0 0
BITMAP
1000
3800
2800
6C00
7C00
C600
0040
0880
0900
0F00
0900
08C0
ENDCHAR
STARTCHAR 2407
ENCODING 9223
SWIDTH 600 0
DWIDTH 10 0
BBX 9 12 1 0
BITMAP
F800
8800
F000
8800
F800
0000
0800
0800
0800
0800
0800
0F80
ENDCHAR
STARTCHAR 2408
ENCODING 9224
SWIDTH 600 0
DWIDTH 10 0
BBX 9 12 1 0
BITMAP
F800
8800
F000
8800
F800
0000
0F00
1100
1E00
0300
1180
0F00
ENDCHAR
STARTCHAR 2409
ENCODING 9225
SWIDTH 600 0
DWIDTH 10 0
BBX 9 12 1 0
BITMAP
8800
8800
F800
8800
8800
0000
1F80
0400
0400
0400
0400
0400
ENDCHAR
STARTCHAR 240A
ENCODING 9226
SWIDTH 600 0
DWIDTH 10 0
BBX 9 12 1 0
BITMAP
C000
C000
C000
C000
C000
F800
0000
1F80
1800
1F00
1800
1800
ENDCHAR
STARTCHAR 240B
ENCODING 9227
SWIDTH 600 0
DWIDTH 10 0
BBX 10 12 0 0
BITMAP
C600
4C00
2800
2800
3000
0000
0FC0
0200
0200
0200
0200
0200
ENDCHAR
STARTCHAR 240C
ENCODING 9228
SWIDTH 600 0
DWIDTH 10 0
BBX 9 12 1 0
BITMAP
F800
8000
F800
8000
8000
8000
0000
1F80
1800
1F00
1800
1800
ENDCHAR
STARTCHAR 240D
ENCODING 9229
SWIDTH 600 0
DWIDTH 10 0
BBX 9 12 1 0
BITMAP
7000
8800
8000
8800
7000
0000
1F00
1180
1180
1F00
1300
1180
ENDCHAR
STARTCHAR 240E
ENCODING 9230
SWIDTH 600 0
DWIDTH 10 0
BBX 9 13 1 0
BITMAP
F000
8800
F000
1800
8800
F000
0000
0E00
1900
1080
1080
1900
0E00
ENDCHAR
STARTCHAR 240F
ENCODING 9231
SWIDTH 600 0
DWIDTH 10 0
BBX 8 12 1 0
BITMAP
F0
88
70
88
F8
00
1F
04
04
04
04
1F
ENDCHAR
STARTCHAR 2410
ENCODING 9232
SWIDTH 600 0
DWIDTH 10 0
BBX 8 12 1 0
BITMAP
F0
88
88
88
F0
00
1F
10
10
1F
10
1F
ENDCHAR
STARTCHAR 2411
ENCODING 9233
SWIDTH 600 0
DWIDTH 10 0
BBX 9 12 1 0
BITMAP
F000
8800
8800
8800
F000
0000
0600
0A00
1200
0200
0200
1F80
ENDCHAR
STARTCHAR 2412
ENCODING 9234
SWIDTH 600 0
DWIDTH 10 0
BBX 8 12 1 0
BITMAP
F0
88
88
88
F0
00
0E
19
11
03
0C
0F
ENDCHAR
STARTCHAR 2413
ENCODING 9235
SWIDTH 600 0
DWIDTH 10 0
BBX 8 12 1 0
BITMAP
F0
88
88
88
F0
00
1F
02
06
01
11
0E
ENDCHAR
STARTCHAR 2414
ENCODING 9236
SWIDTH 600 0
DWIDTH 10 0
BBX 8 13 1 0
BITMAP
F0
98
88
88
88
F0
00
02
04
0D
19
1F
01
ENDCHAR
STARTCHAR 2415
ENCODING 9237
SWIDTH 600 0
DWIDTH 10 0
BBX 9 12 1 0
BITMAP
8800
C800
A800
B800
9800
0000
1180
1100
1200
1E00
1200
1180
ENDCHAR
STARTCHAR 2416
ENCODING 9238
SWIDTH 600 0
DWIDTH 10 0
BBX 8 12 1 1
BITMAP
F0
88
F0
18
88
F0
00
19
1D
15
13
13
ENDCHAR
STARTCHAR 2417
ENCODING 9239
SWIDTH 600 0
DWIDTH 10 0
BBX 9 12 1 0
BITMAP
F800
8000
F000
8000
F800
0000
1F00
1100
1100
1F00
1080
1F00
ENDCHAR
STARTCHAR 2418
ENCODING 9240
SWIDTH 600 0
DWIDTH 10 0
BBX 8 12 1 1
BITMAP
70
88
80
80
88
70
00
19
1D
15
13
13
ENDCHAR
STARTCHAR 2419
ENCODING 9241
SWIDTH 600 0
DWIDTH 10 0
BBX 9 12 1 1
BITMAP
F800
8000
8000
F000
8000
F800
0000
1980
1A80
1680
1680
1080
ENDCHAR
STARTCHAR 241A
ENCODING 9242
SWIDTH 600 0
DWIDTH 10 0
BBX 9 13 1 0
BITMAP
F000
8800
F000
1800
8800
F000
0000
1F00
1100
1100
1F00
1080
1F00
ENDCHAR
STARTCHAR 241B
ENCODING 9243
SWIDTH 600 0
DWIDTH 10 0
BBX 9 12 1 0
BITMAP
F800
8000
F000
8000
F800
0000
0F00
1980
1000
1000
1980
0F00
ENDCHAR
STARTCHAR 241C
ENCODING 9244
SWIDTH 600 0
DWIDTH 10 0
BBX 9 12 1 0
BITMAP
F800
8000
F800
8000
8000
0000
0F00
1100
1E00
0300
1180
0F00
ENDCHAR
STARTCHAR 241D
ENCODING 9245
SWIDTH 600 0
DWIDTH 10 0
BBX 9 13 1 0
BITMAP
7000
8800
8000
9800
8800
7000
0000
0F00
1100
1E00
0300
1180
0F00
ENDCHAR
STARTCHAR 241E
ENCODING 9246
SWIDTH 600 0
DWIDTH 10 0
BBX 9 12 1 0
BITMAP
F800
8800
F800
9000
8800
0000
0F00
1100
1E00
0300
1180
0F00
ENDCHAR
STARTCHAR 241F
ENCODING 9247
SWIDTH 600 0
DWIDTH 10 0
BBX 9 13 1 0
BITMAP
8800
8800
8800
8800
8800
7000
0000
0F00
1100
1E00
0300
1180
0F00
ENDCHAR
STARTCHAR 2420
ENCODING 9248
SWIDTH 600 0
DWIDTH 10 0
BBX 9 13 1 0
BITMAP
F000
8800
F000
1800
8800
F000
0000
1F00
1180
1180
1F00
1000
1000
ENDCHAR
STARTCHAR 2421
ENCODING 9249
SWIDTH 600 0
DWIDTH 10 0
BBX 9 12 1 0
BITMAP
F000
8800
8800
8800
F000
0000
0800
0800
0800
0800
0800
0F80
ENDCHAR
STARTCHAR 2423
ENCODING 9251
SWIDTH 600 0
DWIDTH 10 0
BBX 9 3 1 -3
BITMAP
8180
8180
FF80
ENDCHAR
STARTCHAR 2424
ENCODING 9252
SWIDTH 600 0
DWIDTH 10 0
BBX 9 12 1 0
BITMAP
C800
C800
A800
B800
9800
8800
0000
0800
0800
0800
0800
0F80
ENDCHAR
STARTCHAR 2500
ENCODING 9472
SWIDTH 600 0
DWIDTH 10 0
BBX 11 2 0 5
BITMAP
FFE0
FFE0
ENDCHAR
STARTCHAR 2501
ENCODING 9473
SWIDTH 600 0
DWIDTH 10 0
BBX 11 3 0 5
BITMAP
FFE0
FFE0
FFE0
ENDCHAR
STARTCHAR 2502
ENCODING 9474
SWIDTH 600 0
DWIDTH 10 0
BBX 2 26 4 -7
BITMAP
C0
C0
C0
C0
C0
C0
C0
C0
C0
C0
C0
C0
C0
C0
C0
C0
C0
C0
C0
C0
C0
C0
C0
C0
C0
C0
ENDCHAR
STARTCHAR 2503
ENCODING 9475
SWIDTH 600 0
DWIDTH 10 0
BBX 4 26 3 -7
BITMAP
F0
F0
F0
F0
F0
F0
F0
F0
F0
F0
F0
F0
F0
F0
F0
F0
F0
F0
F0
F0
F0
F0
F0
F0
F0
F0
ENDCHAR
STARTCHAR 2504
ENCODING 9476
SWIDTH 600 0
DWIDTH 10 0
BBX 9 2 1 5
BITMAP
DB80
DB80
ENDCHAR
STARTCHAR 2505
ENCODING 9477
SWIDTH 600 0
DWIDTH 10 0
BBX 9 3 1 5
BITMAP
DB80
DB80
DB80
ENDCHAR
STARTCHAR 2506
ENCODING 9478
SWIDTH 600 0
DWIDTH 10 0
BBX 2 20 4 -4
BITMAP
C0
C0
C0
C0
C0
C0
00
C0
C0
C0
C0
C0
C0
00
C0
C0
C0
C0
C0
C0
ENDCHAR
STARTCHAR 2507
ENCODING 9479
SWIDTH 600 0
DWIDTH 10 0
BBX 4 20 3 -4
BITMAP
F0
F0
F0
F0
F0
F0
00
F0
F0
F0
F0
F0
F0
00
F0
F0
F0
F0
F0
F0
ENDCHAR
STARTCHAR 2508
ENCODING 9480
SWIDTH 600 0
DWIDTH 10 0
BBX 10 2 0 5
BITMAP
DAC0
DAC0
ENDCHAR
STARTCHAR 2509
ENCODING 9481
SWIDTH 600 0
DWIDTH 10 0
BBX 10 3 0 5
BITMAP
DAC0
DAC0
DAC0
ENDCHAR
STARTCHAR 250A
ENCODING 9482
SWIDTH 600 0
DWIDTH 10 0
BBX 2 19 4 -3
BITMAP
C0
C0
C0
C0
00
C0
C0
C0
C0
00
C0
C0
C0
C0
00
C0
C0
C0
C0
ENDCHAR
STARTCHAR 250B
ENCODING 9483
SWIDTH 600 0
DWIDTH 10 0
BBX 4 19 3 -3
BITMAP
F0
F0
F0
F0
00
F0
F0
F0
F0
00
F0
F0
F0
F0
00
F0
F0
F0
F0
ENDCHAR
STARTCHAR 250C
ENCODING 9484
SWIDTH 600 0
DWIDTH 10 0
BBX 7 14 4 -7
BITMAP
FE
FE
C0
C0
C0
C0
C0
C0
C0
C0
C0
C0
C0
C0
ENDCHAR
STARTCHAR 250D
ENCODING 9485
SWIDTH 600 0
DWIDTH 10 0
BBX 7 14 4 -6
BITMAP
FE
FE
FE
C0
C0
C0
C0
C0
C0
C0
C0
C0
C0
C0
ENDCHAR
STARTCHAR 250E
ENCODING 9486
SWIDTH 600 0
DWIDTH 10 0
BBX 8 14 3 -7
BITMAP
FF
FF
F0
F0
F0
F0
F0
F0
F0
F0
F0
F0
F0
F0
ENDCHAR
STARTCHAR 250F
ENCODING 9487
SWIDTH 600 0
DWIDTH 10 0
BBX 8 14 3 -6
BITMAP
FF
FF
FF
F0
F0
F0
F0
F0
F0
F0
F0
F0
F0
F0
ENDCHAR
STARTCHAR 2510
ENCODING 9488
SWIDTH 600 0
DWIDTH 10 0
BBX 6 14 0 -7
BITMAP
FC
FC
0C
0C
0C
0C
0C
0C
0C
0C
0C
0C
0C
0C
ENDCHAR
STARTCHAR 2511
ENCODING 9489
SWIDTH 600 0
DWIDTH 10 0
BBX 6 14 0 -6
BITMAP
FC
FC
FC
0C
0C
0C
0C
0C
0C
0C
0C
0C
0C
0C
ENDCHAR
STARTCHAR 2512
ENCODING 9490
SWIDTH 600 0
DWIDTH 10 0
BBX 7 14 0 -7
BITMAP
FE
FE
1E
1E
1E
1E
1E
1E
1E
1E
1E
1E
1E
1E
ENDCHAR
STARTCHAR 2513
ENCODING 9491
SWIDTH 600 0
DWIDTH 10 0
BBX 7 14 0 -6
BITMAP
FE
FE
FE
1E
1E
1E
1E
1E
1E
1E
1E
1E
1E
1E
ENDCHAR
STARTCHAR 2514
ENCODING 9492
SWIDTH 600 0
DWIDTH 10 0
BBX 7 14 4 5
BITMAP
C0
C0
C0
C0
C0
C0
C0
C0
C0
C0
C0
C0
FE
FE
ENDCHAR
STARTCHAR 2515
ENCODING 9493
SWIDTH 600 0
DWIDTH 10 0
BBX 7 15 4 5
BITMAP
C0
C0
C0
C0
C0
C0
C0
C0
C0
C0
C0
C0
FE
FE
FE
ENDCHAR
STARTCHAR 2516
ENCODING 9494
SWIDTH 600 0
DWIDTH 10 0
BBX 8 14 3 5
BITMAP
F0
F0
F0
F0
F0
F0
F0
F0
F0
F0
F0
F0
FF
FF
ENDCHAR
STARTCHAR 2517
ENCODING 9495
SWIDTH 600 0
DWIDTH 10 0
BBX 8 15 3 5
BITMAP
F0
F0
F0
F0
F0
F0
F0
F0
F0
F0
F0
F0
FF
FF
FF
ENDCHAR
STARTCHAR 2518
ENCODING 9496
SWIDTH 600 0
DWIDTH 10 0
BBX 6 14 0 5
BITMAP
0C
0C
0C
0C
0C
0C
0C
0C
0C
0C
0C
0C
FC
FC
ENDCHAR
STARTCHAR 2519
ENCODING 9497
SWIDTH 600 0
DWIDTH 10 0
BBX 6 15 0 5
BITMAP
0C
0C
0C
0C
0C
0C
0C
0C
0C
0C
0C
0C
FC
FC
FC
ENDCHAR
STARTCHAR 251A
ENCODING 9498
SWIDTH 600 0
DWIDTH 10 0
BBX 7 14 0 5
BITMAP
1E
1E
1E
1E
1E
1E
1E
1E
1E
1E
1E
1E
FE
FE
ENDCHAR
STARTCHAR 251B
ENCODING 9499
SWIDTH 600 0
DWIDTH 10 0
BBX 7 15 0 5
BITMAP
1E
1E
1E
1E
1E
1E
1E
1E
1E
1E
1E
1E
FE
FE
FE
ENDCHAR
STARTCHAR 251C
ENCODING 9500
SWIDTH 600 0
DWIDTH 10 0
BBX 7 26 4 -7
BITMAP
C0
C0
C0
C0
C0
C0
C0
C0
C0
C0
C0
C0
FE
FE
C0
C0
C0
C0
C0
C0
C0
C0
C0
C0
C0
C0
ENDCHAR
STARTCHAR 251D
ENCODING 9501
SWIDTH 600 0
DWIDTH 10 0
BBX 7 26 4 -6
BITMAP
C0
C0
C0
C0
C0
C0
C0
C0
C0
C0
C0
C0
FE
FE
FE
C0
C0
C0
C0
C0
C0
C0
C0
C0
C0
C0
ENDCHAR
STARTCHAR 251E
ENCODING 9502
SWIDTH 600 0
DWIDTH 10 0
BBX 8 26 3 -7
BITMAP
F0
F0
F0
F0
F0
F0
F0
F0
F0
F0
F0
F0
FF
FF
60
60
60
60
60
60
60
60
60
60
60
60
ENDCHAR
STARTCHAR 251F
ENCODING 9503
SWIDTH 600 0
DWIDTH 10 0
BBX 8 26 3 -7
BITMAP
60
60
60
60
60
60
60
60
60
60
60
60
FF
FF
F0
F0
F0
F0
F0
F0
F0
F0
F0
F0
F0
F0
ENDCHAR
STARTCHAR 2520
ENCODING 9504
SWIDTH 600 0
DWIDTH 10 0
BBX 8 26 3 -7
BITMAP
F0
F0
F0
F0
F0
F0
F0
F0
F0
F0
F0
F0
FF
FF
F0
F0
F0
F0
F0
F0
F0
F0
F0
F0
F0
F0
ENDCHAR
STARTCHAR 2521
ENCODING 9505
SWIDTH 600 0
DWIDTH 10 0
BBX 8 26 3 -6
BITMAP
F0
F0
F0
F0
F0
F0
F0
F0
F0
F0
F0
F0
FF
FF
FF
60
60
60
60
60
60
60
60
60
60
60
ENDCHAR
STARTCHAR 2522
ENCODING 9506
SWIDTH 600 0
DWIDTH 10 0
BBX 8 26 3 -6
BITMAP
60
60
60
60
60
60
60
60
60
60
60
60
FF
FF
FF
F0
F0
F0
F0
F0
F0
F0
F0
F0
F0
F0
ENDCHAR
STARTCHAR 2523
ENCODING 9507
SWIDTH 600 0
DWIDTH 10 0
BBX 8 26 3 -6
BITMAP
F0
F0
F0
F0
F0
F0
F0
F0
F0
F0
F0
F0
FF
FF
FF
F0
F0
F0
F0
F0
F0
F0
F0
F0
F0
F0
ENDCHAR
STARTCHAR 2524
ENCODING 9508
SWIDTH 600 0
DWIDTH 10 0
BBX 6 26 0 -7
BITMAP
0C
0C
0C
0C
0C
0C
0C
0C
0C
0C
0C
0C
FC
FC
0C
0C
0C
0C
0C
0C
0C
0C
0C
0C
0C
0C
ENDCHAR
STARTCHAR 2525
ENCODING 9509
SWIDTH 600 0
DWIDTH 10 0
BBX 6 26 0 -6
BITMAP
0C
0C
0C
0C
0C
0C
0C
0C
0C
0C
0C
0C
FC
FC
FC
0C
0C
0C
0C
0C
0C
0C
0C
0C
0C
0C
ENDCHAR
STARTCHAR 2526
ENCODING 9510
SWIDTH 600 0
DWIDTH 10 0
BBX 7 26 0 -7
BITMAP
1E
1E
1E
1E
1E
1E
1E
1E
1E
1E
1E
1E
FE
FE
0C
0C
0C
0C
0C
0C
0C
0C
0C
0C
0C
0C
ENDCHAR
STARTCHAR 2527
ENCODING 9511
SWIDTH 600 0
DWIDTH 10 0
BBX 7 24 0 -7
BITMAP
0C
0C
0C
0C
0C
0C
0C
0C
0C
0C
FE
FE
1E
1E
1E
1E
1E
1E
1E
1E
1E
1E
1E
1E
ENDCHAR
STARTCHAR 2528
ENCODING 9512
SWIDTH 600 0
DWIDTH 10 0
BBX 7 26 0 -7
BITMAP
1E
1E
1E
1E
1E
1E
1E
1E
1E
1E
1E
1E
FE
FE
1E
1E
1E
1E
1E
1E
1E
1E
1E
1E
1E
1E
ENDCHAR
STARTCHAR 2529
ENCODING 9513
SWIDTH 600 0
DWIDTH 10 0
BBX 7 26 0 -6
BITMAP
1E
1E
1E
1E
1E
1E
1E
1E
1E
1E
1E
1E
FE
FE
FE
0C
0C
0C
0C
0C
0C
0C
0C
0C
0C
0C
ENDCHAR
STARTCHAR 252A
ENCODING 9514
SWIDTH 600 0
DWIDTH 10 0
BBX 7 26 0 -6
BITMAP
0C
0C
0C
0C
0C
0C
0C
0C
0C
0C
0C
0C
FE
FE
FE
1E
1E
1E
1E
1E
1E
1E
1E
1E
1E
1E
ENDCHAR
STARTCHAR 252B
ENCODING 9515
SWIDTH 600 0
DWIDTH 10 0
BBX 7 26 0 -6
BITMAP
1E
1E
1E
1E
1E
1E
1E
1E
1E
1E
1E
1E
FE
FE
FE
1E
1E
1E
1E
1E
1E
1E
1E
1E
1E
1E
ENDCHAR
STARTCHAR 252C
ENCODING 9516
SWIDTH 600 0
DWIDTH 10 0
BBX 11 14 0 -7
BITMAP
FFE0
FFE0
0C00
0C00
0C00
0C00
0C00
0C00
0C00
0C00
0C00
0C00
0C00
0C00
ENDCHAR
STARTCHAR 252D
ENCODING 9517
SWIDTH 600 0
DWIDTH 10 0
BBX 11 14 0 -6
BITMAP
FFE0
FFE0
FC00
0C00
0C00
0C00
0C00
0C00
0C00
0C00
0C00
0C00
0C00
0C00
ENDCHAR
STARTCHAR 252E
ENCODING 9518
SWIDTH 600 0
DWIDTH 10 0
BBX 11 14 0 -6
BITMAP
FFE0
FFE0
0FE0
0C00
0C00
0C00
0C00
0C00
0C00
0C00
0C00
0C00
0C00
0C00
ENDCHAR
STARTCHAR 252F
ENCODING 9519
SWIDTH 600 0
DWIDTH 10 0
BBX 11 14 0 -6
BITMAP
FFE0
FFE0
FFE0
0C00
0C00
0C00
0C00
0C00
0C00
0C00
0C00
0C00
0C00
0C00
ENDCHAR
STARTCHAR 2530
ENCODING 9520
SWIDTH 600 0
DWIDTH 10 0
BBX 11 14 0 -7
BITMAP
FFE0
FFE0
1E00
1E00
1E00
1E00
1E00
1E00
1E00
1E00
1E00
1E00
1E00
1E00
ENDCHAR
STARTCHAR 2531
ENCODING 9521
SWIDTH 600 0
DWIDTH 10 0
BBX 11 14 0 -6
BITMAP
FFE0
FFE0
FE00
1E00
1E00
1E00
1E00
1E00
1E00
1E00
1E00
1E00
1E00
1E00
ENDCHAR
STARTCHAR 2532
ENCODING 9522
SWIDTH 600 0
DWIDTH 10 0
BBX 11 14 0 -6
BITMAP
FFE0
FFE0
1FE0
1E00
1E00
1E00
1E00
1E00
1E00
1E00
1E00
1E00
1E00
1E00
ENDCHAR
STARTCHAR 2533
ENCODING 9523
SWIDTH 600 0
DWIDTH 10 0
BBX 11 14 0 -6
BITMAP
FFE0
FFE0
FFE0
1E00
1E00
1E00
1E00
1E00
1E00
1E00
1E00
1E00
1E00
1E00
ENDCHAR
STARTCHAR 2534
ENCODING 9524
SWIDTH 600 0
DWIDTH 10 0
BBX 11 14 0 5
BITMAP
0C00
0C00
0C00
0C00
0C00
0C00
0C00
0C00
0C00
0C00
0C00
0C00
FFE0
FFE0
ENDCHAR
STARTCHAR 2535
ENCODING 9525
SWIDTH 600 0
DWIDTH 10 0
BBX 11 15 0 5
BITMAP
0C00
0C00
0C00
0C00
0C00
0C00
0C00
0C00
0C00
0C00
0C00
0C00
FFE0
FFE0
FC00
ENDCHAR
STARTCHAR 2536
ENCODING 9526
SWIDTH 600 0
DWIDTH 10 0
BBX 11 15 0 5
BITMAP
0C00
0C00
0C00
0C00
0C00
0C00
0C00
0C00
0C00
0C00
0C00
0C00
FFE0
FFE0
0FE0
ENDCHAR
STARTCHAR 2537
ENCODING 9527
SWIDTH 600 0
DWIDTH 10 0
BBX 11 15 0 5
BITMAP
0C00
0C00
0C00
0C00
0C00
0C00
0C00
0C00
0C00
0C00
0C00
0C00
FFE0
FFE0
FFE0
ENDCHAR
STARTCHAR 2538
ENCODING 9528
SWIDTH 600 0
DWIDTH 10 0
BBX 11 14 0 5
BITMAP
1E00
1E00
1E00
1E00
1E00
1E00
1E00
1E00
1E00
1E00
1E00
1E00
FFE0
FFE0
ENDCHAR
STARTCHAR 2539
ENCODING 9529
SWIDTH 600 0
DWIDTH 10 0
BBX 11 15 0 5
BITMAP
1E00
1E00
1E00
1E00
1E00
1E00
1E00
1E00
1E00
1E00
1E00
1E00
FFE0
FFE0
FE00
ENDCHAR
STARTCHAR 253A
ENCODING 9530
SWIDTH 600 0
DWIDTH 10 0
BBX 11 15 0 5
BITMAP
1E00
1E00
1E00
1E00
1E00
1E00
1E00
1E00
1E00
1E00
1E00
1E00
FFE0
FFE0
1FE0
ENDCHAR
STARTCHAR 253B
ENCODING 9531
SWIDTH 600 0
DWIDTH 10 0
BBX 11 15 0 5
BITMAP
1E00
1E00
1E00
1E00
1E00
1E00
1E00
1E00
1E00
1E00
1E00
1E00
FFE0
FFE0
FFE0
ENDCHAR
STARTCHAR 253C
ENCODING 9532
SWIDTH 600 0
DWIDTH 10 0
BBX 11 26 0 -7
BITMAP
0C00
0C00
0C00
0C00
0C00
0C00
0C00
0C00
0C00
0C00
0C00
0C00
FFE0
FFE0
0C00
0C00
0C00
0C00
0C00
0C00
0C00
0C00
0C00
0C00
0C00
0C00
ENDCHAR
STARTCHAR 253D
ENCODING 9533
SWIDTH 600 0
DWIDTH 10 0
BBX 11 26 0 -6
BITMAP
0C00
0C00
0C00
0C00
0C00
0C00
0C00
0C00
0C00
0C00
0C00
0C00
FFE0
FFE0
FC00
0C00
0C00
0C00
0C00
0C00
0C00
0C00
0C00
0C00
0C00
0C00
ENDCHAR
STARTCHAR 253E
ENCODING 9534
SWIDTH 600 0
DWIDTH 10 0
BBX 11 26 0 -6
BITMAP
0C00
0C00
0C00
0C00
0C00
0C00
0C00
0C00
0C00
0C00
0C00
0C00
FFE0
FFE0
0FE0
0C00
0C00
0C00
0C00
0C00
0C00
0C00
0C00
0C00
0C00
0C00
ENDCHAR
STARTCHAR 253F
ENCODING 9535
SWIDTH 600 0
DWIDTH 10 0
BBX 11 26 0 -6
BITMAP
0C00
0C00
0C00
0C00
0C00
0C00
0C00
0C00
0C00
0C00
0C00
0C00
FFE0
FFE0
FFE0
0C00
0C00
0C00
0C00
0C00
0C00
0C00
0C00
0C00
0C00
0C00
ENDCHAR
STARTCHAR 2540
ENCODING 9536
SWIDTH 600 0
DWIDTH 10 0
BBX 11 26 0 -7
BITMAP
1E00
1E00
1E00
1E00
1E00
1E00
1E00
1E00
1E00
1E00
1E00
1E00
FFE0
FFE0
0C00
0C00
0C00
0C00
0C00
0C00
0C00
0C00
0C00
0C00
0C00
0C00
ENDCHAR
STARTCHAR 2541
ENCODING 9537
SWIDTH 600 0
DWIDTH 10 0
BBX 11 26 0 -7
BITMAP
0C00
0C00
0C00
0C00
0C00
0C00
0C00
0C00
0C00
0C00
0C00
0C00
FFE0
FFE0
1E00
1E00
1E00
1E00
1E00
1E00
1E00
1E00
1E00
1E00
1E00
1E00
ENDCHAR
STARTCHAR 2542
ENCODING 9538
SWIDTH 600 0
DWIDTH 10 0
BBX 11 26 0 -7
BITMAP
1E00
1E00
1E00
1E00
1E00
1E00
1E00
1E00
1E00
1E00
1E00
1E00
FFE0
FFE0
1E00
1E00
1E00
1E00
1E00
1E00
1E00
1E00
1E00
1E00
1E00
1E00
ENDCHAR
STARTCHAR 2543
ENCODING 9539
SWIDTH 600 0
DWIDTH 10 0
BBX 11 26 0 -6
BITMAP
1E00
1E00
1E00
1E00
1E00
1E00
1E00
1E00
1E00
1E00
1E00
1E00
FFE0
FFE0
FE00
0C00
0C00
0C00
0C00
0C00
0C00
0C00
0C00
0C00
0C00
0C00
ENDCHAR
STARTCHAR 2544
ENCODING 9540
SWIDTH 600 0
DWIDTH 10 0
BBX 11 26 0 -6
BITMAP
1E00
1E00
1E00
1E00
1E00
1E00
1E00
1E00
1E00
1E00
1E00
1E00
FFE0
FFE0
1FE0
0C00
0C00
0C00
0C00
0C00
0C00
0C00
0C00
0C00
0C00
0C00
ENDCHAR
STARTCHAR 2545
ENCODING 9541
SWIDTH 600 0
DWIDTH 10 0
BBX 11 26 0 -6
BITMAP
0C00
0C00
0C00
0C00
0C00
0C00
0C00
0C00
0C00
0C00
0C00
0C00
FFE0
FFE0
FE00
1E00
1E00
1E00
1E00
1E00
1E00
1E00
1E00
1E00
1E00
1E00
ENDCHAR
STARTCHAR 2546
ENCODING 9542
SWIDTH 600 0
DWIDTH 10 0
BBX 11 26 0 -6
BITMAP
0C00
0C00
0C00
0C00
0C00
0C00
0C00
0C00
0C00
0C00
0C00
0C00
FFE0
FFE0
1FE0
1E00
1E00
1E00
1E00
1E00
1E00
1E00
1E00
1E00
1E00
1E00
ENDCHAR
STARTCHAR 2547
ENCODING 9543
SWIDTH 600 0
DWIDTH 10 0
BBX 11 26 0 -6
BITMAP
1E00
1E00
1E00
1E00
1E00
1E00
1E00
1E00
1E00
1E00
1E00
1E00
FFE0
FFE0
FFE0
0C00
0C00
0C00
0C00
0C00
0C00
0C00
0C00
0C00
0C00
0C00
ENDCHAR
STARTCHAR 2548
ENCODING 9544
SWIDTH 600 0
DWIDTH 10 0
BBX 11 26 0 -6
BITMAP
0C00
0C00
0C00
0C00
0C00
0C00
0C00
0C00
0C00
0C00
0C00
0C00
FFE0
FFE0
FFE0
1E00
1E00
1E00
1E00
1E00
1E00
1E00
1E00
1E00
1E00
1E00
ENDCHAR
STARTCHAR 2549
ENCODING 9545
SWIDTH 600 0
DWIDTH 10 0
BBX 11 26 0 -6
BITMAP
1E00
1E00
1E00
1E00
1E00
1E00
1E00
1E00
1E00
1E00
1E00
1E00
FFE0
FFE0
FE00
1E00
1E00
1E00
1E00
1E00
1E00
1E00
1E00
1E00
1E00
1E00
ENDCHAR
STARTCHAR 254A
ENCODING 9546
SWIDTH 600 0
DWIDTH 10 0
BBX 11 26 0 -6
BITMAP
1E00
1E00
1E00
1E00
1E00
1E00
1E00
1E00
1E00
1E00
1E00
1E00
FFE0
FFE0
1FE0
1E00
1E00
1E00
1E00
1E00
1E00
1E00
1E00
1E00
1E00
1E00
ENDCHAR
STARTCHAR 254B
ENCODING 9547
SWIDTH 600 0
DWIDTH 10 0
BBX 11 26 0 -6
BITMAP
1E00
1E00
1E00
1E00
1E00
1E00
1E00
1E00
1E00
1E00
1E00
1E00
FFE0
FFE0
FFE0
1E00
1E00
1E00
1E00
1E00
1E00
1E00
1E00
1E00
1E00
1E00
ENDCHAR
STARTCHAR 254C
ENCODING 9548
SWIDTH 600 0
DWIDTH 10 0
BBX 8 2 1 5
BITMAP
E7
E7
ENDCHAR
STARTCHAR 254D
ENCODING 9549
SWIDTH 600 0
DWIDTH 10 0
BBX 8 3 1 5
BITMAP
E7
E7
E7
ENDCHAR
STARTCHAR 254E
ENCODING 9550
SWIDTH 600 0
DWIDTH 10 0
BBX 2 18 4 -3
BITMAP
C0
C0
C0
C0
C0
C0
C0
C0
00
00
C0
C0
C0
C0
C0
C0
C0
C0
ENDCHAR
STARTCHAR 254F
ENCODING 9551
SWIDTH 600 0
DWIDTH 10 0
BBX 4 18 3 -2
BITMAP
F0
F0
F0
F0
F0
F0
F0
F0
00
00
00
F0
F0
F0
F0
F0
F0
F0
ENDCHAR
STARTCHAR 2550
ENCODING 9552
SWIDTH 600 0
DWIDTH 10 0
BBX 11 5 0 4
BITMAP
FFE0
FFE0
0000
FFE0
FFE0
ENDCHAR
STARTCHAR 2551
ENCODING 9553
SWIDTH 600 0
DWIDTH 10 0
BBX 5 26 3 -7
BITMAP
98
98
98
98
98
98
98
98
98
98
98
98
98
98
98
98
98
98
98
98
98
98
98
98
98
98
ENDCHAR
STARTCHAR 2552
ENCODING 9554
SWIDTH 600 0
DWIDTH 10 0
BBX 7 15 4 -6
BITMAP
FE
FE
C0
FE
FE
C0
C0
C0
C0
C0
C0
C0
C0
C0
C0
ENDCHAR
STARTCHAR 2553
ENCODING 9555
SWIDTH 600 0
DWIDTH 10 0
BBX 8 14 3 -7
BITMAP
FF
FF
98
98
98
98
98
98
98
98
98
98
98
98
ENDCHAR
STARTCHAR 2554
ENCODING 9556
SWIDTH 600 0
DWIDTH 10 0
BBX 8 15 3 -6
BITMAP
FF
FF
80
9F
9F
98
98
98
98
98
98
98
98
98
98
ENDCHAR
STARTCHAR 2555
ENCODING 9557
SWIDTH 600 0
DWIDTH 10 0
BBX 6 15 0 -6
BITMAP
FC
FC
0C
FC
FC
0C
0C
0C
0C
0C
0C
0C
0C
0C
0C
ENDCHAR
STARTCHAR 2556
ENCODING 9558
SWIDTH 600 0
DWIDTH 10 0
BBX 8 14 0 -7
BITMAP
FF
FF
13
13
13
13
13
13
13
13
13
13
13
13
ENDCHAR
STARTCHAR 2557
ENCODING 9559
SWIDTH 600 0
DWIDTH 10 0
BBX 8 15 0 -6
BITMAP
FF
FF
03
F3
F3
13
13
13
13
13
13
13
13
13
13
ENDCHAR
STARTCHAR 2558
ENCODING 9560
SWIDTH 600 0
DWIDTH 10 0
BBX 7 16 4 4
BITMAP
C0
C0
C0
C0
C0
C0
C0
C0
C0
C0
C0
FE
FE
C0
FE
FE
ENDCHAR
STARTCHAR 2559
ENCODING 9561
SWIDTH 600 0
DWIDTH 10 0
BBX 8 14 3 5
BITMAP
98
98
98
98
98
98
98
98
98
98
98
98
FF
FF
ENDCHAR
STARTCHAR 255A
ENCODING 9562
SWIDTH 600 0
DWIDTH 10 0
BBX 8 16 3 4
BITMAP
98
98
98
98
98
98
98
98
98
98
98
9F
9F
80
FF
FF
ENDCHAR
STARTCHAR 255B
ENCODING 9563
SWIDTH 600 0
DWIDTH 10 0
BBX 6 16 0 4
BITMAP
0C
0C
0C
0C
0C
0C
0C
0C
0C
0C
0C
FC
FC
0C
FC
FC
ENDCHAR
STARTCHAR 255C
ENCODING 9564
SWIDTH 600 0
DWIDTH 10 0
BBX 8 14 0 5
BITMAP
13
13
13
13
13
13
13
13
13
13
13
13
FF
FF
ENDCHAR
STARTCHAR 255D
ENCODING 9565
SWIDTH 600 0
DWIDTH 10 0
BBX 8 16 0 4
BITMAP
13
13
13
13
13
13
13
13
13
13
13
F3
F3
03
FF
FF
ENDCHAR
STARTCHAR 255E
ENCODING 9566
SWIDTH 600 0
DWIDTH 10 0
BBX 7 26 4 -6
BITMAP
C0
C0
C0
C0
C0
C0
C0
C0
C0
C0
C0
FE
FE
C0
FE
FE
C0
C0
C0
C0
C0
C0
C0
C0
C0
C0
ENDCHAR
STARTCHAR 255F
ENCODING 9567
SWIDTH 600 0
DWIDTH 10 0
BBX 8 26 3 -7
BITMAP
98
98
98
98
98
98
98
98
98
98
98
98
9F
9F
98
98
98
98
98
98
98
98
98
98
98
98
ENDCHAR
STARTCHAR 2560
ENCODING 9568
SWIDTH 600 0
DWIDTH 10 0
BBX 8 26 3 -6
BITMAP
98
98
98
98
98
98
98
98
98
98
98
9F
9F
80
9F
9F
98
98
98
98
98
98
98
98
98
98
ENDCHAR
STARTCHAR 2561
ENCODING 9569
SWIDTH 600 0
DWIDTH 10 0
BBX 6 26 0 -6
BITMAP
0C
0C
0C
0C
0C
0C
0C
0C
0C
0C
0C
FC
FC
0C
FC
FC
0C
0C
0C
0C
0C
0C
0C
0C
0C
0C
ENDCHAR
STARTCHAR 2562
ENCODING 9570
SWIDTH 600 0
DWIDTH 10 0
BBX 8 26 0 -7
BITMAP
13
13
13
13
13
13
13
13
13
13
13
13
F3
F3
13
13
13
13
13
13
13
13
13
13
13
13
ENDCHAR
STARTCHAR 2563
ENCODING 9571
SWIDTH 600 0
DWIDTH 10 0
BBX 8 26 0 -6
BITMAP
13
13
13
13
13
13
13
13
13
13
13
F3
F3
03
F3
F3
13
13
13
13
13
13
13
13
13
13
ENDCHAR
STARTCHAR 2564
ENCODING 9572
SWIDTH 600 0
DWIDTH 10 0
BBX 11 15 0 -6
BITMAP
FFE0
FFE0
0000
FFE0
FFE0
0C00
0C00
0C00
0C00
0C00
0C00
0C00
0C00
0C00
0C00
ENDCHAR
STARTCHAR 2565
ENCODING 9573
SWIDTH 600 0
DWIDTH 10 0
BBX 11 14 0 -7
BITMAP
FFE0
FFE0
1300
1300
1300
1300
1300
1300
1300
1300
1300
1300
1300
1300
ENDCHAR
STARTCHAR 2566
ENCODING 9574
SWIDTH 600 0
DWIDTH 10 0
BBX 11 15 0 -6
BITMAP
FFE0
FFE0
0000
F3E0
F3E0
1300
1300
1300
1300
1300
1300
1300
1300
1300
1300
ENDCHAR
STARTCHAR 2567
ENCODING 9575
SWIDTH 600 0
DWIDTH 10 0
BBX 11 16 0 4
BITMAP
0C00
0C00
0C00
0C00
0C00
0C00
0C00
0C00
0C00
0C00
0C00
FFE0
FFE0
0000
FFE0
FFE0
ENDCHAR
STARTCHAR 2568
ENCODING 9576
SWIDTH 600 0
DWIDTH 10 0
BBX 11 14 0 5
BITMAP
1300
1300
1300
1300
1300
1300
1300
1300
1300
1300
1300
1300
FFE0
FFE0
ENDCHAR
STARTCHAR 2569
ENCODING 9577
SWIDTH 600 0
DWIDTH 10 0
BBX 11 16 0 4
BITMAP
1300
1300
1300
1300
1300
1300
1300
1300
1300
1300
1300
F3E0
F3E0
0000
FFE0
FFE0
ENDCHAR
STARTCHAR 256A
ENCODING 9578
SWIDTH 600 0
DWIDTH 10 0
BBX 11 26 0 -6
BITMAP
0C00
0C00
0C00
0C00
0C00
0C00
0C00
0C00
0C00
0C00
0C00
FFE0
FFE0
0C00
FFE0
FFE0
0C00
0C00
0C00
0C00
0C00
0C00
0C00
0C00
0C00
0C00
ENDCHAR
STARTCHAR 256B
ENCODING 9579
SWIDTH 600 0
DWIDTH 10 0
BBX 11 26 0 -7
BITMAP
1300
1300
1300
1300
1300
1300
1300
1300
1300
1300
1300
1300
FFE0
FFE0
1300
1300
1300
1300
1300
1300
1300
1300
1300
1300
1300
1300
ENDCHAR
STARTCHAR 256C
ENCODING 9580
SWIDTH 600 0
DWIDTH 10 0
BBX 11 26 0 -6
BITMAP
1300
1300
1300
1300
1300
1300
1300
1300
1300
1300
1300
F3E0
F3E0
0000
F3E0
F3E0
1300
1300
1300
1300
1300
1300
1300
1300
1300
1300
ENDCHAR
STARTCHAR 256D
ENCODING 9581
SWIDTH 600 0
DWIDTH 10 0
BBX 7 14 4 -7
BITMAP
0E
3E
70
60
C0
C0
C0
C0
C0
C0
C0
C0
C0
C0
ENDCHAR
STARTCHAR 256E
ENCODING 9582
SWIDTH 600 0
DWIDTH 10 0
BBX 6 14 0 -7
BITMAP
C0
F0
38
08
0C
0C
0C
0C
0C
0C
0C
0C
0C
0C
ENDCHAR
STARTCHAR 256F
ENCODING 9583
SWIDTH 600 0
DWIDTH 10 0
BBX 6 14 0 5
BITMAP
0C
0C
0C
0C
0C
0C
0C
0C
0C
0C
0C
18
F0
E0
ENDCHAR
STARTCHAR 2570
ENCODING 9584
SWIDTH 600 0
DWIDTH 10 0
BBX 7 14 4 5
BITMAP
C0
C0
C0
C0
C0
C0
C0
C0
C0
C0
60
70
3E
1E
ENDCHAR
STARTCHAR 2571
ENCODING 9585
SWIDTH 600 0
DWIDTH 10 0
BBX 11 18 0 -3
BITMAP
0060
0040
00C0
0180
0180
0300
0300
0600
0400
0C00
0800
1800
3000
3000
6000
4000
C000
8000
ENDCHAR
STARTCHAR 2572
ENCODING 9586
SWIDTH 600 0
DWIDTH 10 0
BBX 11 18 0 -3
BITMAP
8000
C000
C000
6000
6000
3000
1000
1800
0C00
0C00
0600
0600
0300
0100
0180
0080
00C0
0060
ENDCHAR
STARTCHAR 2573
ENCODING 9587
SWIDTH 600 0
DWIDTH 10 0
BBX 11 18 0 -3
BITMAP
8060
C040
C0C0
6180
6180
3300
1300
1E00
0C00
0C00
0E00
1E00
3300
3100
6180
4080
C0C0
8060
ENDCHAR
STARTCHAR 2574
ENCODING 9588
SWIDTH 600 0
DWIDTH 10 0
BBX 6 2 0 5
BITMAP
FC
FC
ENDCHAR
STARTCHAR 2575
ENCODING 9589
SWIDTH 600 0
DWIDTH 10 0
BBX 2 14 4 5
BITMAP
C0
C0
C0
C0
C0
C0
C0
C0
C0
C0
C0
C0
C0
C0
ENDCHAR
STARTCHAR 2576
ENCODING 9590
SWIDTH 600 0
DWIDTH 10 0
BBX 7 2 4 5
BITMAP
FE
FE
ENDCHAR
STARTCHAR 2577
ENCODING 9591
SWIDTH 600 0
DWIDTH 10 0
BBX 2 14 4 -7
BITMAP
C0
C0
C0
C0
C0
C0
C0
C0
C0
C0
C0
C0
C0
C0
ENDCHAR
STARTCHAR 2578
ENCODING 9592
SWIDTH 600 0
DWIDTH 10 0
BBX 6 3 0 5
BITMAP
FC
FC
FC
ENDCHAR
STARTCHAR 2579
ENCODING 9593
SWIDTH 600 0
DWIDTH 10 0
BBX 4 14 3 5
BITMAP
F0
F0
F0
F0
F0
F0
F0
F0
F0
F0
F0
F0
F0
F0
ENDCHAR
STARTCHAR 257A
ENCODING 9594
SWIDTH 600 0
DWIDTH 10 0
BBX 7 3 4 5
BITMAP
FE
FE
FE
ENDCHAR
STARTCHAR 257B
ENCODING 9595
SWIDTH 600 0
DWIDTH 10 0
BBX 4 14 3 -7
BITMAP
F0
F0
F0
F0
F0
F0
F0
F0
F0
F0
F0
F0
F0
F0
ENDCHAR
STARTCHAR 257C
ENCODING 9596
SWIDTH 600 0
DWIDTH 10 0
BBX 11 3 0 5
BITMAP
FFE0
FFE0
0FE0
ENDCHAR
STARTCHAR 257D
ENCODING 9597
SWIDTH 600 0
DWIDTH 10 0
BBX 4 26 3 -7
BITMAP
60
60
60
60
60
60
60
60
60
60
60
60
F0
F0
F0
F0
F0
F0
F0
F0
F0
F0
F0
F0
F0
F0
ENDCHAR
STARTCHAR 257E
ENCODING 9598
SWIDTH 600 0
DWIDTH 10 0
BBX 11 3 0 5
BITMAP
FFE0
FFE0
FC00
ENDCHAR
STARTCHAR 257F
ENCODING 9599
SWIDTH 600 0
DWIDTH 10 0
BBX 4 26 3 -7
BITMAP
F0
F0
F0
F0
F0
F0
F0
F0
F0
F0
F0
F0
F0
F0
60
60
60
60
60
60
60
60
60
60
60
60
ENDCHAR
STARTCHAR 2580
ENCODING 9600
SWIDTH 600 0
DWIDTH 10 0
BBX 10 11 0 6
BITMAP
FFC0
FFC0
FFC0
FFC0
FFC0
FFC0
FFC0
FFC0
FFC0
FFC0
FFC0
ENDCHAR
STARTCHAR 2581
ENCODING 9601
SWIDTH 600 0
DWIDTH 10 0
BBX 10 3 0 -5
BITMAP
FFC0
FFC0
FFC0
ENDCHAR
STARTCHAR 2582
ENCODING 9602
SWIDTH 600 0
DWIDTH 10 0
BBX 10 6 0 -5
BITMAP
FFC0
FFC0
FFC0
FFC0
FFC0
FFC0
ENDCHAR
STARTCHAR 2583
ENCODING 9603
SWIDTH 600 0
DWIDTH 10 0
BBX 10 9 0 -5
BITMAP
FFC0
FFC0
FFC0
FFC0
FFC0
FFC0
FFC0
FFC0
FFC0
ENDCHAR
STARTCHAR 2584
ENCODING 9604
SWIDTH 600 0
DWIDTH 10 0
BBX 10 11 0 -5
BITMAP
FFC0
FFC0
FFC0
FFC0
FFC0
FFC0
FFC0
FFC0
FFC0
FFC0
FFC0
ENDCHAR
STARTCHAR 2585
ENCODING 9605
SWIDTH 600 0
DWIDTH 10 0
BBX 10 14 0 -5
BITMAP
FFC0
FFC0
FFC0
FFC0
FFC0
FFC0
FFC0
FFC0
FFC0
FFC0
FFC0
FFC0
FFC0
FFC0
ENDCHAR
STARTCHAR 2586
ENCODING 9606
SWIDTH 600 0
DWIDTH 10 0
BBX 10 17 0 -5
BITMAP
FFC0
FFC0
FFC0
FFC0
FFC0
FFC0
FFC0
FFC0
FFC0
FFC0
FFC0
FFC0
FFC0
FFC0
FFC0
FFC0
FFC0
ENDCHAR
STARTCHAR 2587
ENCODING 9607
SWIDTH 600 0
DWIDTH 10 0
BBX 10 20 0 -5
BITMAP
FFC0
FFC0
FFC0
FFC0
FFC0
FFC0
FFC0
FFC0
FFC0
FFC0
FFC0
FFC0
FFC0
FFC0
FFC0
FFC0
FFC0
FFC0
FFC0
FFC0
ENDCHAR
STARTCHAR 2588
ENCODING 9608
SWIDTH 600 0
DWIDTH 10 0
BBX 10 23 0 -5
BITMAP
FFC0
FFC0
FFC0
FFC0
FFC0
FFC0
FFC0
FFC0
FFC0
FFC0
FFC0
FFC0
FFC0
FFC0
FFC0
FFC0
FFC0
FFC0
FFC0
FFC0
FFC0
FFC0
FFC0
ENDCHAR
STARTCHAR 2589
ENCODING 9609
SWIDTH 600 0
DWIDTH 10 0
BBX 9 23 0 -5
BITMAP
FF80
FF80
FF80
FF80
FF80
FF80
FF80
FF80
FF80
FF80
FF80
FF80
FF80
FF80
FF80
FF80
FF80
FF80
FF80
FF80
FF80
FF80
FF80
ENDCHAR
STARTCHAR 258A
ENCODING 9610
SWIDTH 600 0
DWIDTH 10 0
BBX 8 23 0 -5
BITMAP
FF
FF
FF
FF
FF
FF
FF
FF
FF
FF
FF
FF
FF
FF
FF
FF
FF
FF
FF
FF
FF
FF
FF
ENDCHAR
STARTCHAR 258B
ENCODING 9611
SWIDTH 600 0
DWIDTH 10 0
BBX 6 23 0 -5
BITMAP
FC
FC
FC
FC
FC
FC
FC
FC
FC
FC
FC
FC
FC
FC
FC
FC
FC
FC
FC
FC
FC
FC
FC
ENDCHAR
STARTCHAR 258C
ENCODING 9612
SWIDTH 600 0
DWIDTH 10 0
BBX 5 23 0 -5
BITMAP
F8
F8
F8
F8
F8
F8
F8
F8
F8
F8
F8
F8
F8
F8
F8
F8
F8
F8
F8
F8
F8
F8
F8
ENDCHAR
STARTCHAR 258D
ENCODING 9613
SWIDTH 600 0
DWIDTH 10 0
BBX 3 23 0 -5
BITMAP
E0
E0
E0
E0
E0
E0
E0
E0
E0
E0
E0
E0
E0
E0
E0
E0
E0
E0
E0
E0
E0
E0
E0
ENDCHAR
STARTCHAR 258E
ENCODING 9614
SWIDTH 600 0
DWIDTH 10 0
BBX 3 23 0 -5
BITMAP
E0
E0
E0
E0
E0
E0
E0
E0
E0
E0
E0
E0
E0
E0
E0
E0
E0
E0
E0
E0
E0
E0
E0
ENDCHAR
STARTCHAR 258F
ENCODING 9615
SWIDTH 600 0
DWIDTH 10 0
BBX 1 23 0 -5
BITMAP
80
80
80
80
80
80
80
80
80
80
80
80
80
80
80
80
80
80
80
80
80
80
80
ENDCHAR
STARTCHAR 2590
ENCODING 9616
SWIDTH 600 0
DWIDTH 10 0
BBX 5 23 5 -5
BITMAP
F8
F8
F8
F8
F8
F8
F8
F8
F8
F8
F8
F8
F8
F8
F8
F8
F8
F8
F8
F8
F8
F8
F8
ENDCHAR
STARTCHAR 2591
ENCODING 9617
SWIDTH 600 0
DWIDTH 10 0
BBX 9 21 1 -4
BITMAP
AA80
0000
AA80
0000
AA80
0000
AA80
0000
AA80
0000
AA80
0000
AA80
0000
AA80
0000
AA80
0000
AA80
0000
AA80
ENDCHAR
STARTCHAR 2592
ENCODING 9618
SWIDTH 600 0
DWIDTH 10 0
BBX 10 22 0 -5
BITMAP
5540
AA80
5540
AA80
5540
AA80
5540
AA80
5540
AA80
5540
AA80
5540
AA80
5540
AA80
5540
AA80
5540
AA80
5540
AA80
ENDCHAR
STARTCHAR 2593
ENCODING 9619
SWIDTH 600 0
DWIDTH 10 0
BBX 10 22 0 -5
BITMAP
5540
FFC0
5540
FFC0
5540
FFC0
5540
FFC0
5540
FFC0
5540
FFC0
5540
FFC0
5540
FFC0
5540
FFC0
5540
FFC0
5540
FFC0
ENDCHAR
STARTCHAR 2594
ENCODING 9620
SWIDTH 600 0
DWIDTH 10 0
BBX 10 3 0 15
BITMAP
FFC0
FFC0
FFC0
ENDCHAR
STARTCHAR 2595
ENCODING 9621
SWIDTH 600 0
DWIDTH 10 0
BBX 1 23 9 -5
BITMAP
80
80
80
80
80
80
80
80
80
80
80
80
80
80
80
80
80
80
80
80
80
80
80
ENDCHAR
STARTCHAR 2596
ENCODING 9622
SWIDTH 600 0
DWIDTH 10 0
BBX 5 11 0 -5
BITMAP
F8
F8
F8
F8
F8
F8
F8
F8
F8
F8
F8
ENDCHAR
STARTCHAR 2597
ENCODING 9623
SWIDTH 600 0
DWIDTH 10 0
BBX 5 11 5 -5
BITMAP
F8
F8
F8
F8
F8
F8
F8
F8
F8
F8
F8
ENDCHAR
STARTCHAR 2598
ENCODING 9624
SWIDTH 600 0
DWIDTH 10 0
BBX 5 11 0 6
BITMAP
F8
F8
F8
F8
F8
F8
F8
F8
F8
F8
F8
ENDCHAR
STARTCHAR 2599
ENCODING 9625
SWIDTH 600 0
DWIDTH 10 0
BBX 10 23 0 -5
BITMAP
F800
F800
F800
F800
F800
F800
F800
F800
F800
F800
F800
F800
FFC0
FFC0
FFC0
FFC0
FFC0
FFC0
FFC0
FFC0
FFC0
FFC0
FFC0
ENDCHAR
STARTCHAR 259A
ENCODING 9626
SWIDTH 600 0
DWIDTH 10 0
BBX 10 23 0 -5
BITMAP
F800
F800
F800
F800
F800
F800
F800
F800
F800
F800
F800
F800
07C0
07C0
07C0
07C0
07C0
07C0
07C0
07C0
07C0
07C0
07C0
ENDCHAR
STARTCHAR 259B
ENCODING 9627
SWIDTH 600 0
DWIDTH 10 0
BBX 10 23 0 -5
BITMAP
FFC0
FFC0
FFC0
FFC0
FFC0
FFC0
FFC0
FFC0
FFC0
FFC0
FFC0
FFC0
F800
F800
F800
F800
F800
F800
F800
F800
F800
F800
F800
ENDCHAR
STARTCHAR 259C
ENCODING 9628
SWIDTH 600 0
DWIDTH 10 0
BBX 10 23 0 -5
BITMAP
FFC0
FFC0
FFC0
FFC0
FFC0
FFC0
FFC0
FFC0
FFC0
FFC0
FFC0
FFC0
07C0
07C0
07C0
07C0
07C0
07C0
07C0
07C0
07C0
07C0
07C0
ENDCHAR
STARTCHAR 259D
ENCODING 9629
SWIDTH 600 0
DWIDTH 10 0
BBX 5 11 5 6
BITMAP
F8
F8
F8
F8
F8
F8
F8
F8
F8
F8
F8
ENDCHAR
STARTCHAR 259E
ENCODING 9630
SWIDTH 600 0
DWIDTH 10 0
BBX 10 23 0 -5
BITMAP
07C0
07C0
07C0
07C0
07C0
07C0
07C0
07C0
07C0
07C0
07C0
07C0
F800
F800
F800
F800
F800
F800
F800
F800
F800
F800
F800
ENDCHAR
STARTCHAR 259F
ENCODING 9631
SWIDTH 600 0
DWIDTH 10 0
BBX 10 23 0 -5
BITMAP
07C0
07C0
07C0
07C0
07C0
07C0
07C0
07C0
07C0
07C0
07C0
07C0
FFC0
FFC0
FFC0
FFC0
FFC0
FFC0
FFC0
FFC0
FFC0
FFC0
FFC0
ENDCHAR
STARTCHAR 25A0
ENCODING 9632
SWIDTH 600 0
DWIDTH 10 0
BBX 10 10 0 1
BITMAP
FFC0
FFC0
FFC0
FFC0
FFC0
FFC0
FFC0
FFC0
FFC0
FFC0
ENDCHAR
STARTCHAR 25A1
ENCODING 9633
SWIDTH 600 0
DWIDTH 10 0
BBX 10 10 0 1
BITMAP
FFC0
8040
8040
8040
8040
8040
8040
8040
8040
FFC0
ENDCHAR
STARTCHAR 25AA
ENCODING 9642
SWIDTH 600 0
DWIDTH 10 0
BBX 5 5 3 4
BITMAP
F8
F8
F8
F8
F8
ENDCHAR
STARTCHAR 25AB
ENCODING 9643
SWIDTH 600 0
DWIDTH 10 0
BBX 5 5 3 3
BITMAP
F8
88
88
88
F8
ENDCHAR
STARTCHAR 25B2
ENCODING 9650
SWIDTH 600 0
DWIDTH 10 0
BBX 10 10 0 1
BITMAP
0400
0C00
0E00
1E00
1F00
3F00
3F80
7F80
7FC0
FFC0
ENDCHAR
STARTCHAR 25B3
ENCODING 9651
SWIDTH 600 0
DWIDTH 10 0
BBX 10 10 0 1
BITMAP
0400
0C00
0A00
1200
1100
2100
2080
4080
4040
FFC0
ENDCHAR
STARTCHAR 25B4
ENCODING 9652
SWIDTH 600 0
DWIDTH 10 0
BBX 5 5 3 4
BITMAP
20
60
60
F0
F8
ENDCHAR
STARTCHAR 25B5
ENCODING 9653
SWIDTH 600 0
DWIDTH 10 0
BBX 5 6 3 3
BITMAP
20
20
60
50
90
F8
ENDCHAR
STARTCHAR 25B6
ENCODING 9654
SWIDTH 600 0
DWIDTH 10 0
BBX 10 10 0 1
BITMAP
C000
F000
FC00
FF00
FFC0
FF80
FE00
F800
E000
8000
ENDCHAR
STARTCHAR 25B7
ENCODING 9655
SWIDTH 600 0
DWIDTH 10 0
BBX 10 10 0 1
BITMAP
C000
B000
8C00
8300
80C0
8180
8600
9800
E000
8000
ENDCHAR
STARTCHAR 25B8
ENCODING 9656
SWIDTH 600 0
DWIDTH 10 0
BBX 5 5 3 4
BITMAP
80
C0
F8
F0
80
ENDCHAR
STARTCHAR 25B9
ENCODING 9657
SWIDTH 600 0
DWIDTH 10 0
BBX 5 5 3 4
BITMAP
80
C0
B8
B0
C0
ENDCHAR
STARTCHAR 25BA
ENCODING 9658
SWIDTH 600 0
DWIDTH 10 0
BBX 10 5 0 4
BITMAP
8000
F800
FFC0
FF00
F000
ENDCHAR
STARTCHAR 25BB
ENCODING 9659
SWIDTH 600 0
DWIDTH 10 0
BBX 10 5 0 4
BITMAP
8000
F800
87C0
8F00
F000
ENDCHAR
STARTCHAR 25BC
ENCODING 9660
SWIDTH 600 0
DWIDTH 10 0
BBX 10 10 0 1
BITMAP
FFC0
7FC0
7F80
3F80
3F00
1F00
1E00
0E00
0C00
0400
ENDCHAR
STARTCHAR 25BD
ENCODING 9661
SWIDTH 600 0
DWIDTH 10 0
BBX 10 10 0 1
BITMAP
FFC0
4040
4080
2080
2100
1100
1200
0A00
0C00
0400
ENDCHAR
STARTCHAR 25BE
ENCODING 9662
SWIDTH 600 0
DWIDTH 10 0
BBX 5 5 3 4
BITMAP
F8
F0
60
60
20
ENDCHAR
STARTCHAR 25BF
ENCODING 9663
SWIDTH 600 0
DWIDTH 10 0
BBX 5 5 3 4
BITMAP
F8
90
50
60
20
ENDCHAR
STARTCHAR 25C0
ENCODING 9664
SWIDTH 600 0
DWIDTH 10 0
BBX 10 10 0 1
BITMAP
00C0
03C0
07C0
1FC0
FFC0
7FC0
1FC0
07C0
01C0
0040
ENDCHAR
STARTCHAR 25C1
ENCODING 9665
SWIDTH 600 0
DWIDTH 10 0
BBX 10 10 0 1
BITMAP
00C0
0340
0C40
1040
E040
6040
1840
0640
01C0
0040
ENDCHAR
STARTCHAR 25C2
ENCODING 9666
SWIDTH 600 0
DWIDTH 10 0
BBX 6 5 2 4
BITMAP
04
1C
FC
3C
0C
ENDCHAR
STARTCHAR 25C3
ENCODING 9667
SWIDTH 600 0
DWIDTH 10 0
BBX 6 5 2 4
BITMAP
04
1C
E4
24
1C
ENDCHAR
STARTCHAR 25C4
ENCODING 9668
SWIDTH 600 0
DWIDTH 10 0
BBX 10 5 0 4
BITMAP
0040
07C0
FFC0
3FC0
03C0
ENDCHAR
STARTCHAR 25C5
ENCODING 9669
SWIDTH 600 0
DWIDTH 10 0
BBX 10 5 0 4
BITMAP
0040
07C0
F840
3C40
03C0
ENDCHAR
STARTCHAR 25C6
ENCODING 9670
SWIDTH 600 0
DWIDTH 10 0
BBX 10 10 0 1
BITMAP
0C00
1E00
3F00
7F80
FFC0
FFC0
7F80
3F00
1E00
0C00
ENDCHAR
STARTCHAR 25C7
ENCODING 9671
SWIDTH 600 0
DWIDTH 10 0
BBX 10 10 0 1
BITMAP
0C00
1A00
3100
6080
C040
C0C0
6180
3300
1E00
0C00
ENDCHAR
STARTCHAR 25C8
ENCODING 9672
SWIDTH 600 0
DWIDTH 10 0
BBX 10 10 0 1
BITMAP
0C00
1A00
3500
6C80
DF40
DEC0
6D80
3300
1E00
0C00
ENDCHAR
STARTCHAR 25C9
ENCODING 9673
SWIDTH 600 0
DWIDTH 10 0
BBX 10 11 0 1
BITMAP
1E00
6180
4EC0
BF40
BF40
BF40
BF40
BF40
5EC0
6180
1E00
ENDCHAR
STARTCHAR 25CA
ENCODING 9674
SWIDTH 600 0
DWIDTH 10 0
BBX 8 12 1 0
BITMAP
18
3C
26
66
43
C3
C1
C3
62
26
3C
18
ENDCHAR
STARTCHAR 25CB
ENCODING 9675
SWIDTH 600 0
DWIDTH 10 0
BBX 10 11 0 1
BITMAP
1E00
6180
40C0
8040
8040
8040
8040
8040
40C0
6180
1E00
ENDCHAR
STARTCHAR 25CC
ENCODING 9676
SWIDTH 600 0
DWIDTH 10 0
BBX 10 11 0 1
BITMAP
0C00
6180
C0C0
0000
8040
8040
8040
0000
C0C0
6180
0C00
ENDCHAR
STARTCHAR 25CE
ENCODING 9678
SWIDTH 600 0
DWIDTH 10 0
BBX 10 11 0 1
BITMAP
1E00
6180
5EC0
B140
A140
A0C0
A140
B140
5EC0
6180
1E00
ENDCHAR
STARTCHAR 25CF
ENCODING 9679
SWIDTH 600 0
DWIDTH 10 0
BBX 10 11 0 1
BITMAP
0400
3F00
7F80
FFC0
FFC0
FFC0
FFC0
FFC0
7FC0
7F80
1E00
ENDCHAR
STARTCHAR 25D4
ENCODING 9684
SWIDTH 600 0
DWIDTH 10 0
BBX 10 11 0 1
BITMAP
1E00
6780
47C0
87C0
87C0
87C0
8040
8040
40C0
6180
1E00
ENDCHAR
STARTCHAR 25D5
ENCODING 9685
SWIDTH 600 0
DWIDTH 10 0
BBX 10 10 0 1
BITMAP
1E00
6780
47C0
87C0
87C0
FFC0
FFC0
FFC0
7F80
3F00
ENDCHAR
STARTCHAR 25E6
ENCODING 9702
SWIDTH 600 0
DWIDTH 10 0
BBX 4 4 3 4
BITMAP
70
90
90
60
ENDCHAR
STARTCHAR 25E7
ENCODING 9703
SWIDTH 600 0
DWIDTH 10 0
BBX 10 10 0 1
BITMAP
FFC0
F840
F840
F840
F840
F840
F840
F840
F840
FFC0
ENDCHAR
STARTCHAR 25E8
ENCODING 9704
SWIDTH 600 0
DWIDTH 10 0
BBX 10 10 0 1
BITMAP
FFC0
87C0
87C0
87C0
87C0
87C0
87C0
87C0
87C0
FFC0
ENDCHAR
STARTCHAR 25E9
ENCODING 9705
SWIDTH 600 0
DWIDTH 10 0
BBX 10 10 0 1
BITMAP
FFC0
FFC0
FF40
FE40
FC40
F840
F040
C040
8040
FFC0
ENDCHAR
STARTCHAR 25EA
ENCODING 9706
SWIDTH 600 0
DWIDTH 10 0
BBX 10 10 0 1
BITMAP
FFC0
8040
80C0
81C0
83C0
87C0
8FC0
9FC0
BFC0
FFC0
ENDCHAR
STARTCHAR 25EB
ENCODING 9707
SWIDTH 600 0
DWIDTH 10 0
BBX 10 10 0 1
BITMAP
FFC0
8440
8440
8440
8440
8440
8440
8440
8440
FFC0
ENDCHAR
STARTCHAR 25EF
ENCODING 9711
SWIDTH 600 0
DWIDTH 10 0
BBX 10 11 0 1
BITMAP
1E00
6180
40C0
8040
8040
8040
8040
8040
40C0
6180
1E00
ENDCHAR
STARTCHAR 25F6
ENCODING 9718
SWIDTH 600 0
DWIDTH 10 0
BBX 10 11 0 1
BITMAP
1E00
6180
40C0
8040
8040
87C0
8440
8440
44C0
6580
1E00
ENDCHAR
STARTCHAR 266D
ENCODING 9837
SWIDTH 600 0
DWIDTH 10 0
BBX 6 12 2 0
BITMAP
C0
C0
C0
C0
F8
CC
CC
CC
CC
C8
F8
E0
ENDCHAR
STARTCHAR 266F
ENCODING 9839
SWIDTH 600 0
DWIDTH 10 0
BBX 8 13 1 0
BITMAP
04
04
25
26
3C
64
A5
27
2C
34
E4
A4
20
ENDCHAR
STARTCHAR 2687
ENCODING 9863
SWIDTH 600 0
DWIDTH 10 0
BBX 10 11 0 1
BITMAP
1E00
6180
40C0
8040
8040
B1C0
A140
8040
40C0
6180
1E00
ENDCHAR
STARTCHAR 26A0
ENCODING 9888
SWIDTH 600 0
DWIDTH 10 0
BBX 10 12 0 0
BITMAP
0C00
0C00
1E00
1A00
1B00
3B00
3B00
7B80
7B80
FFC0
F3C0
FFC0
ENDCHAR
STARTCHAR 26A1
ENCODING 9889
SWIDTH 600 0
DWIDTH 10 0
BBX 10 16 0 -2
BITMAP
0100
0100
0200
0400
0C00
1C00
3800
3FC0
FF00
0600
0C00
0800
1000
2000
2000
4000
ENDCHAR
STARTCHAR 2713
ENCODING 10003
SWIDTH 600 0
DWIDTH 10 0
BBX 9 9 1 2
BITMAP
0100
0180
0300
0600
8400
CC00
7800
3000
1000
ENDCHAR
STARTCHAR 2715
ENCODING 10005
SWIDTH 600 0
DWIDTH 10 0
BBX 8 8 1 2
BITMAP
41
C3
66
3C
18
3C
66
C3
ENDCHAR
STARTCHAR 2717
ENCODING 10007
SWIDTH 600 0
DWIDTH 10 0
BBX 9 9 1 2
BITMAP
8100
C180
6200
3400
1800
1C00
2600
4300
8180
ENDCHAR
STARTCHAR 2736
ENCODING 10038
SWIDTH 600 0
DWIDTH 10 0
BBX 9 10 1 1
BITMAP
0800
0800
8980
7E00
3C00
3C00
DB00
0880
0800
0800
ENDCHAR
STARTCHAR 276E
ENCODING 10094
SWIDTH 600 0
DWIDTH 10 0
BBX 5 13 3 0
BITMAP
38
70
70
70
E0
E0
E0
E0
E0
60
70
70
38
ENDCHAR
STARTCHAR 276F
ENCODING 10095
SWIDTH 600 0
DWIDTH 10 0
BBX 6 13 2 0
BITMAP
E0
70
70
30
38
38
1C
18
38
38
70
70
F0
ENDCHAR
STARTCHAR 2770
ENCODING 10096
SWIDTH 600 0
DWIDTH 10 0
BBX 6 13 2 0
BITMAP
3C
3C
7C
78
78
F8
F0
F0
F8
78
7C
3C
3C
ENDCHAR
STARTCHAR 2771
ENCODING 10097
SWIDTH 600 0
DWIDTH 10 0
BBX 6 13 2 0
BITMAP
F0
F0
78
78
78
3C
3C
3C
7C
78
78
F8
F0
ENDCHAR
STARTCHAR 2794
ENCODING 10132
SWIDTH 600 0
DWIDTH 10 0
BBX 10 7 0 3
BITMAP
0600
0700
0380
FFC0
FFC0
0380
0F00
ENDCHAR
STARTCHAR 279C
ENCODING 10140
SWIDTH 600 0
DWIDTH 10 0
BBX 10 8 0 2
BITMAP
0600
0700
0380
FFC0
FFC0
0380
0300
0600
ENDCHAR
STARTCHAR 279D
ENCODING 10141
SWIDTH 600 0
DWIDTH 10 0
BBX 10 7 0 2
BITMAP
0100
0100
0180
FFC0
0180
0100
0100
ENDCHAR
STARTCHAR 279E
ENCODING 10142
SWIDTH 600 0
DWIDTH 10 0
BBX 10 8 0 2
BITMAP
0200
0100
0180
FFC0
FFC0
0180
0100
0200
ENDCHAR
STARTCHAR 27C5
ENCODING 10181
SWIDTH 600 0
DWIDTH 10 0
BBX 6 16 2 -2
BITMAP
38
64
64
04
0C
18
18
30
20
60
40
C0
C0
C0
40
3C
ENDCHAR
STARTCHAR 27C6
ENCODING 10182
SWIDTH 600 0
DWIDTH 10 0
BBX 6 16 2 -2
BITMAP
70
D8
C8
C0
40
60
30
30
18
18
0C
0C
04
0C
0C
F8
ENDCHAR
STARTCHAR 27DC
ENCODING 10204
SWIDTH 600 0
DWIDTH 10 0
BBX 10 3 0 4
BITMAP
6000
9FC0
6000
ENDCHAR
STARTCHAR 27E6
ENCODING 10214
SWIDTH 600 0
DWIDTH 10 0
BBX 5 16 3 -2
BITMAP
F8
A0
A0
A0
A0
A0
A0
A0
A0
A0
A0
A0
A0
A0
A0
F8
ENDCHAR
STARTCHAR 27E7
ENCODING 10215
SWIDTH 600 0
DWIDTH 10 0
BBX 5 16 2 -2
BITMAP
F8
18
18
18
18
18
18
18
18
18
18
18
18
18
18
F8
ENDCHAR
STARTCHAR 27E8
ENCODING 10216
SWIDTH 600 0
DWIDTH 10 0
BBX 6 16 2 -2
BITMAP
0C
18
18
30
30
60
C0
C0
C0
C0
60
20
30
18
18
0C
ENDCHAR
STARTCHAR 27E9
ENCODING 10217
SWIDTH 600 0
DWIDTH 10 0
BBX 6 16 2 -2
BITMAP
C0
60
20
30
18
18
0C
0C
04
0C
18
18
30
60
60
C0
ENDCHAR
STARTCHAR 27EA
ENCODING 10218
SWIDTH 600 0
DWIDTH 10 0
BBX 7 16 2 -2
BITMAP
0A
12
14
28
28
50
A0
A0
A0
A0
50
28
28
14
12
0A
ENDCHAR
STARTCHAR 27EB
ENCODING 10219
SWIDTH 600 0
DWIDTH 10 0
BBX 8 16 1 -2
BITMAP
A0
50
50
28
24
14
0A
0A
0B
0A
14
24
28
50
50
A0
ENDCHAR
STARTCHAR 27F5
ENCODING 10229
SWIDTH 600 0
DWIDTH 10 0
BBX 12 9 -1 1
BITMAP
0C00
1800
3000
6000
FFF0
6000
3000
1800
0C00
ENDCHAR
STARTCHAR 27F6
ENCODING 10230
SWIDTH 600 0
DWIDTH 10 0
BBX 12 9 -1 1
BITMAP
0180
0080
00C0
0060
FFF0
0020
0040
0080
0180
ENDCHAR
STARTCHAR 27F7
ENCODING 10231
SWIDTH 600 0
DWIDTH 10 0
BBX 13 9 -1 1
BITMAP
1980
30C0
6060
4030
FFF8
C030
6060
30C0
1980
ENDCHAR
STARTCHAR 2916
ENCODING 10518
SWIDTH 600 0
DWIDTH 10 0
BBX 13 7 -1 1
BITMAP
C6C0
4360
6130
3FF8
21B0
6360
C6C0
ENDCHAR
STARTCHAR 294A
ENCODING 10570
SWIDTH 600 0
DWIDTH 10 0
BBX 13 7 -1 2
BITMAP
1800
2000
4000
FFF8
0020
0040
0080
ENDCHAR
STARTCHAR 2987
ENCODING 10631
SWIDTH 600 0
DWIDTH 10 0
BBX 5 16 3 -2
BITMAP
18
38
68
C8
88
88
88
88
88
88
88
C8
C8
68
38
18
ENDCHAR
STARTCHAR 2988
ENCODING 10632
SWIDTH 600 0
DWIDTH 10 0
BBX 5 16 2 -2
BITMAP
C0
F0
90
98
88
88
88
88
88
88
88
88
98
B0
E0
C0
ENDCHAR
STARTCHAR 2A00
ENCODING 10752
SWIDTH 600 0
DWIDTH 10 0
BBX 10 11 0 1
BITMAP
1E00
6180
40C0
8040
8040
8C40
8C40
8040
40C0
6180
1E00
ENDCHAR
STARTCHAR 2A05
ENCODING 10757
SWIDTH 600 0
DWIDTH 10 0
BBX 8 12 1 0
BITMAP
FF
81
81
81
81
81
81
81
81
81
81
81
ENDCHAR
STARTCHAR 2A06
ENCODING 10758
SWIDTH 600 0
DWIDTH 10 0
BBX 8 12 1 0
BITMAP
81
81
81
81
81
81
81
81
81
81
81
FF
ENDCHAR
STARTCHAR 2B58
ENCODING 11096
SWIDTH 600 0
DWIDTH 10 0
BBX 11 10 0 0
BITMAP
3F00
7380
C0C0
C0C0
8060
8060
C040
C0C0
6180
3F00
ENDCHAR
STARTCHAR E0A0
ENCODING 57504
SWIDTH 600 0
DWIDTH 10 0
BBX 8 21 2 -5
BITMAP
C0
C0
C0
C4
DE
FF
CC
CC
CC
8C
3C
70
E0
C0
C0
C0
C0
C0
C0
C0
C0
ENDCHAR
STARTCHAR E0A1
ENCODING 57505
SWIDTH 600 0
DWIDTH 10 0
BBX 6 18 2 -3
BITMAP
80
80
80
80
80
80
80
F8
00
00
64
64
74
54
54
4C
4C
44
ENDCHAR
STARTCHAR E0A2
ENCODING 57506
SWIDTH 600 0
DWIDTH 10 0
BBX 8 16 1 -1
BITMAP
3C
66
42
42
42
42
FF
FF
E7
C3
E3
E7
E7
E7
FF
FF
ENDCHAR
STARTCHAR E0B0
ENCODING 57520
SWIDTH 600 0
DWIDTH 10 0
BBX 11 23 -1 -5
BITMAP
8000
C000
E000
F000
F800
FC00
FC00
FE00
FF00
FF80
FFC0
FFE0
FFE0
FFC0
FF80
FF00
FE00
FC00
F800
F000
E000
E000
C000
ENDCHAR
STARTCHAR E0B1
ENCODING 57521
SWIDTH 600 0
DWIDTH 10 0
BBX 10 23 0 -5
BITMAP
C000
6000
2000
3000
1800
0C00
0C00
0600
0300
0180
0180
00C0
00C0
0180
0300
0600
0600
0C00
1800
1800
3000
6000
C000
ENDCHAR
STARTCHAR E0B2
ENCODING 57522
SWIDTH 600 0
DWIDTH 10 0
BBX 11 23 0 -5
BITMAP
0020
0060
00E0
01E0
03E0
03E0
07E0
0FE0
1FE0
3FE0
7FE0
FFE0
7FE0
3FE0
3FE0
1FE0
0FE0
07E0
03E0
01E0
00E0
0060
0020
ENDCHAR
STARTCHAR E0B3
ENCODING 57523
SWIDTH 600 0
DWIDTH 10 0
BBX 10 23 0 -5
BITMAP
00C0
0180
0180
0300
0600
0600
0C00
1800
3000
3000
6000
C000
4000
6000
3000
1800
1800
0C00
0600
0300
0300
0180
00C0
ENDCHAR
STARTCHAR FE62
ENCODING 65122
SWIDTH 600 0
DWIDTH 10 0
BBX 6 6 2 0
BITMAP
30
30
FC
30
30
30
ENDCHAR
STARTCHAR FEFF
ENCODING 65279
SWIDTH 0 0
DWIDTH 0 0
BBX 0 0 0 0
BITMAP
ENDCHAR
STARTCHAR FF5B
ENCODING 65371
SWIDTH 600 0
DWIDTH 10 0
BBX 8 16 1 -2
BITMAP
07
0C
08
08
08
08
08
F0
18
08
08
08
08
08
0C
0F
ENDCHAR
STARTCHAR FF5D
ENCODING 65373
SWIDTH 600 0
DWIDTH 10 0
BBX 7 16 2 -2
BITMAP
E0
60
30
20
20
20
20
1E
30
20
20
20
20
30
20
E0
ENDCHAR
STARTCHAR FFFD
ENCODING 65533
SWIDTH 600 0
DWIDTH 10 0
BBX 10 13 0 0
BITMAP
0C00
1E00
1F00
3300
7180
FDC0
FDC0
F7C0
7F80
3380
3F00
1E00
0C00
ENDCHAR
ENDFONT
